%TF.GenerationSoftware,KiCad,Pcbnew,6.0.1-79c1e3a40b~116~ubuntu21.10.1*%
%TF.CreationDate,2022-02-04T12:14:37-05:00*%
%TF.ProjectId,MIDIborg,4d494449-626f-4726-972e-6b696361645f,rev?*%
%TF.SameCoordinates,Original*%
%TF.FileFunction,Copper,L1,Top*%
%TF.FilePolarity,Positive*%
%FSLAX46Y46*%
G04 Gerber Fmt 4.6, Leading zero omitted, Abs format (unit mm)*
G04 Created by KiCad (PCBNEW 6.0.1-79c1e3a40b~116~ubuntu21.10.1) date 2022-02-04 12:14:37*
%MOMM*%
%LPD*%
G01*
G04 APERTURE LIST*
G04 Aperture macros list*
%AMRoundRect*
0 Rectangle with rounded corners*
0 $1 Rounding radius*
0 $2 $3 $4 $5 $6 $7 $8 $9 X,Y pos of 4 corners*
0 Add a 4 corners polygon primitive as box body*
4,1,4,$2,$3,$4,$5,$6,$7,$8,$9,$2,$3,0*
0 Add four circle primitives for the rounded corners*
1,1,$1+$1,$2,$3*
1,1,$1+$1,$4,$5*
1,1,$1+$1,$6,$7*
1,1,$1+$1,$8,$9*
0 Add four rect primitives between the rounded corners*
20,1,$1+$1,$2,$3,$4,$5,0*
20,1,$1+$1,$4,$5,$6,$7,0*
20,1,$1+$1,$6,$7,$8,$9,0*
20,1,$1+$1,$8,$9,$2,$3,0*%
G04 Aperture macros list end*
%TA.AperFunction,WasherPad*%
%ADD10C,3.650000*%
%TD*%
%TA.AperFunction,ComponentPad*%
%ADD11R,1.500000X1.500000*%
%TD*%
%TA.AperFunction,ComponentPad*%
%ADD12C,1.500000*%
%TD*%
%TA.AperFunction,SMDPad,CuDef*%
%ADD13R,2.510000X1.000000*%
%TD*%
%TA.AperFunction,SMDPad,CuDef*%
%ADD14RoundRect,0.155000X-0.155000X0.212500X-0.155000X-0.212500X0.155000X-0.212500X0.155000X0.212500X0*%
%TD*%
%TA.AperFunction,SMDPad,CuDef*%
%ADD15RoundRect,0.160000X0.197500X0.160000X-0.197500X0.160000X-0.197500X-0.160000X0.197500X-0.160000X0*%
%TD*%
%TA.AperFunction,ComponentPad*%
%ADD16R,1.700000X1.700000*%
%TD*%
%TA.AperFunction,ComponentPad*%
%ADD17O,1.700000X1.700000*%
%TD*%
%TA.AperFunction,SMDPad,CuDef*%
%ADD18RoundRect,0.160000X0.160000X-0.197500X0.160000X0.197500X-0.160000X0.197500X-0.160000X-0.197500X0*%
%TD*%
%TA.AperFunction,SMDPad,CuDef*%
%ADD19RoundRect,0.160000X-0.197500X-0.160000X0.197500X-0.160000X0.197500X0.160000X-0.197500X0.160000X0*%
%TD*%
%TA.AperFunction,SMDPad,CuDef*%
%ADD20RoundRect,0.155000X0.155000X-0.212500X0.155000X0.212500X-0.155000X0.212500X-0.155000X-0.212500X0*%
%TD*%
%TA.AperFunction,SMDPad,CuDef*%
%ADD21RoundRect,0.150000X-0.650000X-0.150000X0.650000X-0.150000X0.650000X0.150000X-0.650000X0.150000X0*%
%TD*%
%TA.AperFunction,SMDPad,CuDef*%
%ADD22RoundRect,0.062500X-0.375000X-0.062500X0.375000X-0.062500X0.375000X0.062500X-0.375000X0.062500X0*%
%TD*%
%TA.AperFunction,SMDPad,CuDef*%
%ADD23RoundRect,0.062500X-0.062500X-0.375000X0.062500X-0.375000X0.062500X0.375000X-0.062500X0.375000X0*%
%TD*%
%TA.AperFunction,SMDPad,CuDef*%
%ADD24R,4.300000X4.300000*%
%TD*%
%TA.AperFunction,SMDPad,CuDef*%
%ADD25RoundRect,0.155000X-0.212500X-0.155000X0.212500X-0.155000X0.212500X0.155000X-0.212500X0.155000X0*%
%TD*%
%TA.AperFunction,SMDPad,CuDef*%
%ADD26RoundRect,0.150000X-0.150000X0.587500X-0.150000X-0.587500X0.150000X-0.587500X0.150000X0.587500X0*%
%TD*%
%TA.AperFunction,SMDPad,CuDef*%
%ADD27RoundRect,0.218750X-0.218750X-0.256250X0.218750X-0.256250X0.218750X0.256250X-0.218750X0.256250X0*%
%TD*%
%TA.AperFunction,SMDPad,CuDef*%
%ADD28C,1.500000*%
%TD*%
%TA.AperFunction,SMDPad,CuDef*%
%ADD29RoundRect,0.160000X-0.160000X0.197500X-0.160000X-0.197500X0.160000X-0.197500X0.160000X0.197500X0*%
%TD*%
%TA.AperFunction,SMDPad,CuDef*%
%ADD30RoundRect,0.155000X0.212500X0.155000X-0.212500X0.155000X-0.212500X-0.155000X0.212500X-0.155000X0*%
%TD*%
%TA.AperFunction,SMDPad,CuDef*%
%ADD31R,1.560000X0.650000*%
%TD*%
%TA.AperFunction,SMDPad,CuDef*%
%ADD32R,0.300000X1.150000*%
%TD*%
%TA.AperFunction,ComponentPad*%
%ADD33O,1.000000X2.100000*%
%TD*%
%TA.AperFunction,ComponentPad*%
%ADD34O,1.000000X1.600000*%
%TD*%
%TA.AperFunction,SMDPad,CuDef*%
%ADD35R,1.050000X0.650000*%
%TD*%
%TA.AperFunction,SMDPad,CuDef*%
%ADD36RoundRect,0.250000X0.475000X-0.337500X0.475000X0.337500X-0.475000X0.337500X-0.475000X-0.337500X0*%
%TD*%
%TA.AperFunction,SMDPad,CuDef*%
%ADD37R,0.450000X0.600000*%
%TD*%
%TA.AperFunction,ViaPad*%
%ADD38C,0.800000*%
%TD*%
%TA.AperFunction,Conductor*%
%ADD39C,0.200000*%
%TD*%
%TA.AperFunction,Conductor*%
%ADD40C,0.250000*%
%TD*%
%TA.AperFunction,Conductor*%
%ADD41C,0.375000*%
%TD*%
%TA.AperFunction,Conductor*%
%ADD42C,0.500000*%
%TD*%
%TA.AperFunction,Conductor*%
%ADD43C,1.250000*%
%TD*%
%TA.AperFunction,Conductor*%
%ADD44C,0.675000*%
%TD*%
G04 APERTURE END LIST*
D10*
%TO.P,J2,*%
%TO.N,*%
X234381700Y-119930800D03*
X222951700Y-119930800D03*
D11*
%TO.P,J2,1*%
%TO.N,+3V3*%
X224221700Y-113580800D03*
D12*
%TO.P,J2,2*%
X225491700Y-111040800D03*
%TO.P,J2,3*%
%TO.N,GND*%
X226761700Y-113580800D03*
%TO.P,J2,4*%
X228031700Y-111040800D03*
%TO.P,J2,5*%
%TO.N,/SPI1_MOSI*%
X229301700Y-113580800D03*
%TO.P,J2,6*%
%TO.N,/SPI1_MISO*%
X230571700Y-111040800D03*
%TO.P,J2,7*%
%TO.N,/SPI1_NSS*%
X231841700Y-113580800D03*
%TO.P,J2,8*%
%TO.N,/SPI1_SCK*%
X233111700Y-111040800D03*
%TD*%
D13*
%TO.P,J6,1,Pin_1*%
%TO.N,GND*%
X205228000Y-78105000D03*
%TO.P,J6,2,Pin_2*%
%TO.N,+3V3*%
X208538000Y-80645000D03*
%TO.P,J6,3,Pin_3*%
%TO.N,+5V*%
X205228000Y-83185000D03*
%TO.P,J6,4,Pin_4*%
%TO.N,unconnected-(J6-Pad4)*%
X208538000Y-85725000D03*
%TO.P,J6,5,Pin_5*%
%TO.N,unconnected-(J6-Pad5)*%
X205228000Y-88265000D03*
%TO.P,J6,6,Pin_6*%
%TO.N,unconnected-(J6-Pad6)*%
X208538000Y-90805000D03*
%TO.P,J6,7,Pin_7*%
%TO.N,unconnected-(J6-Pad7)*%
X205228000Y-93345000D03*
%TO.P,J6,8,Pin_8*%
%TO.N,/GPIO0*%
X208538000Y-95885000D03*
%TO.P,J6,9,Pin_9*%
%TO.N,/GPIO1*%
X205228000Y-98425000D03*
%TO.P,J6,10,Pin_10*%
%TO.N,/GPIO4*%
X208538000Y-100965000D03*
%TO.P,J6,11,Pin_11*%
%TO.N,/GPIO5*%
X205228000Y-103505000D03*
%TD*%
D14*
%TO.P,C14,1*%
%TO.N,GND*%
X231140000Y-89373900D03*
%TO.P,C14,2*%
%TO.N,+3V3*%
X231140000Y-90508900D03*
%TD*%
D15*
%TO.P,R3,1*%
%TO.N,+3V3*%
X233597500Y-86500000D03*
%TO.P,R3,2*%
%TO.N,/dd+*%
X232402500Y-86500000D03*
%TD*%
D16*
%TO.P,J8,1,Pin_1*%
%TO.N,/UART1_RX*%
X210210400Y-107492800D03*
D17*
%TO.P,J8,2,Pin_2*%
%TO.N,/UART1_TX*%
X207670400Y-107492800D03*
%TO.P,J8,3,Pin_3*%
%TO.N,GND*%
X205130400Y-107492800D03*
%TD*%
D18*
%TO.P,R7,1*%
%TO.N,Net-(Q1-Pad1)*%
X218250000Y-106147500D03*
%TO.P,R7,2*%
%TO.N,GND*%
X218250000Y-104952500D03*
%TD*%
D19*
%TO.P,R5,1*%
%TO.N,Net-(P1-PadA5)*%
X229152500Y-86000000D03*
%TO.P,R5,2*%
%TO.N,GND*%
X230347500Y-86000000D03*
%TD*%
D20*
%TO.P,C12,1*%
%TO.N,GND*%
X227600000Y-102392500D03*
%TO.P,C12,2*%
%TO.N,+3V3*%
X227600000Y-101257500D03*
%TD*%
D21*
%TO.P,U1,1,~{CS}*%
%TO.N,/QSPI-CS*%
X211792000Y-87122000D03*
%TO.P,U1,2,DO(IO1)*%
%TO.N,/QSPI-SD1*%
X211792000Y-88392000D03*
%TO.P,U1,3,IO2*%
%TO.N,/QSPI-SD2*%
X211792000Y-89662000D03*
%TO.P,U1,4,GND*%
%TO.N,GND*%
X211792000Y-90932000D03*
%TO.P,U1,5,DI(IO0)*%
%TO.N,/QSPI-SD0*%
X218992000Y-90932000D03*
%TO.P,U1,6,CLK*%
%TO.N,/QSPI-CLK*%
X218992000Y-89662000D03*
%TO.P,U1,7,IO3*%
%TO.N,/QSPI-SD3*%
X218992000Y-88392000D03*
%TO.P,U1,8,VCC*%
%TO.N,+3V3*%
X218992000Y-87122000D03*
%TD*%
D22*
%TO.P,U2,1,IOVDD*%
%TO.N,+3V3*%
X223265500Y-92762000D03*
%TO.P,U2,2,GPIO0*%
%TO.N,/GPIO0*%
X223265500Y-93262000D03*
%TO.P,U2,3,GPIO1*%
%TO.N,/GPIO1*%
X223265500Y-93762000D03*
%TO.P,U2,4,GPIO2*%
%TO.N,/UART1_TX*%
X223265500Y-94262000D03*
%TO.P,U2,5,GPIO3*%
%TO.N,/UART1_RX*%
X223265500Y-94762000D03*
%TO.P,U2,6,GPIO4*%
%TO.N,/GPIO4*%
X223265500Y-95262000D03*
%TO.P,U2,7,GPIO5*%
%TO.N,/GPIO5*%
X223265500Y-95762000D03*
%TO.P,U2,8,GPIO6*%
%TO.N,/SDA0*%
X223265500Y-96262000D03*
%TO.P,U2,9,GPIO7*%
%TO.N,/SCL0*%
X223265500Y-96762000D03*
%TO.P,U2,10,IOVDD*%
%TO.N,+3V3*%
X223265500Y-97262000D03*
%TO.P,U2,11,GPIO8*%
%TO.N,/SPI1_MOSI*%
X223265500Y-97762000D03*
%TO.P,U2,12,GPIO9*%
%TO.N,/SPI1_MISO*%
X223265500Y-98262000D03*
%TO.P,U2,13,GPIO10*%
%TO.N,/SPI1_NSS*%
X223265500Y-98762000D03*
%TO.P,U2,14,GPIO11*%
%TO.N,/SPI1_SCK*%
X223265500Y-99262000D03*
D23*
%TO.P,U2,15,GPIO12*%
%TO.N,/LED1*%
X223953000Y-99949500D03*
%TO.P,U2,16,GPIO13*%
%TO.N,/SPI0_MISO*%
X224453000Y-99949500D03*
%TO.P,U2,17,GPIO14*%
%TO.N,/SPI0_NSS*%
X224953000Y-99949500D03*
%TO.P,U2,18,GPIO15*%
%TO.N,/SPI0_SCK*%
X225453000Y-99949500D03*
%TO.P,U2,19,TESTEN*%
%TO.N,/SPI0_MOSI*%
X225953000Y-99949500D03*
%TO.P,U2,20,XIN*%
%TO.N,Net-(C1-Pad1)*%
X226453000Y-99949500D03*
%TO.P,U2,21,XOUT*%
%TO.N,Net-(C2-Pad1)*%
X226953000Y-99949500D03*
%TO.P,U2,22,IOVDD*%
%TO.N,+3V3*%
X227453000Y-99949500D03*
%TO.P,U2,23,DVDD*%
%TO.N,/1.1V*%
X227953000Y-99949500D03*
%TO.P,U2,24,SWCLK*%
%TO.N,/SWCLK*%
X228453000Y-99949500D03*
%TO.P,U2,25,SWDIO*%
%TO.N,/SWDIO*%
X228953000Y-99949500D03*
%TO.P,U2,26,RUN*%
%TO.N,Net-(R11-Pad2)*%
X229453000Y-99949500D03*
%TO.P,U2,27,GPIO16*%
%TO.N,/GPIO16*%
X229953000Y-99949500D03*
%TO.P,U2,28,GPIO17*%
%TO.N,/GPIO17*%
X230453000Y-99949500D03*
D22*
%TO.P,U2,29,GPIO18*%
%TO.N,/GPIO18*%
X231140500Y-99262000D03*
%TO.P,U2,30,GPIO19*%
%TO.N,/GPIO19*%
X231140500Y-98762000D03*
%TO.P,U2,31,GPIO20*%
%TO.N,/GPIO20*%
X231140500Y-98262000D03*
%TO.P,U2,32,GPIO21*%
%TO.N,/GPIO21*%
X231140500Y-97762000D03*
%TO.P,U2,33,IOVDD*%
%TO.N,+3V3*%
X231140500Y-97262000D03*
%TO.P,U2,34,GPIO22*%
%TO.N,/GPIO22*%
X231140500Y-96762000D03*
%TO.P,U2,35,GPIO23*%
%TO.N,/GPIO23*%
X231140500Y-96262000D03*
%TO.P,U2,36,GPIO24*%
%TO.N,/GPIO24*%
X231140500Y-95762000D03*
%TO.P,U2,37,GPIO25*%
%TO.N,/GPIO25*%
X231140500Y-95262000D03*
%TO.P,U2,38,GPIO26/ADC0*%
%TO.N,/ADC0*%
X231140500Y-94762000D03*
%TO.P,U2,39,GPIO27/ADC1*%
%TO.N,/ADC1*%
X231140500Y-94262000D03*
%TO.P,U2,40,GPIO28/ADC2*%
%TO.N,/ADC2*%
X231140500Y-93762000D03*
%TO.P,U2,41,GPIO29/ADC3*%
%TO.N,/ADC3*%
X231140500Y-93262000D03*
%TO.P,U2,42,IOVDD*%
%TO.N,+3V3*%
X231140500Y-92762000D03*
D23*
%TO.P,U2,43,ADC_AVDD*%
X230453000Y-92074500D03*
%TO.P,U2,44,VREG_VIN*%
X229953000Y-92074500D03*
%TO.P,U2,45,VREG_VOUT*%
%TO.N,/1.1V*%
X229453000Y-92074500D03*
%TO.P,U2,46,USB_DM*%
%TO.N,/d-*%
X228953000Y-92074500D03*
%TO.P,U2,47,USB_DP*%
%TO.N,/d+*%
X228453000Y-92074500D03*
%TO.P,U2,48,USB_VDD*%
%TO.N,+3V3*%
X227953000Y-92074500D03*
%TO.P,U2,49,IOVDD*%
X227453000Y-92074500D03*
%TO.P,U2,50,DVDD*%
%TO.N,/1.1V*%
X226953000Y-92074500D03*
%TO.P,U2,51,QSPI_SD3*%
%TO.N,/QSPI-SD3*%
X226453000Y-92074500D03*
%TO.P,U2,52,QSPI_SCLK*%
%TO.N,/QSPI-CLK*%
X225953000Y-92074500D03*
%TO.P,U2,53,QSPI_SD0*%
%TO.N,/QSPI-SD0*%
X225453000Y-92074500D03*
%TO.P,U2,54,QSPI_SD2*%
%TO.N,/QSPI-SD2*%
X224953000Y-92074500D03*
%TO.P,U2,55,QSPI_SD1*%
%TO.N,/QSPI-SD1*%
X224453000Y-92074500D03*
%TO.P,U2,56,QSPI_SS_N*%
%TO.N,/QSPI-CS*%
X223953000Y-92074500D03*
D24*
%TO.P,U2,57,GND*%
%TO.N,GND*%
X227203000Y-96012000D03*
%TD*%
D25*
%TO.P,C8,1*%
%TO.N,GND*%
X216432500Y-93500000D03*
%TO.P,C8,2*%
%TO.N,+3V3*%
X217567500Y-93500000D03*
%TD*%
D14*
%TO.P,C9,1*%
%TO.N,GND*%
X226517200Y-89018300D03*
%TO.P,C9,2*%
%TO.N,/1.1V*%
X226517200Y-90153300D03*
%TD*%
%TO.P,C19,1*%
%TO.N,GND*%
X212424000Y-77598500D03*
%TO.P,C19,2*%
%TO.N,Net-(C19-Pad2)*%
X212424000Y-78733500D03*
%TD*%
D26*
%TO.P,Q1,1,G*%
%TO.N,Net-(Q1-Pad1)*%
X216225000Y-106312500D03*
%TO.P,Q1,2,S*%
%TO.N,GND*%
X214325000Y-106312500D03*
%TO.P,Q1,3,D*%
%TO.N,Net-(D2-Pad1)*%
X215275000Y-108187500D03*
%TD*%
D18*
%TO.P,R10,1*%
%TO.N,+3V3*%
X213750000Y-93872500D03*
%TO.P,R10,2*%
%TO.N,/QSPI-CS*%
X213750000Y-92677500D03*
%TD*%
D14*
%TO.P,C5,1*%
%TO.N,GND*%
X227634800Y-89018300D03*
%TO.P,C5,2*%
%TO.N,+3V3*%
X227634800Y-90153300D03*
%TD*%
D27*
%TO.P,D2,1,K*%
%TO.N,Net-(D2-Pad1)*%
X217787500Y-108275000D03*
%TO.P,D2,2,A*%
%TO.N,Net-(D2-Pad2)*%
X219362500Y-108275000D03*
%TD*%
D28*
%TO.P,TP2,1,1*%
%TO.N,+5V*%
X220370400Y-78943200D03*
%TD*%
D29*
%TO.P,R4,1*%
%TO.N,Net-(P1-PadB5)*%
X225704400Y-85940300D03*
%TO.P,R4,2*%
%TO.N,GND*%
X225704400Y-87135300D03*
%TD*%
D30*
%TO.P,C3,1*%
%TO.N,GND*%
X234992500Y-96675000D03*
%TO.P,C3,2*%
%TO.N,+3V3*%
X233857500Y-96675000D03*
%TD*%
D10*
%TO.P,J4,*%
%TO.N,*%
X239979200Y-119938800D03*
X251409200Y-119938800D03*
D11*
%TO.P,J4,1*%
%TO.N,+3V3*%
X241249200Y-113588800D03*
D12*
%TO.P,J4,2*%
X242519200Y-111048800D03*
%TO.P,J4,3*%
%TO.N,GND*%
X243789200Y-113588800D03*
%TO.P,J4,4*%
X245059200Y-111048800D03*
%TO.P,J4,5*%
%TO.N,/SPI0_MOSI*%
X246329200Y-113588800D03*
%TO.P,J4,6*%
%TO.N,/SPI0_MISO*%
X247599200Y-111048800D03*
%TO.P,J4,7*%
%TO.N,/SPI0_NSS*%
X248869200Y-113588800D03*
%TO.P,J4,8*%
%TO.N,/SPI0_SCK*%
X250139200Y-111048800D03*
%TD*%
D10*
%TO.P,J7,*%
%TO.N,*%
X217262100Y-119930800D03*
X205832100Y-119930800D03*
D11*
%TO.P,J7,1*%
%TO.N,+3V3*%
X207102100Y-113580800D03*
D12*
%TO.P,J7,2*%
X208372100Y-111040800D03*
%TO.P,J7,3*%
%TO.N,GND*%
X209642100Y-113580800D03*
%TO.P,J7,4*%
X210912100Y-111040800D03*
%TO.P,J7,5*%
%TO.N,/SCL0*%
X212182100Y-113580800D03*
%TO.P,J7,6*%
%TO.N,/SDA0*%
X213452100Y-111040800D03*
%TO.P,J7,7*%
%TO.N,unconnected-(J7-Pad7)*%
X214722100Y-113580800D03*
%TO.P,J7,8*%
%TO.N,unconnected-(J7-Pad8)*%
X215992100Y-111040800D03*
%TD*%
D15*
%TO.P,R11,1*%
%TO.N,+3V3*%
X231072500Y-101875000D03*
%TO.P,R11,2*%
%TO.N,Net-(R11-Pad2)*%
X229877500Y-101875000D03*
%TD*%
D20*
%TO.P,C13,1*%
%TO.N,GND*%
X220275000Y-98892500D03*
%TO.P,C13,2*%
%TO.N,+3V3*%
X220275000Y-97757500D03*
%TD*%
D14*
%TO.P,C7,1*%
%TO.N,GND*%
X232475000Y-90632500D03*
%TO.P,C7,2*%
%TO.N,+3V3*%
X232475000Y-91767500D03*
%TD*%
D31*
%TO.P,U4,1,IN*%
%TO.N,+5V*%
X216949000Y-80640000D03*
%TO.P,U4,2,GND*%
%TO.N,GND*%
X216949000Y-79690000D03*
%TO.P,U4,3,EN*%
%TO.N,+5V*%
X216949000Y-78740000D03*
%TO.P,U4,4,BP*%
%TO.N,Net-(C19-Pad2)*%
X214249000Y-78740000D03*
%TO.P,U4,5,OUT*%
%TO.N,+3V3*%
X214249000Y-80640000D03*
%TD*%
D32*
%TO.P,P1,A1,GND*%
%TO.N,GND*%
X230807000Y-84157000D03*
%TO.P,P1,A4,VBUS*%
%TO.N,Net-(D1-Pad2)*%
X230007000Y-84157000D03*
%TO.P,P1,A5,CC*%
%TO.N,Net-(P1-PadA5)*%
X228707000Y-84157000D03*
%TO.P,P1,A6,D+*%
%TO.N,/dd+*%
X227707000Y-84157000D03*
%TO.P,P1,A7,D-*%
%TO.N,/dd-*%
X227207000Y-84157000D03*
%TO.P,P1,A8*%
%TO.N,N/C*%
X226207000Y-84157000D03*
%TO.P,P1,A9,VBUS*%
%TO.N,Net-(D1-Pad2)*%
X224907000Y-84157000D03*
%TO.P,P1,A12,GND*%
%TO.N,GND*%
X224107000Y-84157000D03*
%TO.P,P1,B1,GND*%
X224407000Y-84157000D03*
%TO.P,P1,B4,VBUS*%
%TO.N,Net-(D1-Pad2)*%
X225207000Y-84157000D03*
%TO.P,P1,B5,VCONN*%
%TO.N,Net-(P1-PadB5)*%
X225707000Y-84157000D03*
%TO.P,P1,B6*%
%TO.N,N/C*%
X226707000Y-84157000D03*
%TO.P,P1,B7*%
X228207000Y-84157000D03*
%TO.P,P1,B8*%
X229207000Y-84157000D03*
%TO.P,P1,B9,VBUS*%
%TO.N,Net-(D1-Pad2)*%
X229707000Y-84157000D03*
%TO.P,P1,B12,GND*%
%TO.N,GND*%
X230507000Y-84157000D03*
D33*
%TO.P,P1,S1,SHIELD*%
X231777000Y-83592000D03*
D34*
X231777000Y-79412000D03*
D33*
X223137000Y-83592000D03*
D34*
X223137000Y-79412000D03*
%TD*%
D13*
%TO.P,J9,1,Pin_1*%
%TO.N,/GPIO16*%
X251972000Y-103632000D03*
%TO.P,J9,2,Pin_2*%
%TO.N,/GPIO17*%
X248662000Y-101092000D03*
%TO.P,J9,3,Pin_3*%
%TO.N,/GPIO18*%
X251972000Y-98552000D03*
%TO.P,J9,4,Pin_4*%
%TO.N,/GPIO19*%
X248662000Y-96012000D03*
%TO.P,J9,5,Pin_5*%
%TO.N,/GPIO20*%
X251972000Y-93472000D03*
%TO.P,J9,6,Pin_6*%
%TO.N,/GPIO21*%
X248662000Y-90932000D03*
%TO.P,J9,7,Pin_7*%
%TO.N,/GPIO22*%
X251972000Y-88392000D03*
%TO.P,J9,8,Pin_8*%
%TO.N,/GPIO23*%
X248662000Y-85852000D03*
%TO.P,J9,9,Pin_9*%
%TO.N,/GPIO24*%
X251972000Y-83312000D03*
%TO.P,J9,10,Pin_10*%
%TO.N,/GPIO25*%
X248662000Y-80772000D03*
%TO.P,J9,11,Pin_11*%
%TO.N,GND*%
X251972000Y-78232000D03*
%TD*%
D35*
%TO.P,SW1,1,1*%
%TO.N,/USB_BOOT*%
X211700000Y-95250000D03*
X215850000Y-95250000D03*
%TO.P,SW1,2,2*%
%TO.N,GND*%
X215825000Y-97400000D03*
X211700000Y-97400000D03*
%TD*%
D36*
%TO.P,C17,1*%
%TO.N,GND*%
X217424000Y-84537500D03*
%TO.P,C17,2*%
%TO.N,+5V*%
X217424000Y-82462500D03*
%TD*%
D18*
%TO.P,R6,1*%
%TO.N,Net-(Q1-Pad1)*%
X219400000Y-104945000D03*
%TO.P,R6,2*%
%TO.N,/LED1*%
X219400000Y-103750000D03*
%TD*%
D36*
%TO.P,C21,1*%
%TO.N,GND*%
X213842600Y-84603500D03*
%TO.P,C21,2*%
%TO.N,+3V3*%
X213842600Y-82528500D03*
%TD*%
D12*
%TO.P,Y1,1,1*%
%TO.N,Net-(C1-Pad1)*%
X226075000Y-105975000D03*
%TO.P,Y1,2,2*%
%TO.N,Net-(C2-Pad1)*%
X230955000Y-105975000D03*
%TD*%
D20*
%TO.P,C10,1*%
%TO.N,GND*%
X212090000Y-83701700D03*
%TO.P,C10,2*%
%TO.N,+3V3*%
X212090000Y-82566700D03*
%TD*%
D37*
%TO.P,D1,1,K*%
%TO.N,+5V*%
X220218000Y-81373000D03*
%TO.P,D1,2,A*%
%TO.N,Net-(D1-Pad2)*%
X220218000Y-83473000D03*
%TD*%
D18*
%TO.P,R9,1*%
%TO.N,/USB_BOOT*%
X214900000Y-93870000D03*
%TO.P,R9,2*%
%TO.N,/QSPI-CS*%
X214900000Y-92675000D03*
%TD*%
%TO.P,R8,1*%
%TO.N,+3V3*%
X220500000Y-106847500D03*
%TO.P,R8,2*%
%TO.N,Net-(D2-Pad2)*%
X220500000Y-105652500D03*
%TD*%
D14*
%TO.P,C6,1*%
%TO.N,GND*%
X229920800Y-89373900D03*
%TO.P,C6,2*%
%TO.N,+3V3*%
X229920800Y-90508900D03*
%TD*%
D20*
%TO.P,C4,1*%
%TO.N,GND*%
X211000000Y-83692500D03*
%TO.P,C4,2*%
%TO.N,+3V3*%
X211000000Y-82557500D03*
%TD*%
%TO.P,C11,1*%
%TO.N,GND*%
X228725000Y-102367500D03*
%TO.P,C11,2*%
%TO.N,/1.1V*%
X228725000Y-101232500D03*
%TD*%
D18*
%TO.P,R2,1*%
%TO.N,/d+*%
X227825000Y-87472500D03*
%TO.P,R2,2*%
%TO.N,/dd+*%
X227825000Y-86277500D03*
%TD*%
D29*
%TO.P,R1,1*%
%TO.N,/dd-*%
X226800000Y-86277500D03*
%TO.P,R1,2*%
%TO.N,/d-*%
X226800000Y-87472500D03*
%TD*%
D38*
%TO.N,+3V3*%
X234750000Y-86500000D03*
X233750000Y-92250000D03*
%TO.N,Net-(D1-Pad2)*%
X226000000Y-82500000D03*
X229773407Y-82100685D03*
%TO.N,GND*%
X212250000Y-85000000D03*
X212250000Y-92300500D03*
X224250000Y-87000000D03*
X213842600Y-86182200D03*
X213750000Y-91000000D03*
X230250000Y-103500000D03*
X227203000Y-96012000D03*
%TO.N,+3V3*%
X232250000Y-102500000D03*
X224500000Y-93250000D03*
X220750000Y-87250000D03*
X212000000Y-93750000D03*
%TO.N,/LED1*%
X219750000Y-102750000D03*
X223725000Y-100975000D03*
%TD*%
D39*
%TO.N,+3V3*%
X233597500Y-86500000D02*
X234750000Y-86500000D01*
X233267500Y-91767500D02*
X233750000Y-92250000D01*
X232475000Y-91767500D02*
X233267500Y-91767500D01*
%TO.N,/dd+*%
X232402500Y-86500000D02*
X231902500Y-87000000D01*
X231902500Y-87000000D02*
X228529181Y-87000000D01*
X228529181Y-87000000D02*
X227825000Y-86295819D01*
X227825000Y-86295819D02*
X227825000Y-86277500D01*
%TO.N,GND*%
X229920800Y-89373900D02*
X231140000Y-89373900D01*
%TO.N,Net-(P1-PadA5)*%
X229152500Y-86000000D02*
X229152500Y-85902500D01*
X229152500Y-85902500D02*
X228707000Y-85457000D01*
X228707000Y-85457000D02*
X228707000Y-84157000D01*
%TO.N,Net-(D1-Pad2)*%
X226000000Y-82500000D02*
X229374092Y-82500000D01*
X229374092Y-82500000D02*
X229773407Y-82100685D01*
X226000000Y-82589000D02*
X226000000Y-82500000D01*
X225207000Y-83382000D02*
X226000000Y-82589000D01*
X225207000Y-84157000D02*
X225207000Y-83382000D01*
X229672479Y-82201613D02*
X229773407Y-82100685D01*
X229672479Y-83822479D02*
X229672479Y-82201613D01*
X230007000Y-84157000D02*
X229672479Y-83822479D01*
%TO.N,/UART1_RX*%
X208467600Y-105750000D02*
X204750000Y-105750000D01*
X210210400Y-107492800D02*
X208467600Y-105750000D01*
%TO.N,/UART1_TX*%
X223265500Y-94262000D02*
X219553006Y-94262000D01*
X219553006Y-94262000D02*
X217065006Y-96750000D01*
X210592028Y-96750000D02*
X208092028Y-99250000D01*
X217065006Y-96750000D02*
X210592028Y-96750000D01*
X208092028Y-99250000D02*
X204750000Y-99250000D01*
X206427600Y-106250000D02*
X207670400Y-107492800D01*
X204750000Y-99250000D02*
X203300020Y-100699980D01*
X203300020Y-100699980D02*
X203300020Y-105500000D01*
X203300020Y-105500000D02*
X204050020Y-106250000D01*
X204050020Y-106250000D02*
X206427600Y-106250000D01*
%TO.N,GND*%
X212646500Y-84603500D02*
X212250000Y-85000000D01*
X213842600Y-84603500D02*
X212646500Y-84603500D01*
X211792000Y-91842500D02*
X212250000Y-92300500D01*
X211792000Y-91687200D02*
X211792000Y-91842500D01*
%TO.N,/QSPI-CS*%
X211792000Y-87122000D02*
X210794600Y-87122000D01*
X210500000Y-90500000D02*
X210500000Y-91750000D01*
X210500000Y-91750000D02*
X211750000Y-93000000D01*
X211750000Y-93000000D02*
X213775000Y-93000000D01*
X210794600Y-87122000D02*
X210492030Y-87424570D01*
X213775000Y-93000000D02*
X214100000Y-92675000D01*
X210492030Y-87424570D02*
X210492030Y-87432998D01*
X210492030Y-87432998D02*
X210000000Y-87925028D01*
X210000000Y-87925028D02*
X210000000Y-90000000D01*
X210000000Y-90000000D02*
X210500000Y-90500000D01*
X223777500Y-92250000D02*
X222695983Y-92250000D01*
X215054520Y-92520480D02*
X214900000Y-92675000D01*
X222695983Y-92250000D02*
X222425503Y-92520480D01*
X222425503Y-92520480D02*
X215054520Y-92520480D01*
%TO.N,+3V3*%
X223265500Y-92762000D02*
X222748989Y-92762000D01*
X222748989Y-92762000D02*
X222590989Y-92920000D01*
X222590989Y-92920000D02*
X218147500Y-92920000D01*
X218147500Y-92920000D02*
X217567500Y-93500000D01*
%TO.N,/QSPI-SD1*%
X224453000Y-92074500D02*
X224453000Y-91625027D01*
X224453000Y-91625027D02*
X223688533Y-90860560D01*
X223688533Y-90860560D02*
X221438646Y-90860560D01*
X221438646Y-90860560D02*
X220249707Y-92049499D01*
X220249707Y-92049499D02*
X216299500Y-92049500D01*
X216299500Y-92049500D02*
X214500000Y-90250000D01*
X214500000Y-90250000D02*
X212639717Y-90250000D01*
X212628197Y-90261520D02*
X210913548Y-90261520D01*
X212639717Y-90250000D02*
X212628197Y-90261520D01*
X210913548Y-90261520D02*
X210500000Y-89847972D01*
X210500000Y-89000000D02*
X211108000Y-88392000D01*
X210500000Y-89847972D02*
X210500000Y-89000000D01*
X211108000Y-88392000D02*
X211792000Y-88392000D01*
%TO.N,/QSPI-SD2*%
X224953000Y-92074500D02*
X224953000Y-91329806D01*
X214604600Y-89662000D02*
X211792000Y-89662000D01*
X224953000Y-91329806D02*
X224084234Y-90461040D01*
X221273160Y-90461040D02*
X220084220Y-91649980D01*
X224084234Y-90461040D02*
X221273160Y-90461040D01*
X220084220Y-91649980D02*
X216592580Y-91649980D01*
X216592580Y-91649980D02*
X214604600Y-89662000D01*
%TO.N,/QSPI-SD0*%
X225453000Y-92074500D02*
X225453000Y-91264800D01*
X219662480Y-90261520D02*
X218992000Y-90932000D01*
X225453000Y-91264800D02*
X224249720Y-90061520D01*
X219828197Y-90261520D02*
X219662480Y-90261520D01*
X224249720Y-90061520D02*
X220028197Y-90061520D01*
X220028197Y-90061520D02*
X219828197Y-90261520D01*
D40*
%TO.N,/QSPI-CS*%
X223953000Y-92074500D02*
X223777500Y-92250000D01*
D39*
%TO.N,/QSPI-SD1*%
X214750000Y-89000000D02*
X216750000Y-91000000D01*
X214500000Y-89000000D02*
X214750000Y-89000000D01*
X211792000Y-88392000D02*
X212400000Y-89000000D01*
X212400000Y-89000000D02*
X214500000Y-89000000D01*
%TO.N,/GPIO0*%
X223265500Y-93262000D02*
X223207980Y-93319520D01*
X219365474Y-93319520D02*
X216799994Y-95885000D01*
X223207980Y-93319520D02*
X219365474Y-93319520D01*
X216799994Y-95885000D02*
X208538000Y-95885000D01*
%TO.N,/GPIO1*%
X223265500Y-93762000D02*
X219488000Y-93762000D01*
X216965480Y-96284520D02*
X210492502Y-96284520D01*
X219488000Y-93762000D02*
X216965480Y-96284520D01*
X208352022Y-98425000D02*
X205228000Y-98425000D01*
X210492502Y-96284520D02*
X208352022Y-98425000D01*
%TO.N,GND*%
X224250000Y-87000000D02*
X223772480Y-86522480D01*
X223772480Y-86522480D02*
X219272480Y-86522480D01*
X219272480Y-86522480D02*
X217424000Y-84674000D01*
X217424000Y-84674000D02*
X217424000Y-84537500D01*
%TO.N,Net-(D1-Pad2)*%
X230007000Y-84157000D02*
X230007000Y-83732000D01*
%TO.N,GND*%
X205228000Y-78105000D02*
X203673489Y-79659511D01*
X203673489Y-84173489D02*
X204250000Y-84750000D01*
X203673489Y-79659511D02*
X203673489Y-84173489D01*
X204250000Y-84750000D02*
X209942500Y-84750000D01*
X209942500Y-84750000D02*
X211000000Y-83692500D01*
X212424000Y-77598500D02*
X211917500Y-78105000D01*
X211917500Y-78105000D02*
X205228000Y-78105000D01*
X224385300Y-87135300D02*
X224250000Y-87000000D01*
X225704400Y-87135300D02*
X224385300Y-87135300D01*
X223137000Y-83592000D02*
X223842000Y-83592000D01*
X223842000Y-83592000D02*
X224407000Y-84157000D01*
X213868000Y-86207600D02*
X213842600Y-86182200D01*
X211700000Y-97400000D02*
X215825000Y-97400000D01*
X213682000Y-90932000D02*
X213750000Y-91000000D01*
X211792000Y-90932000D02*
X213682000Y-90932000D01*
X229117500Y-102367500D02*
X230250000Y-103500000D01*
X228725000Y-102367500D02*
X229117500Y-102367500D01*
%TO.N,+3V3*%
X242519200Y-111048800D02*
X242519200Y-112318800D01*
X242519200Y-112318800D02*
X241249200Y-113588800D01*
%TO.N,GND*%
X234992500Y-96675000D02*
X244008418Y-96675000D01*
X247107489Y-93575929D02*
X247107489Y-90142511D01*
X244008418Y-96675000D02*
X247107489Y-93575929D01*
X247107489Y-90142511D02*
X247750000Y-89500000D01*
X247750000Y-89500000D02*
X253218022Y-89500000D01*
X253526511Y-79786511D02*
X251972000Y-78232000D01*
X253218022Y-89500000D02*
X253526511Y-89191511D01*
X253526511Y-89191511D02*
X253526511Y-79786511D01*
X227600000Y-102392500D02*
X228700000Y-102392500D01*
X228700000Y-102392500D02*
X228725000Y-102367500D01*
%TO.N,+3V3*%
X231625000Y-101875000D02*
X232250000Y-102500000D01*
X231072500Y-101875000D02*
X231625000Y-101875000D01*
X224212498Y-92962498D02*
X224500000Y-93250000D01*
X224002520Y-92962498D02*
X224212498Y-92962498D01*
X220622000Y-87122000D02*
X220750000Y-87250000D01*
X218992000Y-87122000D02*
X220622000Y-87122000D01*
X212122500Y-93872500D02*
X212000000Y-93750000D01*
X213750000Y-93872500D02*
X212122500Y-93872500D01*
D41*
X217068400Y-87172800D02*
X215500000Y-85604400D01*
X215500000Y-85604400D02*
X215500000Y-82792800D01*
X215500000Y-82792800D02*
X215235700Y-82528500D01*
D39*
X223762000Y-97262000D02*
X224002520Y-97021480D01*
X224002520Y-97021480D02*
X224002520Y-92962498D01*
X224002520Y-92962498D02*
X223851542Y-92811520D01*
X223851542Y-92811520D02*
X223315020Y-92811520D01*
X223315020Y-92811520D02*
X223265500Y-92762000D01*
X224250000Y-98250000D02*
X224250000Y-97750000D01*
X225000000Y-99000000D02*
X224250000Y-98250000D01*
X227453000Y-99949500D02*
X227453000Y-99500027D01*
X223762000Y-97262000D02*
X223265500Y-97262000D01*
X227453000Y-99500027D02*
X226952973Y-99000000D01*
X226952973Y-99000000D02*
X225000000Y-99000000D01*
X224250000Y-97750000D02*
X223762000Y-97262000D01*
%TO.N,/1.1V*%
X229453000Y-92074500D02*
X229453000Y-93362978D01*
X229453000Y-93362978D02*
X229590022Y-93500000D01*
D40*
%TO.N,+3V3*%
X230250000Y-96856328D02*
X230250000Y-92371500D01*
D39*
%TO.N,/1.1V*%
X229652511Y-93562489D02*
X229652511Y-98347489D01*
X229590022Y-93500000D02*
X229652511Y-93562489D01*
X229500000Y-98500000D02*
X228000000Y-98500000D01*
X229652511Y-98347489D02*
X229500000Y-98500000D01*
X227250000Y-93500000D02*
X229590022Y-93500000D01*
X226953000Y-92074500D02*
X226953000Y-93203000D01*
X226953000Y-93203000D02*
X227250000Y-93500000D01*
X228000000Y-98500000D02*
X227953000Y-98547000D01*
X227953000Y-98547000D02*
X227953000Y-99949500D01*
D40*
%TO.N,+3V3*%
X231881600Y-97256600D02*
X230650272Y-97256600D01*
X230650272Y-97256600D02*
X230250000Y-96856328D01*
X230250000Y-92371500D02*
X229953000Y-92074500D01*
D39*
%TO.N,/LED1*%
X219400000Y-103100000D02*
X219750000Y-102750000D01*
X219400000Y-103750000D02*
X219400000Y-103100000D01*
%TO.N,Net-(Q1-Pad1)*%
X218250000Y-106147500D02*
X219102500Y-106147500D01*
X219102500Y-106147500D02*
X219400000Y-105850000D01*
X219400000Y-105850000D02*
X219400000Y-104945000D01*
%TO.N,Net-(D2-Pad2)*%
X220500000Y-105652500D02*
X219362500Y-106790000D01*
X219362500Y-106790000D02*
X219362500Y-108275000D01*
%TO.N,+3V3*%
X220500000Y-106847500D02*
X221125480Y-106222020D01*
X221125480Y-106222020D02*
X221125480Y-98607980D01*
X221125480Y-98607980D02*
X220275000Y-97757500D01*
X220750000Y-110750000D02*
X221000000Y-111000000D01*
X221000000Y-111000000D02*
X223580800Y-113580800D01*
X220500000Y-106847500D02*
X220500000Y-110500000D01*
X220500000Y-110500000D02*
X221000000Y-111000000D01*
X224221700Y-113580800D02*
X224221700Y-112310800D01*
X224221700Y-112310800D02*
X225491700Y-111040800D01*
%TO.N,/SPI1_MOSI*%
X229301700Y-113580800D02*
X229301700Y-110551700D01*
X229301700Y-110551700D02*
X228598560Y-109848560D01*
X222148560Y-109848560D02*
X221525000Y-109225000D01*
X228598560Y-109848560D02*
X222148560Y-109848560D01*
X221525000Y-109225000D02*
X221525000Y-97925000D01*
X221525000Y-97925000D02*
X221688000Y-97762000D01*
X221688000Y-97762000D02*
X223265500Y-97762000D01*
%TO.N,/SPI1_MISO*%
X230571700Y-111040800D02*
X228979940Y-109449040D01*
X228979940Y-109449040D02*
X222449040Y-109449040D01*
X222449040Y-109449040D02*
X221924521Y-108924521D01*
X221924521Y-108924521D02*
X221924521Y-98810473D01*
X221924521Y-98810473D02*
X222472994Y-98262000D01*
X222472994Y-98262000D02*
X223265500Y-98262000D01*
%TO.N,/SPI1_NSS*%
X231841700Y-113580800D02*
X231841700Y-109916700D01*
X222324040Y-108750000D02*
X222324040Y-98975960D01*
X222538000Y-98762000D02*
X223265500Y-98762000D01*
X231841700Y-109916700D02*
X230974520Y-109049520D01*
X230974520Y-109049520D02*
X222623560Y-109049520D01*
X222623560Y-109049520D02*
X222324040Y-108750000D01*
X222324040Y-98975960D02*
X222538000Y-98762000D01*
%TO.N,+3V3*%
X208372100Y-111040800D02*
X207102100Y-112310800D01*
X207102100Y-112310800D02*
X207102100Y-113580800D01*
X218419200Y-113580800D02*
X216750000Y-115250000D01*
X224221700Y-113580800D02*
X218419200Y-113580800D01*
X216750000Y-115250000D02*
X208771300Y-115250000D01*
X208771300Y-115250000D02*
X207102100Y-113580800D01*
X223580800Y-113580800D02*
X224221700Y-113580800D01*
%TO.N,GND*%
X214325000Y-106312500D02*
X214275960Y-106361540D01*
X214000000Y-112500000D02*
X212371300Y-112500000D01*
X214275960Y-106361540D02*
X214275960Y-110025960D01*
X214275960Y-110025960D02*
X214750000Y-110500000D01*
X214750000Y-110500000D02*
X214750000Y-111750000D01*
X214750000Y-111750000D02*
X214000000Y-112500000D01*
X212371300Y-112500000D02*
X210912100Y-111040800D01*
%TO.N,/SCL0*%
X218000000Y-113000000D02*
X218000000Y-110250000D01*
X216250000Y-114750000D02*
X218000000Y-113000000D01*
X212182100Y-113580800D02*
X213351300Y-114750000D01*
X213351300Y-114750000D02*
X216250000Y-114750000D01*
X218000000Y-110250000D02*
X217285717Y-109535717D01*
X217285717Y-109535717D02*
X215250000Y-109535717D01*
X223265500Y-96762000D02*
X219838000Y-96762000D01*
X219838000Y-96762000D02*
X219575000Y-97025000D01*
X219575000Y-97025000D02*
X219575000Y-101150000D01*
X219575000Y-101150000D02*
X215625480Y-105099520D01*
X215625480Y-105099520D02*
X215625480Y-106400000D01*
X215625480Y-106400000D02*
X214675480Y-107350000D01*
X214675480Y-107350000D02*
X214675480Y-108961197D01*
X214675480Y-108961197D02*
X215250000Y-109535717D01*
X213237866Y-113580800D02*
X212182100Y-113580800D01*
%TO.N,+3V3*%
X232475000Y-91767500D02*
X232135000Y-91767500D01*
X232135000Y-91767500D02*
X231140500Y-92762000D01*
%TO.N,/GPIO4*%
X223265500Y-95262000D02*
X219642982Y-95262000D01*
X219642982Y-95262000D02*
X218376440Y-96528542D01*
X218376440Y-96528542D02*
X218376440Y-100534514D01*
X218376440Y-100534514D02*
X217945954Y-100965000D01*
X217945954Y-100965000D02*
X208538000Y-100965000D01*
%TO.N,/GPIO5*%
X223265500Y-95762000D02*
X219707988Y-95762000D01*
X219707988Y-95762000D02*
X218775961Y-96694027D01*
X218775961Y-96694027D02*
X218775960Y-100700000D01*
X215970960Y-103505000D02*
X205228000Y-103505000D01*
X218775960Y-100700000D02*
X215970960Y-103505000D01*
%TO.N,/SDA0*%
X213452100Y-111040800D02*
X213452100Y-105812183D01*
X213452100Y-105812183D02*
X214839283Y-104425000D01*
X214839283Y-104425000D02*
X215715006Y-104425000D01*
X215715006Y-104425000D02*
X219175480Y-100964526D01*
X219175480Y-100964526D02*
X219175481Y-96859513D01*
X219175481Y-96859513D02*
X219772994Y-96262000D01*
X219772994Y-96262000D02*
X223265500Y-96262000D01*
%TO.N,GND*%
X227634800Y-89018300D02*
X226517200Y-89018300D01*
%TO.N,/dd+*%
X227825000Y-86465141D02*
X227825000Y-86277500D01*
%TO.N,/d-*%
X228953000Y-90222000D02*
X229025000Y-90150000D01*
X228953000Y-90678000D02*
X228953000Y-90222000D01*
X228953000Y-92074500D02*
X228953000Y-90678000D01*
%TO.N,unconnected-(J6-Pad4)*%
X209388000Y-86575000D02*
X208538000Y-85725000D01*
X209400000Y-86575000D02*
X209388000Y-86575000D01*
%TO.N,/USB_BOOT*%
X215850000Y-95250000D02*
X215850000Y-94820000D01*
X215850000Y-94820000D02*
X214900000Y-93870000D01*
X215850000Y-95250000D02*
X211700000Y-95250000D01*
%TO.N,/QSPI-CS*%
X214100000Y-92675000D02*
X213752500Y-92675000D01*
X214900000Y-92675000D02*
X214100000Y-92675000D01*
X213752500Y-92675000D02*
X213750000Y-92677500D01*
%TO.N,Net-(R11-Pad2)*%
X229877500Y-101875000D02*
X229453000Y-101450500D01*
X229453000Y-101450500D02*
X229453000Y-99949500D01*
%TO.N,/1.1V*%
X228585288Y-101232500D02*
X227951394Y-100598606D01*
X228725000Y-101232500D02*
X228585288Y-101232500D01*
X227951394Y-100598606D02*
X227951394Y-99951106D01*
X227951394Y-99951106D02*
X227953000Y-99949500D01*
%TO.N,+3V3*%
X227453000Y-99949500D02*
X227453000Y-100960500D01*
X227453000Y-100960500D02*
X227775000Y-101282500D01*
%TO.N,Net-(C2-Pad1)*%
X226953000Y-99949500D02*
X226953000Y-105228000D01*
X226953000Y-105228000D02*
X227700000Y-105975000D01*
X227700000Y-105975000D02*
X230955000Y-105975000D01*
%TO.N,Net-(Q1-Pad1)*%
X219400000Y-104575000D02*
X219400000Y-104250000D01*
%TO.N,/LED1*%
X223953000Y-100747000D02*
X223725000Y-100975000D01*
X223953000Y-99949500D02*
X223953000Y-100747000D01*
%TO.N,/SPI0_MOSI*%
X246329200Y-113588800D02*
X247490400Y-114750000D01*
X251225000Y-109050000D02*
X249200000Y-107025000D01*
X247490400Y-114750000D02*
X251225000Y-114750000D01*
X224321640Y-104960560D02*
X225953000Y-103329199D01*
X251225000Y-114750000D02*
X251225000Y-109050000D01*
X249200000Y-107025000D02*
X224321640Y-107025000D01*
X224321640Y-107025000D02*
X224321640Y-104960560D01*
X225953000Y-103329199D02*
X225953000Y-99949500D01*
%TO.N,Net-(C1-Pad1)*%
X226453000Y-99949500D02*
X226453000Y-103128000D01*
X226453000Y-103128000D02*
X226453000Y-105597000D01*
X226453000Y-102362000D02*
X226453000Y-103128000D01*
X226453000Y-105597000D02*
X226075000Y-105975000D01*
%TO.N,/SPI0_SCK*%
X223983597Y-104733597D02*
X223922120Y-104795074D01*
X223922120Y-104795074D02*
X223922120Y-107288960D01*
X223922120Y-107288960D02*
X224058160Y-107425000D01*
X224058160Y-107425000D02*
X246515400Y-107425000D01*
X246515400Y-107425000D02*
X250139200Y-111048800D01*
X223983597Y-104733597D02*
X223922120Y-104795073D01*
X225118486Y-103598707D02*
X223983597Y-104733597D01*
X223922120Y-104795073D02*
X223922120Y-104800000D01*
X225352520Y-101172480D02*
X225352520Y-103350000D01*
X225425000Y-101100000D02*
X225352520Y-101172480D01*
X225453000Y-99949500D02*
X225453000Y-101072000D01*
X225453000Y-101072000D02*
X225425000Y-101100000D01*
X225352519Y-103364674D02*
X225118486Y-103598707D01*
X225352520Y-103350000D02*
X225352519Y-103364674D01*
%TO.N,/SPI0_NSS*%
X224953000Y-99949500D02*
X224953000Y-103199187D01*
X224953000Y-103199187D02*
X223522600Y-104629587D01*
X223522600Y-104629587D02*
X223522600Y-107825000D01*
X223522600Y-107825000D02*
X245859634Y-107825000D01*
X245859634Y-107825000D02*
X248869200Y-110834566D01*
X248869200Y-110834566D02*
X248869200Y-113588800D01*
%TO.N,/SPI0_MISO*%
X224453000Y-99949500D02*
X224453000Y-103134181D01*
X224453000Y-103134181D02*
X223123080Y-104464101D01*
X223123080Y-104464101D02*
X223123080Y-108033074D01*
X223123080Y-108033074D02*
X223340486Y-108250480D01*
X223340486Y-108250480D02*
X244800880Y-108250480D01*
X244800880Y-108250480D02*
X247599200Y-111048800D01*
%TO.N,/SPI1_SCK*%
X233111700Y-111040800D02*
X233111700Y-109980140D01*
X223175000Y-108650000D02*
X222723560Y-108198560D01*
X233111700Y-109980140D02*
X231781560Y-108650000D01*
X231781560Y-108650000D02*
X223175000Y-108650000D01*
X222723560Y-108198560D02*
X222723560Y-99803940D01*
X222723560Y-99803940D02*
X223265500Y-99262000D01*
%TO.N,/SPI0_SCK*%
X225425000Y-99977500D02*
X225453000Y-99949500D01*
%TO.N,+3V3*%
X223265500Y-97262000D02*
X220770500Y-97262000D01*
X220770500Y-97262000D02*
X220275000Y-97757500D01*
%TO.N,/UART1_RX*%
X210210400Y-107492800D02*
X210210400Y-106442800D01*
%TO.N,Net-(Q1-Pad1)*%
X218250000Y-106147500D02*
X216390000Y-106147500D01*
X216390000Y-106147500D02*
X216225000Y-106312500D01*
%TO.N,Net-(D2-Pad1)*%
X217787500Y-108275000D02*
X215362500Y-108275000D01*
X215362500Y-108275000D02*
X215275000Y-108187500D01*
%TO.N,Net-(D2-Pad2)*%
X219635000Y-108347500D02*
X219562500Y-108275000D01*
%TO.N,+3V3*%
X231140000Y-90508900D02*
X229920800Y-90508900D01*
%TO.N,/d+*%
X228453000Y-92074500D02*
X228453000Y-88789265D01*
X228453000Y-88789265D02*
X227825000Y-88161265D01*
X227825000Y-88161265D02*
X227825000Y-87472500D01*
D40*
%TO.N,/1.1V*%
X226953000Y-92074500D02*
X226953000Y-91524666D01*
X226953000Y-91524666D02*
X226850000Y-91421666D01*
X226850000Y-91421666D02*
X226850000Y-90486100D01*
X226850000Y-90486100D02*
X226517200Y-90153300D01*
D39*
%TO.N,/QSPI-CLK*%
X225953000Y-92074500D02*
X225953000Y-91199794D01*
X225953000Y-91199794D02*
X224415206Y-89662000D01*
X224415206Y-89662000D02*
X218992000Y-89662000D01*
%TO.N,/QSPI-SD3*%
X226453000Y-92074500D02*
X226453000Y-91625027D01*
X226453000Y-91625027D02*
X226352520Y-91524547D01*
X226352520Y-91524547D02*
X226352519Y-90998907D01*
X224840800Y-89484200D02*
X223748600Y-88392000D01*
X226352519Y-90998907D02*
X224840800Y-89487188D01*
X224840800Y-89487188D02*
X224840800Y-89484200D01*
X223748600Y-88392000D02*
X218992000Y-88392000D01*
%TO.N,/GPIO21*%
X248662000Y-90932000D02*
X248662000Y-93197994D01*
X246525481Y-95334513D02*
X246525480Y-96884514D01*
X248662000Y-93197994D02*
X246525481Y-95334513D01*
X246525480Y-96884514D02*
X245559994Y-97850000D01*
X245559994Y-97850000D02*
X236026000Y-97850000D01*
X236026000Y-97850000D02*
X236013480Y-97837480D01*
X236013480Y-97837480D02*
X231175000Y-97837480D01*
%TO.N,/GPIO22*%
X251972000Y-88392000D02*
X248113406Y-88392000D01*
X248113406Y-88392000D02*
X246068320Y-90437086D01*
X246068320Y-90437086D02*
X246068319Y-94050093D01*
X246068319Y-94050093D02*
X244144852Y-95973560D01*
X244144852Y-95973560D02*
X233169020Y-95973560D01*
%TO.N,/GPIO23*%
X231140500Y-96262000D02*
X231589973Y-96262000D01*
X245668800Y-93884606D02*
X245668800Y-88845200D01*
X231589973Y-96262000D02*
X231690453Y-96161520D01*
X232380698Y-96161520D02*
X232993178Y-95549040D01*
X231690453Y-96161520D02*
X232380698Y-96161520D01*
X232993178Y-95549040D02*
X244004366Y-95549040D01*
X244004366Y-95549040D02*
X245668800Y-93884606D01*
X245668800Y-88845200D02*
X248662000Y-85852000D01*
%TO.N,+3V3*%
X227634800Y-90153300D02*
X227634800Y-92023200D01*
X227634800Y-92023200D02*
X227686100Y-92074500D01*
%TO.N,/dd-*%
X226800000Y-86277500D02*
X226800000Y-85923400D01*
X226800000Y-85923400D02*
X227231999Y-85491401D01*
%TO.N,/dd+*%
X227825000Y-86277500D02*
X227825000Y-85634400D01*
X227825000Y-85634400D02*
X227682001Y-85491401D01*
%TO.N,/GPIO20*%
X251972000Y-93472000D02*
X248953000Y-93472000D01*
X248953000Y-93472000D02*
X246925000Y-95500000D01*
X246925000Y-97050000D02*
X245713000Y-98262000D01*
X246925000Y-95500000D02*
X246925000Y-97050000D01*
X245713000Y-98262000D02*
X231140500Y-98262000D01*
D40*
%TO.N,+3V3*%
X232858500Y-97256600D02*
X231881600Y-97256600D01*
X231881600Y-97256600D02*
X231145900Y-97256600D01*
%TO.N,GND*%
X231140000Y-89373900D02*
X232045700Y-89373900D01*
D39*
X250139200Y-78232000D02*
X250037600Y-78333600D01*
D42*
X218755000Y-79690000D02*
X218948000Y-79883000D01*
X211792000Y-90932000D02*
X211792000Y-91687200D01*
D39*
X251972000Y-78232000D02*
X250139200Y-78232000D01*
D42*
X205228000Y-78105000D02*
X207772000Y-78105000D01*
D40*
X232045700Y-89373900D02*
X232054400Y-89382600D01*
D42*
X227203000Y-96012000D02*
X227888800Y-96012000D01*
X216949000Y-79690000D02*
X218755000Y-79690000D01*
X213842600Y-84603500D02*
X213842600Y-86182200D01*
X227888800Y-96012000D02*
X228142800Y-96266000D01*
X211785200Y-91694000D02*
X211792000Y-91687200D01*
D40*
%TO.N,+3V3*%
X230200700Y-92074500D02*
X229953000Y-92074500D01*
D43*
X214249000Y-82122100D02*
X213842600Y-82528500D01*
D40*
X227686100Y-92074500D02*
X227953000Y-92074500D01*
X223265500Y-92762000D02*
X222909200Y-92762000D01*
D43*
X214249000Y-80640000D02*
X214249000Y-82122100D01*
D40*
X230835700Y-92074500D02*
X230454700Y-92074500D01*
X229953000Y-92074500D02*
X229953000Y-90541100D01*
X223265500Y-92762000D02*
X223265500Y-92761300D01*
D43*
X212349000Y-80640000D02*
X212344000Y-80645000D01*
D44*
X208538000Y-80645000D02*
X210743800Y-80645000D01*
D40*
X231140500Y-92379300D02*
X230835700Y-92074500D01*
X227453000Y-92074500D02*
X227686100Y-92074500D01*
D43*
X214249000Y-80640000D02*
X212349000Y-80640000D01*
D40*
X231140000Y-91770200D02*
X230835700Y-92074500D01*
D43*
X215235700Y-82528500D02*
X215239600Y-82524600D01*
X213842600Y-82528500D02*
X215235700Y-82528500D01*
D40*
X233440100Y-96675000D02*
X232858500Y-97256600D01*
X231140500Y-92762000D02*
X231140500Y-92379300D01*
X232553700Y-91931300D02*
X232562400Y-91922600D01*
D42*
X217119200Y-87122000D02*
X217068400Y-87172800D01*
D40*
X231140000Y-90508900D02*
X231021700Y-90508900D01*
X230453000Y-92074500D02*
X230200700Y-92074500D01*
X231140000Y-90508900D02*
X231140000Y-91770200D01*
D43*
X213842600Y-82528500D02*
X213823780Y-82509680D01*
D42*
X218992000Y-87122000D02*
X217119200Y-87122000D01*
D40*
X231145900Y-97256600D02*
X231140500Y-97262000D01*
D43*
X213823780Y-82509680D02*
X212340730Y-82509680D01*
D44*
X210743800Y-80645000D02*
X212344000Y-80645000D01*
D40*
%TO.N,GND*%
X232045700Y-90508900D02*
X232054400Y-90500200D01*
%TO.N,+3V3*%
X233857500Y-96675000D02*
X233440100Y-96675000D01*
X229953000Y-90541100D02*
X229920800Y-90508900D01*
%TO.N,/1.1V*%
X229453000Y-91556400D02*
X229453000Y-92074500D01*
D44*
%TO.N,+5V*%
X217424000Y-82462500D02*
X217424000Y-81115000D01*
D42*
X205228000Y-81146631D02*
X206824111Y-79550520D01*
X215894978Y-80640000D02*
X216949000Y-80640000D01*
D40*
X216344978Y-78740000D02*
X216046289Y-79038689D01*
D42*
X215719489Y-79349600D02*
X215719489Y-78915489D01*
D44*
X220218000Y-81373000D02*
X220218000Y-79095600D01*
D40*
X216949000Y-78740000D02*
X216344978Y-78740000D01*
D44*
X220218000Y-79095600D02*
X220370400Y-78943200D01*
D42*
X215518569Y-79550520D02*
X215719489Y-79349600D01*
D44*
X220218000Y-81373000D02*
X217682000Y-81373000D01*
D42*
X215518569Y-79550520D02*
X215518569Y-80263591D01*
X215719489Y-78915489D02*
X215894978Y-78740000D01*
D40*
X215919000Y-80640000D02*
X215844489Y-80565489D01*
D42*
X215518569Y-80263591D02*
X215894978Y-80640000D01*
D44*
X217424000Y-81115000D02*
X216949000Y-80640000D01*
D40*
X216949000Y-80640000D02*
X215919000Y-80640000D01*
D42*
X205228000Y-83185000D02*
X205228000Y-81146631D01*
D40*
X215995489Y-79038689D02*
X216046289Y-79038689D01*
D42*
X215894978Y-78740000D02*
X216949000Y-78740000D01*
D40*
X215844489Y-80565489D02*
X215844489Y-79189689D01*
D44*
X217682000Y-81373000D02*
X217424000Y-81115000D01*
D40*
X215844489Y-79189689D02*
X215995489Y-79038689D01*
D42*
X206824111Y-79550520D02*
X215518569Y-79550520D01*
%TO.N,Net-(C19-Pad2)*%
X214249000Y-78740000D02*
X212430500Y-78740000D01*
X212430500Y-78740000D02*
X212424000Y-78733500D01*
%TO.N,Net-(D1-Pad2)*%
X225044000Y-85064600D02*
X225044000Y-84759800D01*
X224993200Y-85369400D02*
X225044000Y-85318600D01*
X220980000Y-85623400D02*
X224739200Y-85623400D01*
X225044000Y-85318600D02*
X225044000Y-85064600D01*
X220218000Y-84861400D02*
X220980000Y-85623400D01*
X220218000Y-83473000D02*
X220218000Y-84861400D01*
X224739200Y-85623400D02*
X224993200Y-85369400D01*
D39*
%TO.N,/SPI1_MISO*%
X223280300Y-98247200D02*
X223265500Y-98262000D01*
%TO.N,unconnected-(J6-Pad4)*%
X210261200Y-85750400D02*
X208563400Y-85750400D01*
X208563400Y-85750400D02*
X208538000Y-85725000D01*
%TO.N,unconnected-(J6-Pad5)*%
X209067400Y-88265000D02*
X209092800Y-88239600D01*
X205228000Y-88265000D02*
X209067400Y-88265000D01*
%TO.N,unconnected-(J6-Pad6)*%
X208538000Y-91037600D02*
X208538000Y-90805000D01*
%TO.N,/ADC0*%
X231120500Y-94742000D02*
X231140500Y-94762000D01*
%TO.N,/GPIO1*%
X205384400Y-98581400D02*
X205228000Y-98425000D01*
%TO.N,/ADC2*%
X231140500Y-93762000D02*
X231148420Y-93769920D01*
%TO.N,/GPIO5*%
X206578200Y-103505000D02*
X205228000Y-103505000D01*
%TO.N,/ADC3*%
X231140500Y-93262000D02*
X231590400Y-93262000D01*
%TO.N,/SDA0*%
X223261500Y-96266000D02*
X223265500Y-96262000D01*
X221996000Y-96266000D02*
X223261500Y-96266000D01*
%TO.N,/GPIO16*%
X242062000Y-103632000D02*
X251972000Y-103632000D01*
X229953000Y-100819400D02*
X230073200Y-100939600D01*
X229953000Y-99949500D02*
X229953000Y-100819400D01*
X230073200Y-100939600D02*
X239369600Y-100939600D01*
X239369600Y-100939600D02*
X242062000Y-103632000D01*
%TO.N,/GPIO17*%
X240741200Y-101092000D02*
X239598700Y-99949500D01*
X239598700Y-99949500D02*
X230453000Y-99949500D01*
X248662000Y-101092000D02*
X240741200Y-101092000D01*
%TO.N,/GPIO18*%
X251262000Y-99262000D02*
X251972000Y-98552000D01*
X231140500Y-99262000D02*
X251262000Y-99262000D01*
%TO.N,/GPIO19*%
X231140500Y-98762000D02*
X247440000Y-98762000D01*
X248662000Y-96012000D02*
X248662000Y-97540000D01*
X247440000Y-98762000D02*
X248662000Y-97540000D01*
D40*
%TO.N,/GPIO22*%
X232556540Y-96586040D02*
X233169020Y-95973560D01*
X232307457Y-96762000D02*
X232483417Y-96586040D01*
D39*
X231128500Y-96774000D02*
X231140500Y-96762000D01*
D40*
X232483417Y-96586040D02*
X232556540Y-96586040D01*
X231140500Y-96762000D02*
X232307457Y-96762000D01*
D39*
%TO.N,/GPIO24*%
X243838880Y-95149520D02*
X232827692Y-95149520D01*
X248259600Y-83312000D02*
X245160800Y-86410800D01*
X245160800Y-93827600D02*
X243838880Y-95149520D01*
X232827692Y-95149520D02*
X232215212Y-95762000D01*
X245160800Y-86410800D02*
X245160800Y-93827600D01*
X232215212Y-95762000D02*
X231140500Y-95762000D01*
X251972000Y-83312000D02*
X248259600Y-83312000D01*
%TO.N,/GPIO25*%
X244761280Y-93617520D02*
X243628800Y-94750000D01*
X244761280Y-84672720D02*
X244761280Y-93617520D01*
X232662206Y-94750000D02*
X232150206Y-95262000D01*
X248662000Y-80772000D02*
X244761280Y-84672720D01*
X232150206Y-95262000D02*
X231140500Y-95262000D01*
X243628800Y-94750000D02*
X232662206Y-94750000D01*
D40*
%TO.N,Net-(P1-PadB5)*%
X225704400Y-85940300D02*
X225704400Y-84159600D01*
X225704400Y-84159600D02*
X225707000Y-84157000D01*
D39*
%TO.N,/d-*%
X228953000Y-92074500D02*
X228928001Y-92099499D01*
%TO.N,/d+*%
X228453000Y-92074500D02*
X228477999Y-92099499D01*
%TO.N,/dd+*%
X227707000Y-84157000D02*
X227707000Y-85019501D01*
X227682000Y-85044501D02*
X227682001Y-85491401D01*
X227707000Y-85019501D02*
X227682000Y-85044501D01*
X227707000Y-84157000D02*
X227707000Y-84582000D01*
X227707000Y-84582000D02*
X227682000Y-84607000D01*
%TO.N,/dd-*%
X227207000Y-84582000D02*
X227232000Y-84607000D01*
X227207000Y-85019501D02*
X227232000Y-85044501D01*
X227207000Y-84157000D02*
X227207000Y-84582000D01*
X227232000Y-85044501D02*
X227231999Y-85491401D01*
X227207000Y-84157000D02*
X227207000Y-85019501D01*
%TD*%
%TA.AperFunction,Conductor*%
%TO.N,GND*%
G36*
X239133482Y-101568102D02*
G01*
X239154456Y-101585005D01*
X241597685Y-104028234D01*
X241608552Y-104040625D01*
X241628013Y-104065987D01*
X241634563Y-104071013D01*
X241659921Y-104090471D01*
X241659937Y-104090485D01*
X241692298Y-104115316D01*
X241755124Y-104163524D01*
X241903149Y-104224838D01*
X242062000Y-104245751D01*
X242093699Y-104241578D01*
X242110144Y-104240500D01*
X250127246Y-104240500D01*
X250195367Y-104260502D01*
X250241860Y-104314158D01*
X250245228Y-104322270D01*
X250254687Y-104347500D01*
X250266385Y-104378705D01*
X250353739Y-104495261D01*
X250470295Y-104582615D01*
X250606684Y-104633745D01*
X250668866Y-104640500D01*
X253275134Y-104640500D01*
X253337316Y-104633745D01*
X253339376Y-104632973D01*
X253407751Y-104636541D01*
X253465395Y-104677985D01*
X253491483Y-104744016D01*
X253492000Y-104755423D01*
X253492000Y-118440999D01*
X253471998Y-118509120D01*
X253418342Y-118555613D01*
X253348068Y-118565717D01*
X253283488Y-118536223D01*
X253266356Y-118518042D01*
X253264462Y-118515207D01*
X253062774Y-118285226D01*
X253050563Y-118274517D01*
X252835893Y-118086256D01*
X252835887Y-118086252D01*
X252832793Y-118083538D01*
X252829363Y-118081246D01*
X252829362Y-118081245D01*
X252581889Y-117915889D01*
X252581887Y-117915888D01*
X252578454Y-117913594D01*
X252529947Y-117889673D01*
X252307812Y-117780127D01*
X252307804Y-117780124D01*
X252304108Y-117778301D01*
X252280541Y-117770301D01*
X252018363Y-117681304D01*
X252018359Y-117681303D01*
X252014450Y-117679976D01*
X252010406Y-117679172D01*
X252010400Y-117679170D01*
X251718475Y-117621102D01*
X251718469Y-117621101D01*
X251714436Y-117620299D01*
X251710331Y-117620030D01*
X251710324Y-117620029D01*
X251413319Y-117600563D01*
X251409200Y-117600293D01*
X251405081Y-117600563D01*
X251108076Y-117620029D01*
X251108069Y-117620030D01*
X251103964Y-117620299D01*
X251099931Y-117621101D01*
X251099925Y-117621102D01*
X250808000Y-117679170D01*
X250807994Y-117679172D01*
X250803950Y-117679976D01*
X250800041Y-117681303D01*
X250800037Y-117681304D01*
X250537859Y-117770301D01*
X250514292Y-117778301D01*
X250510596Y-117780124D01*
X250510588Y-117780127D01*
X250290016Y-117888903D01*
X250239947Y-117913594D01*
X249985607Y-118083538D01*
X249982513Y-118086252D01*
X249982507Y-118086256D01*
X249767837Y-118274517D01*
X249755626Y-118285226D01*
X249752917Y-118288315D01*
X249556656Y-118512107D01*
X249556652Y-118512113D01*
X249553938Y-118515207D01*
X249430285Y-118700267D01*
X249391635Y-118758112D01*
X249383994Y-118769547D01*
X249382168Y-118773250D01*
X249250527Y-119040188D01*
X249250524Y-119040196D01*
X249248701Y-119043892D01*
X249247372Y-119047806D01*
X249247372Y-119047807D01*
X249153092Y-119325550D01*
X249150376Y-119333550D01*
X249149572Y-119337594D01*
X249149570Y-119337600D01*
X249093094Y-119621525D01*
X249090699Y-119633564D01*
X249070693Y-119938800D01*
X249070963Y-119942919D01*
X249090175Y-120236036D01*
X249090699Y-120244036D01*
X249091501Y-120248069D01*
X249091502Y-120248075D01*
X249149563Y-120539963D01*
X249150376Y-120544050D01*
X249248701Y-120833708D01*
X249250524Y-120837404D01*
X249250527Y-120837412D01*
X249326400Y-120991265D01*
X249383994Y-121108053D01*
X249553938Y-121362393D01*
X249556652Y-121365487D01*
X249556656Y-121365493D01*
X249745901Y-121581285D01*
X249755626Y-121592374D01*
X249758715Y-121595083D01*
X249982507Y-121791344D01*
X249982513Y-121791348D01*
X249985607Y-121794062D01*
X249989033Y-121796351D01*
X249989038Y-121796355D01*
X250224538Y-121953711D01*
X250239946Y-121964006D01*
X250243649Y-121965832D01*
X250510588Y-122097473D01*
X250510596Y-122097476D01*
X250514292Y-122099299D01*
X250518206Y-122100628D01*
X250518207Y-122100628D01*
X250800037Y-122196296D01*
X250800041Y-122196297D01*
X250803950Y-122197624D01*
X250807994Y-122198428D01*
X250808000Y-122198430D01*
X251099925Y-122256498D01*
X251099931Y-122256499D01*
X251103964Y-122257301D01*
X251108069Y-122257570D01*
X251108076Y-122257571D01*
X251405081Y-122277037D01*
X251409200Y-122277307D01*
X251413319Y-122277037D01*
X251710324Y-122257571D01*
X251710331Y-122257570D01*
X251714436Y-122257301D01*
X251718469Y-122256499D01*
X251718475Y-122256498D01*
X252010400Y-122198430D01*
X252010406Y-122198428D01*
X252014450Y-122197624D01*
X252018359Y-122196297D01*
X252018363Y-122196296D01*
X252300193Y-122100628D01*
X252300194Y-122100628D01*
X252304108Y-122099299D01*
X252307804Y-122097476D01*
X252307812Y-122097473D01*
X252574751Y-121965832D01*
X252578454Y-121964006D01*
X252593862Y-121953711D01*
X252829362Y-121796355D01*
X252829367Y-121796351D01*
X252832793Y-121794062D01*
X252835887Y-121791348D01*
X252835893Y-121791344D01*
X253059685Y-121595083D01*
X253062774Y-121592374D01*
X253264462Y-121362393D01*
X253266218Y-121359765D01*
X253323374Y-121318030D01*
X253394245Y-121313808D01*
X253456148Y-121348571D01*
X253489430Y-121411283D01*
X253492000Y-121436601D01*
X253492000Y-126366000D01*
X253471998Y-126434121D01*
X253418342Y-126480614D01*
X253366000Y-126492000D01*
X203876000Y-126492000D01*
X203807879Y-126471998D01*
X203761386Y-126418342D01*
X203750000Y-126366000D01*
X203750000Y-121429513D01*
X203770002Y-121361392D01*
X203823658Y-121314899D01*
X203893932Y-121304795D01*
X203958512Y-121334289D01*
X203975334Y-121352143D01*
X203976838Y-121354393D01*
X204178526Y-121584374D01*
X204181615Y-121587083D01*
X204405407Y-121783344D01*
X204405413Y-121783348D01*
X204408507Y-121786062D01*
X204411933Y-121788351D01*
X204411938Y-121788355D01*
X204659411Y-121953711D01*
X204662846Y-121956006D01*
X204682771Y-121965832D01*
X204933488Y-122089473D01*
X204933496Y-122089476D01*
X204937192Y-122091299D01*
X204941106Y-122092628D01*
X204941107Y-122092628D01*
X205222937Y-122188296D01*
X205222941Y-122188297D01*
X205226850Y-122189624D01*
X205230894Y-122190428D01*
X205230900Y-122190430D01*
X205522825Y-122248498D01*
X205522831Y-122248499D01*
X205526864Y-122249301D01*
X205530969Y-122249570D01*
X205530976Y-122249571D01*
X205827981Y-122269037D01*
X205832100Y-122269307D01*
X205836219Y-122269037D01*
X206133224Y-122249571D01*
X206133231Y-122249570D01*
X206137336Y-122249301D01*
X206141369Y-122248499D01*
X206141375Y-122248498D01*
X206433300Y-122190430D01*
X206433306Y-122190428D01*
X206437350Y-122189624D01*
X206441259Y-122188297D01*
X206441263Y-122188296D01*
X206723093Y-122092628D01*
X206723094Y-122092628D01*
X206727008Y-122091299D01*
X206730704Y-122089476D01*
X206730712Y-122089473D01*
X206981429Y-121965832D01*
X207001354Y-121956006D01*
X207004789Y-121953711D01*
X207252262Y-121788355D01*
X207252267Y-121788351D01*
X207255693Y-121786062D01*
X207258787Y-121783348D01*
X207258793Y-121783344D01*
X207482585Y-121587083D01*
X207485674Y-121584374D01*
X207488383Y-121581285D01*
X207684644Y-121357493D01*
X207684648Y-121357487D01*
X207687362Y-121354393D01*
X207811015Y-121169333D01*
X207855011Y-121103488D01*
X207855012Y-121103486D01*
X207857306Y-121100053D01*
X207910955Y-120991265D01*
X207990773Y-120829412D01*
X207990776Y-120829404D01*
X207992599Y-120825708D01*
X208086880Y-120547963D01*
X208089596Y-120539963D01*
X208089597Y-120539959D01*
X208090924Y-120536050D01*
X208091730Y-120532000D01*
X208149798Y-120240075D01*
X208149799Y-120240069D01*
X208150601Y-120236036D01*
X208170607Y-119930800D01*
X214923593Y-119930800D01*
X214943599Y-120236036D01*
X214944401Y-120240069D01*
X214944402Y-120240075D01*
X215002470Y-120532000D01*
X215003276Y-120536050D01*
X215004603Y-120539959D01*
X215004604Y-120539963D01*
X215007320Y-120547963D01*
X215101601Y-120825708D01*
X215103424Y-120829404D01*
X215103427Y-120829412D01*
X215183245Y-120991265D01*
X215236894Y-121100053D01*
X215239188Y-121103486D01*
X215239189Y-121103488D01*
X215283185Y-121169333D01*
X215406838Y-121354393D01*
X215409552Y-121357487D01*
X215409556Y-121357493D01*
X215605817Y-121581285D01*
X215608526Y-121584374D01*
X215611615Y-121587083D01*
X215835407Y-121783344D01*
X215835413Y-121783348D01*
X215838507Y-121786062D01*
X215841933Y-121788351D01*
X215841938Y-121788355D01*
X216089411Y-121953711D01*
X216092846Y-121956006D01*
X216112771Y-121965832D01*
X216363488Y-122089473D01*
X216363496Y-122089476D01*
X216367192Y-122091299D01*
X216371106Y-122092628D01*
X216371107Y-122092628D01*
X216652937Y-122188296D01*
X216652941Y-122188297D01*
X216656850Y-122189624D01*
X216660894Y-122190428D01*
X216660900Y-122190430D01*
X216952825Y-122248498D01*
X216952831Y-122248499D01*
X216956864Y-122249301D01*
X216960969Y-122249570D01*
X216960976Y-122249571D01*
X217257981Y-122269037D01*
X217262100Y-122269307D01*
X217266219Y-122269037D01*
X217563224Y-122249571D01*
X217563231Y-122249570D01*
X217567336Y-122249301D01*
X217571369Y-122248499D01*
X217571375Y-122248498D01*
X217863300Y-122190430D01*
X217863306Y-122190428D01*
X217867350Y-122189624D01*
X217871259Y-122188297D01*
X217871263Y-122188296D01*
X218153093Y-122092628D01*
X218153094Y-122092628D01*
X218157008Y-122091299D01*
X218160704Y-122089476D01*
X218160712Y-122089473D01*
X218411429Y-121965832D01*
X218431354Y-121956006D01*
X218434789Y-121953711D01*
X218682262Y-121788355D01*
X218682267Y-121788351D01*
X218685693Y-121786062D01*
X218688787Y-121783348D01*
X218688793Y-121783344D01*
X218912585Y-121587083D01*
X218915674Y-121584374D01*
X218918383Y-121581285D01*
X219114644Y-121357493D01*
X219114648Y-121357487D01*
X219117362Y-121354393D01*
X219241015Y-121169333D01*
X219285011Y-121103488D01*
X219285012Y-121103486D01*
X219287306Y-121100053D01*
X219340955Y-120991265D01*
X219420773Y-120829412D01*
X219420776Y-120829404D01*
X219422599Y-120825708D01*
X219516880Y-120547963D01*
X219519596Y-120539963D01*
X219519597Y-120539959D01*
X219520924Y-120536050D01*
X219521730Y-120532000D01*
X219579798Y-120240075D01*
X219579799Y-120240069D01*
X219580601Y-120236036D01*
X219600607Y-119930800D01*
X220613193Y-119930800D01*
X220633199Y-120236036D01*
X220634001Y-120240069D01*
X220634002Y-120240075D01*
X220692070Y-120532000D01*
X220692876Y-120536050D01*
X220694203Y-120539959D01*
X220694204Y-120539963D01*
X220696920Y-120547963D01*
X220791201Y-120825708D01*
X220793024Y-120829404D01*
X220793027Y-120829412D01*
X220872845Y-120991265D01*
X220926494Y-121100053D01*
X220928788Y-121103486D01*
X220928789Y-121103488D01*
X220972785Y-121169333D01*
X221096438Y-121354393D01*
X221099152Y-121357487D01*
X221099156Y-121357493D01*
X221295417Y-121581285D01*
X221298126Y-121584374D01*
X221301215Y-121587083D01*
X221525007Y-121783344D01*
X221525013Y-121783348D01*
X221528107Y-121786062D01*
X221531533Y-121788351D01*
X221531538Y-121788355D01*
X221779011Y-121953711D01*
X221782446Y-121956006D01*
X221802371Y-121965832D01*
X222053088Y-122089473D01*
X222053096Y-122089476D01*
X222056792Y-122091299D01*
X222060706Y-122092628D01*
X222060707Y-122092628D01*
X222342537Y-122188296D01*
X222342541Y-122188297D01*
X222346450Y-122189624D01*
X222350494Y-122190428D01*
X222350500Y-122190430D01*
X222642425Y-122248498D01*
X222642431Y-122248499D01*
X222646464Y-122249301D01*
X222650569Y-122249570D01*
X222650576Y-122249571D01*
X222947581Y-122269037D01*
X222951700Y-122269307D01*
X222955819Y-122269037D01*
X223252824Y-122249571D01*
X223252831Y-122249570D01*
X223256936Y-122249301D01*
X223260969Y-122248499D01*
X223260975Y-122248498D01*
X223552900Y-122190430D01*
X223552906Y-122190428D01*
X223556950Y-122189624D01*
X223560859Y-122188297D01*
X223560863Y-122188296D01*
X223842693Y-122092628D01*
X223842694Y-122092628D01*
X223846608Y-122091299D01*
X223850304Y-122089476D01*
X223850312Y-122089473D01*
X224101029Y-121965832D01*
X224120954Y-121956006D01*
X224124389Y-121953711D01*
X224371862Y-121788355D01*
X224371867Y-121788351D01*
X224375293Y-121786062D01*
X224378387Y-121783348D01*
X224378393Y-121783344D01*
X224602185Y-121587083D01*
X224605274Y-121584374D01*
X224607983Y-121581285D01*
X224804244Y-121357493D01*
X224804248Y-121357487D01*
X224806962Y-121354393D01*
X224930615Y-121169333D01*
X224974611Y-121103488D01*
X224974612Y-121103486D01*
X224976906Y-121100053D01*
X225030555Y-120991265D01*
X225110373Y-120829412D01*
X225110376Y-120829404D01*
X225112199Y-120825708D01*
X225206480Y-120547963D01*
X225209196Y-120539963D01*
X225209197Y-120539959D01*
X225210524Y-120536050D01*
X225211330Y-120532000D01*
X225269398Y-120240075D01*
X225269399Y-120240069D01*
X225270201Y-120236036D01*
X225290207Y-119930800D01*
X232043193Y-119930800D01*
X232063199Y-120236036D01*
X232064001Y-120240069D01*
X232064002Y-120240075D01*
X232122070Y-120532000D01*
X232122876Y-120536050D01*
X232124203Y-120539959D01*
X232124204Y-120539963D01*
X232126920Y-120547963D01*
X232221201Y-120825708D01*
X232223024Y-120829404D01*
X232223027Y-120829412D01*
X232302845Y-120991265D01*
X232356494Y-121100053D01*
X232358788Y-121103486D01*
X232358789Y-121103488D01*
X232402785Y-121169333D01*
X232526438Y-121354393D01*
X232529152Y-121357487D01*
X232529156Y-121357493D01*
X232725417Y-121581285D01*
X232728126Y-121584374D01*
X232731215Y-121587083D01*
X232955007Y-121783344D01*
X232955013Y-121783348D01*
X232958107Y-121786062D01*
X232961533Y-121788351D01*
X232961538Y-121788355D01*
X233209011Y-121953711D01*
X233212446Y-121956006D01*
X233232371Y-121965832D01*
X233483088Y-122089473D01*
X233483096Y-122089476D01*
X233486792Y-122091299D01*
X233490706Y-122092628D01*
X233490707Y-122092628D01*
X233772537Y-122188296D01*
X233772541Y-122188297D01*
X233776450Y-122189624D01*
X233780494Y-122190428D01*
X233780500Y-122190430D01*
X234072425Y-122248498D01*
X234072431Y-122248499D01*
X234076464Y-122249301D01*
X234080569Y-122249570D01*
X234080576Y-122249571D01*
X234377581Y-122269037D01*
X234381700Y-122269307D01*
X234385819Y-122269037D01*
X234682824Y-122249571D01*
X234682831Y-122249570D01*
X234686936Y-122249301D01*
X234690969Y-122248499D01*
X234690975Y-122248498D01*
X234982900Y-122190430D01*
X234982906Y-122190428D01*
X234986950Y-122189624D01*
X234990859Y-122188297D01*
X234990863Y-122188296D01*
X235272693Y-122092628D01*
X235272694Y-122092628D01*
X235276608Y-122091299D01*
X235280304Y-122089476D01*
X235280312Y-122089473D01*
X235531029Y-121965832D01*
X235550954Y-121956006D01*
X235554389Y-121953711D01*
X235801862Y-121788355D01*
X235801867Y-121788351D01*
X235805293Y-121786062D01*
X235808387Y-121783348D01*
X235808393Y-121783344D01*
X236032185Y-121587083D01*
X236035274Y-121584374D01*
X236037983Y-121581285D01*
X236234244Y-121357493D01*
X236234248Y-121357487D01*
X236236962Y-121354393D01*
X236360615Y-121169333D01*
X236404611Y-121103488D01*
X236404612Y-121103486D01*
X236406906Y-121100053D01*
X236460555Y-120991265D01*
X236540373Y-120829412D01*
X236540376Y-120829404D01*
X236542199Y-120825708D01*
X236636480Y-120547963D01*
X236639196Y-120539963D01*
X236639197Y-120539959D01*
X236640524Y-120536050D01*
X236641330Y-120532000D01*
X236699398Y-120240075D01*
X236699399Y-120240069D01*
X236700201Y-120236036D01*
X236719683Y-119938800D01*
X237640693Y-119938800D01*
X237640963Y-119942919D01*
X237660175Y-120236036D01*
X237660699Y-120244036D01*
X237661501Y-120248069D01*
X237661502Y-120248075D01*
X237719563Y-120539963D01*
X237720376Y-120544050D01*
X237818701Y-120833708D01*
X237820524Y-120837404D01*
X237820527Y-120837412D01*
X237896400Y-120991265D01*
X237953994Y-121108053D01*
X238123938Y-121362393D01*
X238126652Y-121365487D01*
X238126656Y-121365493D01*
X238315901Y-121581285D01*
X238325626Y-121592374D01*
X238328715Y-121595083D01*
X238552507Y-121791344D01*
X238552513Y-121791348D01*
X238555607Y-121794062D01*
X238559033Y-121796351D01*
X238559038Y-121796355D01*
X238794538Y-121953711D01*
X238809946Y-121964006D01*
X238813649Y-121965832D01*
X239080588Y-122097473D01*
X239080596Y-122097476D01*
X239084292Y-122099299D01*
X239088206Y-122100628D01*
X239088207Y-122100628D01*
X239370037Y-122196296D01*
X239370041Y-122196297D01*
X239373950Y-122197624D01*
X239377994Y-122198428D01*
X239378000Y-122198430D01*
X239669925Y-122256498D01*
X239669931Y-122256499D01*
X239673964Y-122257301D01*
X239678069Y-122257570D01*
X239678076Y-122257571D01*
X239975081Y-122277037D01*
X239979200Y-122277307D01*
X239983319Y-122277037D01*
X240280324Y-122257571D01*
X240280331Y-122257570D01*
X240284436Y-122257301D01*
X240288469Y-122256499D01*
X240288475Y-122256498D01*
X240580400Y-122198430D01*
X240580406Y-122198428D01*
X240584450Y-122197624D01*
X240588359Y-122196297D01*
X240588363Y-122196296D01*
X240870193Y-122100628D01*
X240870194Y-122100628D01*
X240874108Y-122099299D01*
X240877804Y-122097476D01*
X240877812Y-122097473D01*
X241144751Y-121965832D01*
X241148454Y-121964006D01*
X241163862Y-121953711D01*
X241399362Y-121796355D01*
X241399367Y-121796351D01*
X241402793Y-121794062D01*
X241405887Y-121791348D01*
X241405893Y-121791344D01*
X241629685Y-121595083D01*
X241632774Y-121592374D01*
X241642499Y-121581285D01*
X241831744Y-121365493D01*
X241831748Y-121365487D01*
X241834462Y-121362393D01*
X242004406Y-121108053D01*
X242062000Y-120991265D01*
X242137873Y-120837412D01*
X242137876Y-120837404D01*
X242139699Y-120833708D01*
X242238024Y-120544050D01*
X242238837Y-120539963D01*
X242296898Y-120248075D01*
X242296899Y-120248069D01*
X242297701Y-120244036D01*
X242298226Y-120236036D01*
X242317437Y-119942919D01*
X242317707Y-119938800D01*
X242297701Y-119633564D01*
X242295307Y-119621525D01*
X242238830Y-119337600D01*
X242238828Y-119337594D01*
X242238024Y-119333550D01*
X242235309Y-119325550D01*
X242141028Y-119047807D01*
X242141028Y-119047806D01*
X242139699Y-119043892D01*
X242137876Y-119040196D01*
X242137873Y-119040188D01*
X242006232Y-118773250D01*
X242004406Y-118769547D01*
X241996766Y-118758112D01*
X241958115Y-118700267D01*
X241834462Y-118515207D01*
X241831748Y-118512113D01*
X241831744Y-118512107D01*
X241635483Y-118288315D01*
X241632774Y-118285226D01*
X241620563Y-118274517D01*
X241405893Y-118086256D01*
X241405887Y-118086252D01*
X241402793Y-118083538D01*
X241399363Y-118081246D01*
X241399362Y-118081245D01*
X241151889Y-117915889D01*
X241151887Y-117915888D01*
X241148454Y-117913594D01*
X241099947Y-117889673D01*
X240877812Y-117780127D01*
X240877804Y-117780124D01*
X240874108Y-117778301D01*
X240850541Y-117770301D01*
X240588363Y-117681304D01*
X240588359Y-117681303D01*
X240584450Y-117679976D01*
X240580406Y-117679172D01*
X240580400Y-117679170D01*
X240288475Y-117621102D01*
X240288469Y-117621101D01*
X240284436Y-117620299D01*
X240280331Y-117620030D01*
X240280324Y-117620029D01*
X239983319Y-117600563D01*
X239979200Y-117600293D01*
X239975081Y-117600563D01*
X239678076Y-117620029D01*
X239678069Y-117620030D01*
X239673964Y-117620299D01*
X239669931Y-117621101D01*
X239669925Y-117621102D01*
X239378000Y-117679170D01*
X239377994Y-117679172D01*
X239373950Y-117679976D01*
X239370041Y-117681303D01*
X239370037Y-117681304D01*
X239107859Y-117770301D01*
X239084292Y-117778301D01*
X239080596Y-117780124D01*
X239080588Y-117780127D01*
X238860016Y-117888903D01*
X238809947Y-117913594D01*
X238555607Y-118083538D01*
X238552513Y-118086252D01*
X238552507Y-118086256D01*
X238337837Y-118274517D01*
X238325626Y-118285226D01*
X238322917Y-118288315D01*
X238126656Y-118512107D01*
X238126652Y-118512113D01*
X238123938Y-118515207D01*
X238000285Y-118700267D01*
X237961635Y-118758112D01*
X237953994Y-118769547D01*
X237952168Y-118773250D01*
X237820527Y-119040188D01*
X237820524Y-119040196D01*
X237818701Y-119043892D01*
X237817372Y-119047806D01*
X237817372Y-119047807D01*
X237723092Y-119325550D01*
X237720376Y-119333550D01*
X237719572Y-119337594D01*
X237719570Y-119337600D01*
X237663094Y-119621525D01*
X237660699Y-119633564D01*
X237640693Y-119938800D01*
X236719683Y-119938800D01*
X236720207Y-119930800D01*
X236700995Y-119637676D01*
X236700471Y-119629676D01*
X236700470Y-119629669D01*
X236700201Y-119625564D01*
X236642116Y-119333550D01*
X236641330Y-119329600D01*
X236641328Y-119329594D01*
X236640524Y-119325550D01*
X236542199Y-119035892D01*
X236540376Y-119032196D01*
X236540373Y-119032188D01*
X236408732Y-118765250D01*
X236406906Y-118761547D01*
X236236962Y-118507207D01*
X236234248Y-118504113D01*
X236234244Y-118504107D01*
X236037983Y-118280315D01*
X236035274Y-118277226D01*
X235817515Y-118086256D01*
X235808393Y-118078256D01*
X235808387Y-118078252D01*
X235805293Y-118075538D01*
X235801863Y-118073246D01*
X235801862Y-118073245D01*
X235554389Y-117907889D01*
X235554387Y-117907888D01*
X235550954Y-117905594D01*
X235502447Y-117881673D01*
X235280312Y-117772127D01*
X235280304Y-117772124D01*
X235276608Y-117770301D01*
X235014430Y-117681304D01*
X234990863Y-117673304D01*
X234990859Y-117673303D01*
X234986950Y-117671976D01*
X234982906Y-117671172D01*
X234982900Y-117671170D01*
X234690975Y-117613102D01*
X234690969Y-117613101D01*
X234686936Y-117612299D01*
X234682831Y-117612030D01*
X234682824Y-117612029D01*
X234385819Y-117592563D01*
X234381700Y-117592293D01*
X234377581Y-117592563D01*
X234080576Y-117612029D01*
X234080569Y-117612030D01*
X234076464Y-117612299D01*
X234072431Y-117613101D01*
X234072425Y-117613102D01*
X233780500Y-117671170D01*
X233780494Y-117671172D01*
X233776450Y-117671976D01*
X233772541Y-117673303D01*
X233772537Y-117673304D01*
X233748970Y-117681304D01*
X233486792Y-117770301D01*
X233483096Y-117772124D01*
X233483088Y-117772127D01*
X233262516Y-117880903D01*
X233212447Y-117905594D01*
X232958107Y-118075538D01*
X232955013Y-118078252D01*
X232955007Y-118078256D01*
X232945885Y-118086256D01*
X232728126Y-118277226D01*
X232725417Y-118280315D01*
X232529156Y-118504107D01*
X232529152Y-118504113D01*
X232526438Y-118507207D01*
X232356494Y-118761547D01*
X232354668Y-118765250D01*
X232223027Y-119032188D01*
X232223024Y-119032196D01*
X232221201Y-119035892D01*
X232122876Y-119325550D01*
X232122072Y-119329594D01*
X232122070Y-119329600D01*
X232121285Y-119333550D01*
X232063199Y-119625564D01*
X232062930Y-119629669D01*
X232062929Y-119629676D01*
X232062405Y-119637676D01*
X232043193Y-119930800D01*
X225290207Y-119930800D01*
X225270995Y-119637676D01*
X225270471Y-119629676D01*
X225270470Y-119629669D01*
X225270201Y-119625564D01*
X225212116Y-119333550D01*
X225211330Y-119329600D01*
X225211328Y-119329594D01*
X225210524Y-119325550D01*
X225112199Y-119035892D01*
X225110376Y-119032196D01*
X225110373Y-119032188D01*
X224978732Y-118765250D01*
X224976906Y-118761547D01*
X224806962Y-118507207D01*
X224804248Y-118504113D01*
X224804244Y-118504107D01*
X224607983Y-118280315D01*
X224605274Y-118277226D01*
X224387515Y-118086256D01*
X224378393Y-118078256D01*
X224378387Y-118078252D01*
X224375293Y-118075538D01*
X224371863Y-118073246D01*
X224371862Y-118073245D01*
X224124389Y-117907889D01*
X224124387Y-117907888D01*
X224120954Y-117905594D01*
X224072447Y-117881673D01*
X223850312Y-117772127D01*
X223850304Y-117772124D01*
X223846608Y-117770301D01*
X223584430Y-117681304D01*
X223560863Y-117673304D01*
X223560859Y-117673303D01*
X223556950Y-117671976D01*
X223552906Y-117671172D01*
X223552900Y-117671170D01*
X223260975Y-117613102D01*
X223260969Y-117613101D01*
X223256936Y-117612299D01*
X223252831Y-117612030D01*
X223252824Y-117612029D01*
X222955819Y-117592563D01*
X222951700Y-117592293D01*
X222947581Y-117592563D01*
X222650576Y-117612029D01*
X222650569Y-117612030D01*
X222646464Y-117612299D01*
X222642431Y-117613101D01*
X222642425Y-117613102D01*
X222350500Y-117671170D01*
X222350494Y-117671172D01*
X222346450Y-117671976D01*
X222342541Y-117673303D01*
X222342537Y-117673304D01*
X222318970Y-117681304D01*
X222056792Y-117770301D01*
X222053096Y-117772124D01*
X222053088Y-117772127D01*
X221832516Y-117880903D01*
X221782447Y-117905594D01*
X221528107Y-118075538D01*
X221525013Y-118078252D01*
X221525007Y-118078256D01*
X221515885Y-118086256D01*
X221298126Y-118277226D01*
X221295417Y-118280315D01*
X221099156Y-118504107D01*
X221099152Y-118504113D01*
X221096438Y-118507207D01*
X220926494Y-118761547D01*
X220924668Y-118765250D01*
X220793027Y-119032188D01*
X220793024Y-119032196D01*
X220791201Y-119035892D01*
X220692876Y-119325550D01*
X220692072Y-119329594D01*
X220692070Y-119329600D01*
X220691285Y-119333550D01*
X220633199Y-119625564D01*
X220632930Y-119629669D01*
X220632929Y-119629676D01*
X220632405Y-119637676D01*
X220613193Y-119930800D01*
X219600607Y-119930800D01*
X219581395Y-119637676D01*
X219580871Y-119629676D01*
X219580870Y-119629669D01*
X219580601Y-119625564D01*
X219522516Y-119333550D01*
X219521730Y-119329600D01*
X219521728Y-119329594D01*
X219520924Y-119325550D01*
X219422599Y-119035892D01*
X219420776Y-119032196D01*
X219420773Y-119032188D01*
X219289132Y-118765250D01*
X219287306Y-118761547D01*
X219117362Y-118507207D01*
X219114648Y-118504113D01*
X219114644Y-118504107D01*
X218918383Y-118280315D01*
X218915674Y-118277226D01*
X218697915Y-118086256D01*
X218688793Y-118078256D01*
X218688787Y-118078252D01*
X218685693Y-118075538D01*
X218682263Y-118073246D01*
X218682262Y-118073245D01*
X218434789Y-117907889D01*
X218434787Y-117907888D01*
X218431354Y-117905594D01*
X218382847Y-117881673D01*
X218160712Y-117772127D01*
X218160704Y-117772124D01*
X218157008Y-117770301D01*
X217894830Y-117681304D01*
X217871263Y-117673304D01*
X217871259Y-117673303D01*
X217867350Y-117671976D01*
X217863306Y-117671172D01*
X217863300Y-117671170D01*
X217571375Y-117613102D01*
X217571369Y-117613101D01*
X217567336Y-117612299D01*
X217563231Y-117612030D01*
X217563224Y-117612029D01*
X217266219Y-117592563D01*
X217262100Y-117592293D01*
X217257981Y-117592563D01*
X216960976Y-117612029D01*
X216960969Y-117612030D01*
X216956864Y-117612299D01*
X216952831Y-117613101D01*
X216952825Y-117613102D01*
X216660900Y-117671170D01*
X216660894Y-117671172D01*
X216656850Y-117671976D01*
X216652941Y-117673303D01*
X216652937Y-117673304D01*
X216629370Y-117681304D01*
X216367192Y-117770301D01*
X216363496Y-117772124D01*
X216363488Y-117772127D01*
X216142916Y-117880903D01*
X216092847Y-117905594D01*
X215838507Y-118075538D01*
X215835413Y-118078252D01*
X215835407Y-118078256D01*
X215826285Y-118086256D01*
X215608526Y-118277226D01*
X215605817Y-118280315D01*
X215409556Y-118504107D01*
X215409552Y-118504113D01*
X215406838Y-118507207D01*
X215236894Y-118761547D01*
X215235068Y-118765250D01*
X215103427Y-119032188D01*
X215103424Y-119032196D01*
X215101601Y-119035892D01*
X215003276Y-119325550D01*
X215002472Y-119329594D01*
X215002470Y-119329600D01*
X215001685Y-119333550D01*
X214943599Y-119625564D01*
X214943330Y-119629669D01*
X214943329Y-119629676D01*
X214942805Y-119637676D01*
X214923593Y-119930800D01*
X208170607Y-119930800D01*
X208151395Y-119637676D01*
X208150871Y-119629676D01*
X208150870Y-119629669D01*
X208150601Y-119625564D01*
X208092516Y-119333550D01*
X208091730Y-119329600D01*
X208091728Y-119329594D01*
X208090924Y-119325550D01*
X207992599Y-119035892D01*
X207990776Y-119032196D01*
X207990773Y-119032188D01*
X207859132Y-118765250D01*
X207857306Y-118761547D01*
X207687362Y-118507207D01*
X207684648Y-118504113D01*
X207684644Y-118504107D01*
X207488383Y-118280315D01*
X207485674Y-118277226D01*
X207267915Y-118086256D01*
X207258793Y-118078256D01*
X207258787Y-118078252D01*
X207255693Y-118075538D01*
X207252263Y-118073246D01*
X207252262Y-118073245D01*
X207004789Y-117907889D01*
X207004787Y-117907888D01*
X207001354Y-117905594D01*
X206952847Y-117881673D01*
X206730712Y-117772127D01*
X206730704Y-117772124D01*
X206727008Y-117770301D01*
X206464830Y-117681304D01*
X206441263Y-117673304D01*
X206441259Y-117673303D01*
X206437350Y-117671976D01*
X206433306Y-117671172D01*
X206433300Y-117671170D01*
X206141375Y-117613102D01*
X206141369Y-117613101D01*
X206137336Y-117612299D01*
X206133231Y-117612030D01*
X206133224Y-117612029D01*
X205836219Y-117592563D01*
X205832100Y-117592293D01*
X205827981Y-117592563D01*
X205530976Y-117612029D01*
X205530969Y-117612030D01*
X205526864Y-117612299D01*
X205522831Y-117613101D01*
X205522825Y-117613102D01*
X205230900Y-117671170D01*
X205230894Y-117671172D01*
X205226850Y-117671976D01*
X205222941Y-117673303D01*
X205222937Y-117673304D01*
X205199370Y-117681304D01*
X204937192Y-117770301D01*
X204933496Y-117772124D01*
X204933488Y-117772127D01*
X204712916Y-117880903D01*
X204662847Y-117905594D01*
X204408507Y-118075538D01*
X204405413Y-118078252D01*
X204405407Y-118078256D01*
X204396285Y-118086256D01*
X204178526Y-118277226D01*
X203976838Y-118507207D01*
X203975607Y-118509050D01*
X203918628Y-118550657D01*
X203847757Y-118554881D01*
X203785853Y-118520119D01*
X203752570Y-118457407D01*
X203750000Y-118432087D01*
X203750000Y-108286143D01*
X203770002Y-108218022D01*
X203823658Y-108171529D01*
X203893932Y-108161425D01*
X203958512Y-108190919D01*
X203983433Y-108220308D01*
X204028094Y-108293188D01*
X204034177Y-108301499D01*
X204173613Y-108462467D01*
X204180980Y-108469683D01*
X204344834Y-108605716D01*
X204353281Y-108611631D01*
X204537156Y-108719079D01*
X204546442Y-108723529D01*
X204745401Y-108799503D01*
X204755299Y-108802379D01*
X204858650Y-108823406D01*
X204872699Y-108822210D01*
X204876400Y-108811865D01*
X204876400Y-107364800D01*
X204896402Y-107296679D01*
X204950058Y-107250186D01*
X205002400Y-107238800D01*
X205258400Y-107238800D01*
X205326521Y-107258802D01*
X205373014Y-107312458D01*
X205384400Y-107364800D01*
X205384400Y-108811317D01*
X205388464Y-108825159D01*
X205401878Y-108827193D01*
X205408584Y-108826334D01*
X205418662Y-108824192D01*
X205622655Y-108762991D01*
X205632242Y-108759233D01*
X205823495Y-108665539D01*
X205832345Y-108660264D01*
X206005728Y-108536592D01*
X206013600Y-108529939D01*
X206164452Y-108379612D01*
X206171130Y-108371765D01*
X206298422Y-108194619D01*
X206299679Y-108195522D01*
X206346773Y-108152162D01*
X206416711Y-108139945D01*
X206482151Y-108167478D01*
X206509979Y-108199311D01*
X206570387Y-108297888D01*
X206716650Y-108466738D01*
X206888526Y-108609432D01*
X207081400Y-108722138D01*
X207290092Y-108801830D01*
X207295160Y-108802861D01*
X207295163Y-108802862D01*
X207390262Y-108822210D01*
X207508997Y-108846367D01*
X207514172Y-108846557D01*
X207514174Y-108846557D01*
X207727073Y-108854364D01*
X207727077Y-108854364D01*
X207732237Y-108854553D01*
X207737357Y-108853897D01*
X207737359Y-108853897D01*
X207948688Y-108826825D01*
X207948689Y-108826825D01*
X207953816Y-108826168D01*
X207958766Y-108824683D01*
X208162829Y-108763461D01*
X208162834Y-108763459D01*
X208167784Y-108761974D01*
X208368394Y-108663696D01*
X208550260Y-108533973D01*
X208658491Y-108426119D01*
X208720862Y-108392204D01*
X208791668Y-108397392D01*
X208848430Y-108440038D01*
X208865412Y-108471141D01*
X208909785Y-108589505D01*
X208997139Y-108706061D01*
X209113695Y-108793415D01*
X209250084Y-108844545D01*
X209312266Y-108851300D01*
X211108534Y-108851300D01*
X211170716Y-108844545D01*
X211307105Y-108793415D01*
X211423661Y-108706061D01*
X211511015Y-108589505D01*
X211562145Y-108453116D01*
X211568900Y-108390934D01*
X211568900Y-106594666D01*
X211562145Y-106532484D01*
X211511015Y-106396095D01*
X211423661Y-106279539D01*
X211307105Y-106192185D01*
X211170716Y-106141055D01*
X211108534Y-106134300D01*
X210802813Y-106134300D01*
X210734692Y-106114298D01*
X210702851Y-106085004D01*
X210649416Y-106015366D01*
X210649413Y-106015363D01*
X210644387Y-106008813D01*
X210517276Y-105911276D01*
X210509650Y-105908117D01*
X210509648Y-105908116D01*
X210376880Y-105853122D01*
X210376877Y-105853121D01*
X210369250Y-105849962D01*
X210323000Y-105843873D01*
X210218588Y-105830127D01*
X210210400Y-105829049D01*
X210202212Y-105830127D01*
X210097801Y-105843873D01*
X210051550Y-105849962D01*
X209903525Y-105911276D01*
X209776413Y-106008813D01*
X209771481Y-106015241D01*
X209709237Y-106049231D01*
X209638421Y-106044168D01*
X209593355Y-106015206D01*
X208931915Y-105353766D01*
X208921048Y-105341375D01*
X208906613Y-105322563D01*
X208901587Y-105316013D01*
X208869675Y-105291526D01*
X208869672Y-105291523D01*
X208864906Y-105287866D01*
X208781029Y-105223504D01*
X208781027Y-105223503D01*
X208774476Y-105218476D01*
X208626451Y-105157162D01*
X208618264Y-105156084D01*
X208618263Y-105156084D01*
X208607058Y-105154609D01*
X208561574Y-105148621D01*
X208507485Y-105141500D01*
X208507482Y-105141500D01*
X208507474Y-105141499D01*
X208475789Y-105137328D01*
X208467600Y-105136250D01*
X208435907Y-105140422D01*
X208419464Y-105141500D01*
X204710115Y-105141500D01*
X204591150Y-105157162D01*
X204443125Y-105218476D01*
X204404713Y-105247951D01*
X204322566Y-105310984D01*
X204322563Y-105310987D01*
X204316013Y-105316013D01*
X204256103Y-105394089D01*
X204198767Y-105435954D01*
X204127896Y-105440176D01*
X204067047Y-105406478D01*
X203945425Y-105284856D01*
X203911399Y-105222544D01*
X203908520Y-105195761D01*
X203908520Y-104639500D01*
X203928522Y-104571379D01*
X203982178Y-104524886D01*
X204034520Y-104513500D01*
X206531134Y-104513500D01*
X206593316Y-104506745D01*
X206729705Y-104455615D01*
X206846261Y-104368261D01*
X206933615Y-104251705D01*
X206937816Y-104240500D01*
X206954772Y-104195270D01*
X206997414Y-104138505D01*
X207063976Y-104113806D01*
X207072754Y-104113500D01*
X213986044Y-104113500D01*
X214054165Y-104133502D01*
X214100658Y-104187158D01*
X214110762Y-104257432D01*
X214081268Y-104322012D01*
X214075139Y-104328595D01*
X213055866Y-105347868D01*
X213043475Y-105358735D01*
X213018113Y-105378196D01*
X212993626Y-105410108D01*
X212993623Y-105410111D01*
X212920576Y-105505307D01*
X212859262Y-105653332D01*
X212858123Y-105661987D01*
X212843600Y-105772298D01*
X212843600Y-105772303D01*
X212838350Y-105812183D01*
X212839428Y-105820371D01*
X212842522Y-105843873D01*
X212843600Y-105860319D01*
X212843600Y-109864941D01*
X212823598Y-109933062D01*
X212789870Y-109968154D01*
X212644578Y-110069888D01*
X212644572Y-110069893D01*
X212640062Y-110073051D01*
X212484351Y-110228762D01*
X212481194Y-110233270D01*
X212481192Y-110233273D01*
X212361201Y-110404638D01*
X212361200Y-110404640D01*
X212358044Y-110409147D01*
X212355721Y-110414129D01*
X212355718Y-110414134D01*
X212296019Y-110542160D01*
X212249102Y-110595445D01*
X212180824Y-110614906D01*
X212112864Y-110594364D01*
X212067629Y-110542160D01*
X212008046Y-110414383D01*
X212002566Y-110404893D01*
X211973689Y-110363651D01*
X211963213Y-110355277D01*
X211949766Y-110362345D01*
X211284121Y-111027989D01*
X211276508Y-111041932D01*
X211276639Y-111043766D01*
X211280890Y-111050380D01*
X211950491Y-111719980D01*
X211962261Y-111726407D01*
X211974276Y-111717111D01*
X212002566Y-111676707D01*
X212008046Y-111667217D01*
X212067629Y-111539440D01*
X212114546Y-111486155D01*
X212182824Y-111466694D01*
X212250784Y-111487236D01*
X212296019Y-111539440D01*
X212355718Y-111667466D01*
X212355721Y-111667471D01*
X212358044Y-111672453D01*
X212361200Y-111676960D01*
X212361201Y-111676962D01*
X212479903Y-111846485D01*
X212484351Y-111852838D01*
X212640062Y-112008549D01*
X212644571Y-112011706D01*
X212644573Y-112011708D01*
X212677722Y-112034919D01*
X212820446Y-112134856D01*
X213020024Y-112227920D01*
X213232729Y-112284915D01*
X213452100Y-112304107D01*
X213671471Y-112284915D01*
X213884176Y-112227920D01*
X214083754Y-112134856D01*
X214226478Y-112034919D01*
X214259627Y-112011708D01*
X214259629Y-112011706D01*
X214264138Y-112008549D01*
X214419849Y-111852838D01*
X214424298Y-111846485D01*
X214542999Y-111676962D01*
X214543000Y-111676960D01*
X214546156Y-111672453D01*
X214548479Y-111667471D01*
X214548482Y-111667466D01*
X214607905Y-111540031D01*
X214654822Y-111486746D01*
X214723099Y-111467285D01*
X214791059Y-111487827D01*
X214836295Y-111540031D01*
X214895718Y-111667466D01*
X214895721Y-111667471D01*
X214898044Y-111672453D01*
X214901200Y-111676960D01*
X214901201Y-111676962D01*
X215019903Y-111846485D01*
X215024351Y-111852838D01*
X215180062Y-112008549D01*
X215184571Y-112011706D01*
X215184573Y-112011708D01*
X215217722Y-112034919D01*
X215360446Y-112134856D01*
X215560024Y-112227920D01*
X215772729Y-112284915D01*
X215992100Y-112304107D01*
X216211471Y-112284915D01*
X216424176Y-112227920D01*
X216623754Y-112134856D01*
X216766478Y-112034919D01*
X216799627Y-112011708D01*
X216799629Y-112011706D01*
X216804138Y-112008549D01*
X216959849Y-111852838D01*
X216964298Y-111846485D01*
X217082999Y-111676962D01*
X217083000Y-111676960D01*
X217086156Y-111672453D01*
X217088479Y-111667471D01*
X217088482Y-111667466D01*
X217151305Y-111532740D01*
X217198222Y-111479455D01*
X217266499Y-111459994D01*
X217334459Y-111480536D01*
X217380525Y-111534558D01*
X217391500Y-111585990D01*
X217391500Y-112695761D01*
X217371498Y-112763882D01*
X217354595Y-112784856D01*
X216162172Y-113977279D01*
X216099860Y-114011305D01*
X216029045Y-114006240D01*
X215972209Y-113963693D01*
X215947398Y-113897173D01*
X215951371Y-113855572D01*
X215964790Y-113805492D01*
X215964792Y-113805481D01*
X215966215Y-113800171D01*
X215985407Y-113580800D01*
X215966215Y-113361429D01*
X215909220Y-113148724D01*
X215851720Y-113025414D01*
X215818482Y-112954134D01*
X215818479Y-112954129D01*
X215816156Y-112949147D01*
X215811152Y-112942000D01*
X215693008Y-112773273D01*
X215693006Y-112773270D01*
X215689849Y-112768762D01*
X215534138Y-112613051D01*
X215493948Y-112584909D01*
X215416442Y-112530639D01*
X215353754Y-112486744D01*
X215154176Y-112393680D01*
X214941471Y-112336685D01*
X214722100Y-112317493D01*
X214502729Y-112336685D01*
X214290024Y-112393680D01*
X214202822Y-112434343D01*
X214095434Y-112484418D01*
X214095429Y-112484421D01*
X214090447Y-112486744D01*
X214085940Y-112489900D01*
X214085938Y-112489901D01*
X213914573Y-112609892D01*
X213914570Y-112609894D01*
X213910062Y-112613051D01*
X213754351Y-112768762D01*
X213751194Y-112773270D01*
X213751192Y-112773273D01*
X213633048Y-112942000D01*
X213628044Y-112949147D01*
X213625719Y-112954134D01*
X213622968Y-112958898D01*
X213621608Y-112958113D01*
X213579481Y-113005955D01*
X213511204Y-113025414D01*
X213463989Y-113015827D01*
X213404346Y-112991122D01*
X213404343Y-112991121D01*
X213396716Y-112987962D01*
X213348820Y-112981657D01*
X213283894Y-112952936D01*
X213262053Y-112929006D01*
X213253086Y-112916199D01*
X213167579Y-112794083D01*
X213153008Y-112773273D01*
X213153006Y-112773270D01*
X213149849Y-112768762D01*
X212994138Y-112613051D01*
X212953948Y-112584909D01*
X212876442Y-112530639D01*
X212813754Y-112486744D01*
X212614176Y-112393680D01*
X212401471Y-112336685D01*
X212182100Y-112317493D01*
X211962729Y-112336685D01*
X211750024Y-112393680D01*
X211662822Y-112434343D01*
X211555434Y-112484418D01*
X211555429Y-112484421D01*
X211550447Y-112486744D01*
X211545940Y-112489900D01*
X211545938Y-112489901D01*
X211374573Y-112609892D01*
X211374570Y-112609894D01*
X211370062Y-112613051D01*
X211214351Y-112768762D01*
X211211194Y-112773270D01*
X211211192Y-112773273D01*
X211093048Y-112942000D01*
X211088044Y-112949147D01*
X211085721Y-112954129D01*
X211085718Y-112954134D01*
X211026019Y-113082160D01*
X210979102Y-113135445D01*
X210910824Y-113154906D01*
X210842864Y-113134364D01*
X210797629Y-113082160D01*
X210738046Y-112954383D01*
X210732566Y-112944893D01*
X210703689Y-112903651D01*
X210693213Y-112895277D01*
X210679766Y-112902345D01*
X210014121Y-113567989D01*
X210006508Y-113581932D01*
X210006639Y-113583766D01*
X210010890Y-113590380D01*
X210680491Y-114259980D01*
X210692261Y-114266407D01*
X210704276Y-114257111D01*
X210732566Y-114216707D01*
X210738046Y-114207217D01*
X210797629Y-114079440D01*
X210844546Y-114026155D01*
X210912824Y-114006694D01*
X210980784Y-114027236D01*
X211026019Y-114079440D01*
X211085718Y-114207466D01*
X211085721Y-114207471D01*
X211088044Y-114212453D01*
X211091200Y-114216960D01*
X211091201Y-114216962D01*
X211202223Y-114375517D01*
X211214351Y-114392838D01*
X211247918Y-114426405D01*
X211281944Y-114488717D01*
X211276879Y-114559532D01*
X211234332Y-114616368D01*
X211167812Y-114641179D01*
X211158823Y-114641500D01*
X210395779Y-114641500D01*
X210327658Y-114621498D01*
X210306684Y-114604595D01*
X209282890Y-113580800D01*
X208603711Y-112901622D01*
X208591939Y-112895194D01*
X208564787Y-112916200D01*
X208561999Y-112912597D01*
X208534342Y-112934699D01*
X208463722Y-112942000D01*
X208400365Y-112909961D01*
X208364388Y-112848755D01*
X208360600Y-112818094D01*
X208360600Y-112782666D01*
X208353845Y-112720484D01*
X208302715Y-112584095D01*
X208261939Y-112529687D01*
X208956577Y-112529687D01*
X208963645Y-112543134D01*
X209629289Y-113208779D01*
X209643232Y-113216392D01*
X209645066Y-113216261D01*
X209651680Y-113212010D01*
X210321280Y-112542409D01*
X210327707Y-112530639D01*
X210318413Y-112518625D01*
X210278012Y-112490336D01*
X210268516Y-112484853D01*
X210078987Y-112396474D01*
X210068695Y-112392728D01*
X209866699Y-112338604D01*
X209855904Y-112336701D01*
X209647575Y-112318474D01*
X209636625Y-112318474D01*
X209428296Y-112336701D01*
X209417501Y-112338604D01*
X209215505Y-112392728D01*
X209205213Y-112396474D01*
X209015683Y-112484854D01*
X209006193Y-112490334D01*
X208964951Y-112519211D01*
X208956577Y-112529687D01*
X208261939Y-112529687D01*
X208242408Y-112503627D01*
X208217561Y-112437121D01*
X208232614Y-112367739D01*
X208282789Y-112317509D01*
X208354219Y-112302543D01*
X208366618Y-112303628D01*
X208366625Y-112303628D01*
X208372100Y-112304107D01*
X208591471Y-112284915D01*
X208804176Y-112227920D01*
X209003754Y-112134856D01*
X209066442Y-112090961D01*
X210226493Y-112090961D01*
X210235787Y-112102975D01*
X210276188Y-112131264D01*
X210285684Y-112136747D01*
X210475213Y-112225126D01*
X210485505Y-112228872D01*
X210687501Y-112282996D01*
X210698296Y-112284899D01*
X210906625Y-112303126D01*
X210917575Y-112303126D01*
X211125904Y-112284899D01*
X211136699Y-112282996D01*
X211338695Y-112228872D01*
X211348987Y-112225126D01*
X211538516Y-112136747D01*
X211548012Y-112131264D01*
X211589248Y-112102390D01*
X211597623Y-112091912D01*
X211590557Y-112078468D01*
X210924911Y-111412821D01*
X210910968Y-111405208D01*
X210909134Y-111405339D01*
X210902520Y-111409590D01*
X210232920Y-112079191D01*
X210226493Y-112090961D01*
X209066442Y-112090961D01*
X209146478Y-112034919D01*
X209179627Y-112011708D01*
X209179629Y-112011706D01*
X209184138Y-112008549D01*
X209339849Y-111852838D01*
X209344298Y-111846485D01*
X209462999Y-111676962D01*
X209463000Y-111676960D01*
X209466156Y-111672453D01*
X209468479Y-111667471D01*
X209468482Y-111667466D01*
X209528181Y-111539440D01*
X209575098Y-111486155D01*
X209643376Y-111466694D01*
X209711336Y-111487236D01*
X209756571Y-111539440D01*
X209816154Y-111667217D01*
X209821634Y-111676707D01*
X209850511Y-111717949D01*
X209860987Y-111726323D01*
X209874434Y-111719255D01*
X210540079Y-111053611D01*
X210547692Y-111039668D01*
X210547561Y-111037834D01*
X210543310Y-111031220D01*
X209873709Y-110361620D01*
X209861939Y-110355193D01*
X209849924Y-110364489D01*
X209821634Y-110404893D01*
X209816154Y-110414383D01*
X209756571Y-110542160D01*
X209709654Y-110595445D01*
X209641376Y-110614906D01*
X209573416Y-110594364D01*
X209528181Y-110542160D01*
X209468482Y-110414134D01*
X209468479Y-110414129D01*
X209466156Y-110409147D01*
X209463000Y-110404640D01*
X209462999Y-110404638D01*
X209343008Y-110233273D01*
X209343006Y-110233270D01*
X209339849Y-110228762D01*
X209184138Y-110073051D01*
X209065083Y-109989687D01*
X210226577Y-109989687D01*
X210233645Y-110003134D01*
X210899289Y-110668779D01*
X210913232Y-110676392D01*
X210915066Y-110676261D01*
X210921680Y-110672010D01*
X211591280Y-110002409D01*
X211597707Y-109990639D01*
X211588413Y-109978625D01*
X211548012Y-109950336D01*
X211538516Y-109944853D01*
X211348987Y-109856474D01*
X211338695Y-109852728D01*
X211136699Y-109798604D01*
X211125904Y-109796701D01*
X210917575Y-109778474D01*
X210906625Y-109778474D01*
X210698296Y-109796701D01*
X210687501Y-109798604D01*
X210485505Y-109852728D01*
X210475213Y-109856474D01*
X210285683Y-109944854D01*
X210276193Y-109950334D01*
X210234951Y-109979211D01*
X210226577Y-109989687D01*
X209065083Y-109989687D01*
X209003754Y-109946744D01*
X208804176Y-109853680D01*
X208591471Y-109796685D01*
X208372100Y-109777493D01*
X208152729Y-109796685D01*
X207940024Y-109853680D01*
X207874694Y-109884144D01*
X207745434Y-109944418D01*
X207745429Y-109944421D01*
X207740447Y-109946744D01*
X207735940Y-109949900D01*
X207735938Y-109949901D01*
X207564573Y-110069892D01*
X207564570Y-110069894D01*
X207560062Y-110073051D01*
X207404351Y-110228762D01*
X207401194Y-110233270D01*
X207401192Y-110233273D01*
X207281201Y-110404638D01*
X207281200Y-110404640D01*
X207278044Y-110409147D01*
X207275721Y-110414129D01*
X207275718Y-110414134D01*
X207250456Y-110468310D01*
X207184980Y-110608724D01*
X207127985Y-110821429D01*
X207108793Y-111040800D01*
X207127985Y-111260171D01*
X207129408Y-111265481D01*
X207129410Y-111265491D01*
X207143855Y-111319400D01*
X207142166Y-111390376D01*
X207111244Y-111441107D01*
X206705866Y-111846485D01*
X206693475Y-111857352D01*
X206668113Y-111876813D01*
X206643626Y-111908725D01*
X206643623Y-111908728D01*
X206570576Y-112003924D01*
X206509262Y-112151949D01*
X206509262Y-112151950D01*
X206507514Y-112165226D01*
X206501258Y-112212746D01*
X206472536Y-112277674D01*
X206413270Y-112316765D01*
X206376336Y-112322300D01*
X206303966Y-112322300D01*
X206241784Y-112329055D01*
X206105395Y-112380185D01*
X205988839Y-112467539D01*
X205901485Y-112584095D01*
X205850355Y-112720484D01*
X205843600Y-112782666D01*
X205843600Y-114378934D01*
X205850355Y-114441116D01*
X205901485Y-114577505D01*
X205988839Y-114694061D01*
X206105395Y-114781415D01*
X206241784Y-114832545D01*
X206303966Y-114839300D01*
X207447861Y-114839300D01*
X207515982Y-114859302D01*
X207536956Y-114876205D01*
X208306985Y-115646234D01*
X208317852Y-115658625D01*
X208337313Y-115683987D01*
X208343863Y-115689013D01*
X208369225Y-115708474D01*
X208369228Y-115708477D01*
X208438618Y-115761722D01*
X208457870Y-115776495D01*
X208457872Y-115776496D01*
X208464425Y-115781524D01*
X208612450Y-115842838D01*
X208731415Y-115858500D01*
X208731420Y-115858500D01*
X208731429Y-115858501D01*
X208763112Y-115862672D01*
X208771300Y-115863750D01*
X208802993Y-115859578D01*
X208819436Y-115858500D01*
X216701864Y-115858500D01*
X216718307Y-115859578D01*
X216750000Y-115863750D01*
X216758189Y-115862672D01*
X216789874Y-115858501D01*
X216789884Y-115858500D01*
X216789885Y-115858500D01*
X216789901Y-115858498D01*
X216889457Y-115845391D01*
X216900664Y-115843916D01*
X216900666Y-115843915D01*
X216908851Y-115842838D01*
X217056876Y-115781524D01*
X217082683Y-115761722D01*
X217152072Y-115708477D01*
X217152075Y-115708474D01*
X217177434Y-115689015D01*
X217183987Y-115683987D01*
X217189017Y-115677432D01*
X217203452Y-115658621D01*
X217214319Y-115646230D01*
X218634344Y-114226205D01*
X218696656Y-114192179D01*
X218723439Y-114189300D01*
X222837200Y-114189300D01*
X222905321Y-114209302D01*
X222951814Y-114262958D01*
X222963200Y-114315300D01*
X222963200Y-114378934D01*
X222969955Y-114441116D01*
X223021085Y-114577505D01*
X223108439Y-114694061D01*
X223224995Y-114781415D01*
X223361384Y-114832545D01*
X223423566Y-114839300D01*
X225019834Y-114839300D01*
X225082016Y-114832545D01*
X225218405Y-114781415D01*
X225334961Y-114694061D01*
X225382252Y-114630961D01*
X226076093Y-114630961D01*
X226085387Y-114642975D01*
X226125788Y-114671264D01*
X226135284Y-114676747D01*
X226324813Y-114765126D01*
X226335105Y-114768872D01*
X226537101Y-114822996D01*
X226547896Y-114824899D01*
X226756225Y-114843126D01*
X226767175Y-114843126D01*
X226975504Y-114824899D01*
X226986299Y-114822996D01*
X227188295Y-114768872D01*
X227198587Y-114765126D01*
X227388116Y-114676747D01*
X227397612Y-114671264D01*
X227438848Y-114642390D01*
X227447223Y-114631912D01*
X227440157Y-114618468D01*
X226774511Y-113952821D01*
X226760568Y-113945208D01*
X226758734Y-113945339D01*
X226752120Y-113949590D01*
X226082520Y-114619191D01*
X226076093Y-114630961D01*
X225382252Y-114630961D01*
X225422315Y-114577505D01*
X225473445Y-114441116D01*
X225480200Y-114378934D01*
X225480200Y-114343506D01*
X225500202Y-114275385D01*
X225553858Y-114228892D01*
X225624132Y-114218788D01*
X225685732Y-114246921D01*
X225685959Y-114246637D01*
X225687090Y-114247541D01*
X225688712Y-114248282D01*
X225690508Y-114250273D01*
X225710587Y-114266323D01*
X225724034Y-114259255D01*
X226389679Y-113593611D01*
X226397292Y-113579668D01*
X226397161Y-113577834D01*
X226392910Y-113571220D01*
X225723309Y-112901620D01*
X225711539Y-112895193D01*
X225684388Y-112916199D01*
X225681600Y-112912596D01*
X225653942Y-112934699D01*
X225583322Y-112942000D01*
X225519965Y-112909961D01*
X225483988Y-112848755D01*
X225480200Y-112818094D01*
X225480200Y-112782666D01*
X225473445Y-112720484D01*
X225422315Y-112584095D01*
X225381539Y-112529687D01*
X226076177Y-112529687D01*
X226083245Y-112543134D01*
X226748889Y-113208779D01*
X226762832Y-113216392D01*
X226764666Y-113216261D01*
X226771280Y-113212010D01*
X227440880Y-112542409D01*
X227447307Y-112530639D01*
X227438013Y-112518625D01*
X227397612Y-112490336D01*
X227388116Y-112484853D01*
X227198587Y-112396474D01*
X227188295Y-112392728D01*
X226986299Y-112338604D01*
X226975504Y-112336701D01*
X226767175Y-112318474D01*
X226756225Y-112318474D01*
X226547896Y-112336701D01*
X226537101Y-112338604D01*
X226335105Y-112392728D01*
X226324813Y-112396474D01*
X226135283Y-112484854D01*
X226125793Y-112490334D01*
X226084551Y-112519211D01*
X226076177Y-112529687D01*
X225381539Y-112529687D01*
X225362008Y-112503627D01*
X225337161Y-112437121D01*
X225352214Y-112367739D01*
X225402389Y-112317509D01*
X225473819Y-112302543D01*
X225486218Y-112303628D01*
X225486225Y-112303628D01*
X225491700Y-112304107D01*
X225711071Y-112284915D01*
X225923776Y-112227920D01*
X226123354Y-112134856D01*
X226266078Y-112034919D01*
X226299227Y-112011708D01*
X226299229Y-112011706D01*
X226303738Y-112008549D01*
X226459449Y-111852838D01*
X226463898Y-111846485D01*
X226582599Y-111676962D01*
X226582600Y-111676960D01*
X226585756Y-111672453D01*
X226588079Y-111667471D01*
X226588082Y-111667466D01*
X226647781Y-111539440D01*
X226694698Y-111486155D01*
X226762976Y-111466694D01*
X226830936Y-111487236D01*
X226876171Y-111539440D01*
X226935754Y-111667217D01*
X226941234Y-111676707D01*
X226970111Y-111717949D01*
X226980586Y-111726323D01*
X226994033Y-111719255D01*
X227942605Y-110770684D01*
X228004917Y-110736659D01*
X228075733Y-110741724D01*
X228120795Y-110770685D01*
X228301815Y-110951705D01*
X228335841Y-111014017D01*
X228330776Y-111084832D01*
X228301816Y-111129895D01*
X227352522Y-112079189D01*
X227346094Y-112090963D01*
X227355387Y-112102975D01*
X227395788Y-112131264D01*
X227405284Y-112136747D01*
X227594813Y-112225126D01*
X227605105Y-112228872D01*
X227807101Y-112282996D01*
X227817896Y-112284899D01*
X228026225Y-112303126D01*
X228037175Y-112303126D01*
X228245504Y-112284899D01*
X228256299Y-112282996D01*
X228458295Y-112228872D01*
X228468592Y-112225124D01*
X228513951Y-112203973D01*
X228584142Y-112193312D01*
X228648955Y-112222292D01*
X228687811Y-112281712D01*
X228693200Y-112318168D01*
X228693200Y-112404941D01*
X228673198Y-112473062D01*
X228639470Y-112508154D01*
X228494178Y-112609888D01*
X228494172Y-112609893D01*
X228489662Y-112613051D01*
X228333951Y-112768762D01*
X228330794Y-112773270D01*
X228330792Y-112773273D01*
X228212648Y-112942000D01*
X228207644Y-112949147D01*
X228205321Y-112954129D01*
X228205318Y-112954134D01*
X228145619Y-113082160D01*
X228098702Y-113135445D01*
X228030424Y-113154906D01*
X227962464Y-113134364D01*
X227917229Y-113082160D01*
X227857646Y-112954383D01*
X227852166Y-112944893D01*
X227823289Y-112903651D01*
X227812813Y-112895277D01*
X227799366Y-112902345D01*
X227133721Y-113567989D01*
X227126108Y-113581932D01*
X227126239Y-113583766D01*
X227130490Y-113590380D01*
X227800091Y-114259980D01*
X227811861Y-114266407D01*
X227823876Y-114257111D01*
X227852166Y-114216707D01*
X227857646Y-114207217D01*
X227917229Y-114079440D01*
X227964146Y-114026155D01*
X228032424Y-114006694D01*
X228100384Y-114027236D01*
X228145619Y-114079440D01*
X228205318Y-114207466D01*
X228205321Y-114207471D01*
X228207644Y-114212453D01*
X228210800Y-114216960D01*
X228210801Y-114216962D01*
X228321823Y-114375517D01*
X228333951Y-114392838D01*
X228489662Y-114548549D01*
X228494171Y-114551706D01*
X228494173Y-114551708D01*
X228531015Y-114577505D01*
X228670046Y-114674856D01*
X228869624Y-114767920D01*
X229082329Y-114824915D01*
X229301700Y-114844107D01*
X229521071Y-114824915D01*
X229733776Y-114767920D01*
X229933354Y-114674856D01*
X230072385Y-114577505D01*
X230109227Y-114551708D01*
X230109229Y-114551706D01*
X230113738Y-114548549D01*
X230269449Y-114392838D01*
X230281578Y-114375517D01*
X230392599Y-114216962D01*
X230392600Y-114216960D01*
X230395756Y-114212453D01*
X230398079Y-114207471D01*
X230398082Y-114207466D01*
X230457505Y-114080031D01*
X230504422Y-114026746D01*
X230572699Y-114007285D01*
X230640659Y-114027827D01*
X230685895Y-114080031D01*
X230745318Y-114207466D01*
X230745321Y-114207471D01*
X230747644Y-114212453D01*
X230750800Y-114216960D01*
X230750801Y-114216962D01*
X230861823Y-114375517D01*
X230873951Y-114392838D01*
X231029662Y-114548549D01*
X231034171Y-114551706D01*
X231034173Y-114551708D01*
X231071015Y-114577505D01*
X231210046Y-114674856D01*
X231409624Y-114767920D01*
X231622329Y-114824915D01*
X231841700Y-114844107D01*
X232061071Y-114824915D01*
X232273776Y-114767920D01*
X232473354Y-114674856D01*
X232612385Y-114577505D01*
X232649227Y-114551708D01*
X232649229Y-114551706D01*
X232653738Y-114548549D01*
X232809449Y-114392838D01*
X232813583Y-114386934D01*
X239990700Y-114386934D01*
X239997455Y-114449116D01*
X240048585Y-114585505D01*
X240135939Y-114702061D01*
X240252495Y-114789415D01*
X240388884Y-114840545D01*
X240451066Y-114847300D01*
X242047334Y-114847300D01*
X242109516Y-114840545D01*
X242245905Y-114789415D01*
X242362461Y-114702061D01*
X242409752Y-114638961D01*
X243103593Y-114638961D01*
X243112887Y-114650975D01*
X243153288Y-114679264D01*
X243162784Y-114684747D01*
X243352313Y-114773126D01*
X243362605Y-114776872D01*
X243564601Y-114830996D01*
X243575396Y-114832899D01*
X243783725Y-114851126D01*
X243794675Y-114851126D01*
X244003004Y-114832899D01*
X244013799Y-114830996D01*
X244215795Y-114776872D01*
X244226087Y-114773126D01*
X244415616Y-114684747D01*
X244425112Y-114679264D01*
X244466348Y-114650390D01*
X244474723Y-114639912D01*
X244467657Y-114626468D01*
X243802011Y-113960821D01*
X243788068Y-113953208D01*
X243786234Y-113953339D01*
X243779620Y-113957590D01*
X243110020Y-114627191D01*
X243103593Y-114638961D01*
X242409752Y-114638961D01*
X242449815Y-114585505D01*
X242500945Y-114449116D01*
X242507700Y-114386934D01*
X242507700Y-114351506D01*
X242527702Y-114283385D01*
X242581358Y-114236892D01*
X242651632Y-114226788D01*
X242713232Y-114254921D01*
X242713459Y-114254637D01*
X242714590Y-114255541D01*
X242716212Y-114256282D01*
X242718008Y-114258273D01*
X242738086Y-114274323D01*
X242751535Y-114267254D01*
X243789200Y-113229590D01*
X244468378Y-112550411D01*
X244474806Y-112538639D01*
X244465510Y-112526624D01*
X244425112Y-112498336D01*
X244415616Y-112492853D01*
X244226087Y-112404474D01*
X244215795Y-112400728D01*
X244013799Y-112346604D01*
X244003004Y-112344701D01*
X243794675Y-112326474D01*
X243783725Y-112326474D01*
X243575396Y-112344701D01*
X243564601Y-112346604D01*
X243362605Y-112400728D01*
X243352313Y-112404474D01*
X243311122Y-112423682D01*
X243240931Y-112434343D01*
X243176118Y-112405363D01*
X243137261Y-112345944D01*
X243133243Y-112318762D01*
X243132950Y-112318801D01*
X243130953Y-112303628D01*
X243128778Y-112287107D01*
X243127700Y-112270664D01*
X243127700Y-112224660D01*
X243147702Y-112156539D01*
X243181429Y-112121447D01*
X243213542Y-112098961D01*
X244373593Y-112098961D01*
X244382887Y-112110975D01*
X244423288Y-112139264D01*
X244432784Y-112144747D01*
X244622313Y-112233126D01*
X244632605Y-112236872D01*
X244834601Y-112290996D01*
X244845396Y-112292899D01*
X245053725Y-112311126D01*
X245064675Y-112311126D01*
X245273004Y-112292899D01*
X245283799Y-112290996D01*
X245485795Y-112236872D01*
X245496087Y-112233126D01*
X245685616Y-112144747D01*
X245695112Y-112139264D01*
X245736348Y-112110390D01*
X245744723Y-112099912D01*
X245737657Y-112086468D01*
X245072011Y-111420821D01*
X245058068Y-111413208D01*
X245056234Y-111413339D01*
X245049620Y-111417590D01*
X244380020Y-112087191D01*
X244373593Y-112098961D01*
X243213542Y-112098961D01*
X243326727Y-112019708D01*
X243326729Y-112019706D01*
X243331238Y-112016549D01*
X243486949Y-111860838D01*
X243492910Y-111852326D01*
X243610099Y-111684962D01*
X243610100Y-111684960D01*
X243613256Y-111680453D01*
X243615579Y-111675471D01*
X243615582Y-111675466D01*
X243675281Y-111547440D01*
X243722198Y-111494155D01*
X243790476Y-111474694D01*
X243858436Y-111495236D01*
X243903671Y-111547440D01*
X243963254Y-111675217D01*
X243968734Y-111684707D01*
X243997611Y-111725949D01*
X244008087Y-111734323D01*
X244021534Y-111727255D01*
X244687179Y-111061611D01*
X244694792Y-111047668D01*
X244694661Y-111045834D01*
X244690410Y-111039220D01*
X244020809Y-110369620D01*
X244009039Y-110363193D01*
X243997024Y-110372489D01*
X243968734Y-110412893D01*
X243963254Y-110422383D01*
X243903671Y-110550160D01*
X243856754Y-110603445D01*
X243788476Y-110622906D01*
X243720516Y-110602364D01*
X243675281Y-110550160D01*
X243615582Y-110422134D01*
X243615579Y-110422129D01*
X243613256Y-110417147D01*
X243610099Y-110412638D01*
X243490108Y-110241273D01*
X243490106Y-110241270D01*
X243486949Y-110236762D01*
X243331238Y-110081051D01*
X243325379Y-110076948D01*
X243231387Y-110011134D01*
X243150854Y-109954744D01*
X242951276Y-109861680D01*
X242738571Y-109804685D01*
X242519200Y-109785493D01*
X242299829Y-109804685D01*
X242087124Y-109861680D01*
X242041901Y-109882768D01*
X241892534Y-109952418D01*
X241892529Y-109952421D01*
X241887547Y-109954744D01*
X241883040Y-109957900D01*
X241883038Y-109957901D01*
X241711673Y-110077892D01*
X241711670Y-110077894D01*
X241707162Y-110081051D01*
X241551451Y-110236762D01*
X241548294Y-110241270D01*
X241548292Y-110241273D01*
X241428301Y-110412638D01*
X241425144Y-110417147D01*
X241422821Y-110422129D01*
X241422818Y-110422134D01*
X241375615Y-110523362D01*
X241332080Y-110616724D01*
X241275085Y-110829429D01*
X241255893Y-111048800D01*
X241275085Y-111268171D01*
X241332080Y-111480876D01*
X241363119Y-111547440D01*
X241422818Y-111675466D01*
X241422821Y-111675471D01*
X241425144Y-111680453D01*
X241428300Y-111684960D01*
X241428301Y-111684962D01*
X241545491Y-111852326D01*
X241551451Y-111860838D01*
X241707162Y-112016549D01*
X241711667Y-112019703D01*
X241711670Y-112019706D01*
X241711673Y-112019708D01*
X241733399Y-112034921D01*
X241777727Y-112090376D01*
X241785036Y-112160995D01*
X241750223Y-112227228D01*
X241684056Y-112293395D01*
X241621744Y-112327421D01*
X241594961Y-112330300D01*
X240451066Y-112330300D01*
X240388884Y-112337055D01*
X240252495Y-112388185D01*
X240135939Y-112475539D01*
X240048585Y-112592095D01*
X239997455Y-112728484D01*
X239990700Y-112790666D01*
X239990700Y-114386934D01*
X232813583Y-114386934D01*
X232821578Y-114375517D01*
X232932599Y-114216962D01*
X232932600Y-114216960D01*
X232935756Y-114212453D01*
X232938079Y-114207471D01*
X232938082Y-114207466D01*
X233021848Y-114027827D01*
X233028820Y-114012876D01*
X233085815Y-113800171D01*
X233105007Y-113580800D01*
X233085815Y-113361429D01*
X233028820Y-113148724D01*
X232971320Y-113025414D01*
X232938082Y-112954134D01*
X232938079Y-112954129D01*
X232935756Y-112949147D01*
X232930752Y-112942000D01*
X232812608Y-112773273D01*
X232812606Y-112773270D01*
X232809449Y-112768762D01*
X232653738Y-112613051D01*
X232613548Y-112584909D01*
X232503929Y-112508153D01*
X232459601Y-112452696D01*
X232450200Y-112404940D01*
X232450200Y-112318719D01*
X232470202Y-112250598D01*
X232523858Y-112204105D01*
X232594132Y-112194001D01*
X232629449Y-112204524D01*
X232674634Y-112225594D01*
X232674642Y-112225597D01*
X232679624Y-112227920D01*
X232892329Y-112284915D01*
X233111700Y-112304107D01*
X233331071Y-112284915D01*
X233543776Y-112227920D01*
X233743354Y-112134856D01*
X233886078Y-112034919D01*
X233919227Y-112011708D01*
X233919229Y-112011706D01*
X233923738Y-112008549D01*
X234079449Y-111852838D01*
X234083898Y-111846485D01*
X234202599Y-111676962D01*
X234202600Y-111676960D01*
X234205756Y-111672453D01*
X234208079Y-111667471D01*
X234208082Y-111667466D01*
X234291848Y-111487827D01*
X234298820Y-111472876D01*
X234355815Y-111260171D01*
X234375007Y-111040800D01*
X234355815Y-110821429D01*
X234298820Y-110608724D01*
X234233344Y-110468310D01*
X234208082Y-110414134D01*
X234208079Y-110414129D01*
X234205756Y-110409147D01*
X234202600Y-110404640D01*
X234202599Y-110404638D01*
X234082608Y-110233273D01*
X234082606Y-110233270D01*
X234079449Y-110228762D01*
X233923738Y-110073051D01*
X233822852Y-110002409D01*
X233764205Y-109961344D01*
X233719877Y-109905887D01*
X233711554Y-109874578D01*
X233706591Y-109836880D01*
X233706590Y-109836878D01*
X233704538Y-109821290D01*
X233704538Y-109821289D01*
X233643224Y-109673264D01*
X233570177Y-109578068D01*
X233570174Y-109578065D01*
X233545687Y-109546153D01*
X233539132Y-109541123D01*
X233520321Y-109526688D01*
X233507930Y-109515821D01*
X233066184Y-109074075D01*
X233032158Y-109011763D01*
X233037223Y-108940948D01*
X233079770Y-108884112D01*
X233146290Y-108859301D01*
X233155279Y-108858980D01*
X244496641Y-108858980D01*
X244564762Y-108878982D01*
X244585736Y-108895885D01*
X245271005Y-109581154D01*
X245305031Y-109643466D01*
X245299966Y-109714281D01*
X245257419Y-109771117D01*
X245190899Y-109795928D01*
X245170928Y-109795770D01*
X245064675Y-109786474D01*
X245053725Y-109786474D01*
X244845396Y-109804701D01*
X244834601Y-109806604D01*
X244632605Y-109860728D01*
X244622313Y-109864474D01*
X244432783Y-109952854D01*
X244423293Y-109958334D01*
X244382051Y-109987211D01*
X244373677Y-109997687D01*
X244380745Y-110011134D01*
X245059200Y-110689590D01*
X246097588Y-111727977D01*
X246109362Y-111734406D01*
X246121376Y-111725110D01*
X246149666Y-111684707D01*
X246155146Y-111675217D01*
X246214729Y-111547440D01*
X246261646Y-111494155D01*
X246329924Y-111474694D01*
X246397884Y-111495236D01*
X246443119Y-111547440D01*
X246502818Y-111675466D01*
X246502821Y-111675471D01*
X246505144Y-111680453D01*
X246508300Y-111684960D01*
X246508301Y-111684962D01*
X246625491Y-111852326D01*
X246631451Y-111860838D01*
X246787162Y-112016549D01*
X246967546Y-112142856D01*
X247167124Y-112235920D01*
X247379829Y-112292915D01*
X247599200Y-112312107D01*
X247818571Y-112292915D01*
X248031276Y-112235920D01*
X248036258Y-112233597D01*
X248036266Y-112233594D01*
X248081451Y-112212524D01*
X248151643Y-112201863D01*
X248216455Y-112230844D01*
X248255311Y-112290264D01*
X248260700Y-112326719D01*
X248260700Y-112412941D01*
X248240698Y-112481062D01*
X248206970Y-112516154D01*
X248061678Y-112617888D01*
X248061672Y-112617893D01*
X248057162Y-112621051D01*
X247901451Y-112776762D01*
X247898294Y-112781270D01*
X247898292Y-112781273D01*
X247778539Y-112952298D01*
X247775144Y-112957147D01*
X247772821Y-112962129D01*
X247772818Y-112962134D01*
X247713395Y-113089569D01*
X247666478Y-113142854D01*
X247598201Y-113162315D01*
X247530241Y-113141773D01*
X247485005Y-113089569D01*
X247425582Y-112962134D01*
X247425579Y-112962129D01*
X247423256Y-112957147D01*
X247419861Y-112952298D01*
X247300108Y-112781273D01*
X247300106Y-112781270D01*
X247296949Y-112776762D01*
X247141238Y-112621051D01*
X247135379Y-112616948D01*
X247040354Y-112550411D01*
X246960854Y-112494744D01*
X246761276Y-112401680D01*
X246548571Y-112344685D01*
X246329200Y-112325493D01*
X246109829Y-112344685D01*
X245897124Y-112401680D01*
X245827078Y-112434343D01*
X245702534Y-112492418D01*
X245702529Y-112492421D01*
X245697547Y-112494744D01*
X245693040Y-112497900D01*
X245693038Y-112497901D01*
X245521673Y-112617892D01*
X245521670Y-112617894D01*
X245517162Y-112621051D01*
X245361451Y-112776762D01*
X245358294Y-112781270D01*
X245358292Y-112781273D01*
X245238539Y-112952298D01*
X245235144Y-112957147D01*
X245232821Y-112962129D01*
X245232818Y-112962134D01*
X245173119Y-113090160D01*
X245126202Y-113143445D01*
X245057924Y-113162906D01*
X244989964Y-113142364D01*
X244944729Y-113090160D01*
X244885146Y-112962383D01*
X244879666Y-112952893D01*
X244850789Y-112911651D01*
X244840313Y-112903277D01*
X244826866Y-112910345D01*
X244161221Y-113575989D01*
X244153608Y-113589932D01*
X244153739Y-113591766D01*
X244157990Y-113598380D01*
X244827591Y-114267980D01*
X244839361Y-114274407D01*
X244851376Y-114265111D01*
X244879666Y-114224707D01*
X244885146Y-114215217D01*
X244944729Y-114087440D01*
X244991646Y-114034155D01*
X245059924Y-114014694D01*
X245127884Y-114035236D01*
X245173119Y-114087440D01*
X245232818Y-114215466D01*
X245232821Y-114215471D01*
X245235144Y-114220453D01*
X245238300Y-114224960D01*
X245238301Y-114224962D01*
X245352691Y-114388327D01*
X245361451Y-114400838D01*
X245517162Y-114556549D01*
X245521671Y-114559706D01*
X245521673Y-114559708D01*
X245558515Y-114585505D01*
X245697546Y-114682856D01*
X245897124Y-114775920D01*
X246109829Y-114832915D01*
X246329200Y-114852107D01*
X246548571Y-114832915D01*
X246553885Y-114831491D01*
X246553891Y-114831490D01*
X246607800Y-114817045D01*
X246678776Y-114818734D01*
X246729507Y-114849656D01*
X247026085Y-115146234D01*
X247036952Y-115158625D01*
X247056413Y-115183987D01*
X247062963Y-115189013D01*
X247088321Y-115208471D01*
X247088337Y-115208485D01*
X247137705Y-115246366D01*
X247183524Y-115281524D01*
X247331549Y-115342838D01*
X247339736Y-115343916D01*
X247339737Y-115343916D01*
X247350942Y-115345391D01*
X247382138Y-115349498D01*
X247450515Y-115358500D01*
X247450518Y-115358500D01*
X247450526Y-115358501D01*
X247482211Y-115362672D01*
X247490400Y-115363750D01*
X247522093Y-115359578D01*
X247538536Y-115358500D01*
X251176857Y-115358500D01*
X251193303Y-115359578D01*
X251225000Y-115363751D01*
X251233188Y-115362673D01*
X251264885Y-115358500D01*
X251375662Y-115343916D01*
X251383850Y-115342838D01*
X251531875Y-115281524D01*
X251627070Y-115208478D01*
X251652434Y-115189016D01*
X251652437Y-115189013D01*
X251658987Y-115183987D01*
X251756524Y-115056876D01*
X251817838Y-114908850D01*
X251838751Y-114750000D01*
X251834578Y-114718303D01*
X251833500Y-114701857D01*
X251833500Y-109098136D01*
X251834578Y-109081690D01*
X251837672Y-109058188D01*
X251838750Y-109050000D01*
X251833500Y-109010122D01*
X251833500Y-109010115D01*
X251817838Y-108891150D01*
X251756524Y-108743125D01*
X251707880Y-108679731D01*
X251683477Y-108647928D01*
X251683474Y-108647925D01*
X251658987Y-108616013D01*
X251650411Y-108609432D01*
X251633621Y-108596548D01*
X251621230Y-108585681D01*
X249664315Y-106628766D01*
X249653448Y-106616375D01*
X249639013Y-106597563D01*
X249633987Y-106591013D01*
X249602075Y-106566526D01*
X249602072Y-106566523D01*
X249557712Y-106532484D01*
X249513429Y-106498504D01*
X249513427Y-106498503D01*
X249506876Y-106493476D01*
X249358851Y-106432162D01*
X249350664Y-106431084D01*
X249350663Y-106431084D01*
X249339458Y-106429609D01*
X249308262Y-106425502D01*
X249239885Y-106416500D01*
X249239882Y-106416500D01*
X249239874Y-106416499D01*
X249208189Y-106412328D01*
X249200000Y-106411250D01*
X249168307Y-106415422D01*
X249151864Y-106416500D01*
X232303802Y-106416500D01*
X232235681Y-106396498D01*
X232189188Y-106342842D01*
X232179084Y-106272568D01*
X232182096Y-106257888D01*
X232197690Y-106199691D01*
X232197691Y-106199685D01*
X232199115Y-106194371D01*
X232218307Y-105975000D01*
X232199115Y-105755629D01*
X232142120Y-105542924D01*
X232092239Y-105435954D01*
X232051382Y-105348334D01*
X232051379Y-105348329D01*
X232049056Y-105343347D01*
X232039427Y-105329595D01*
X231925908Y-105167473D01*
X231925906Y-105167470D01*
X231922749Y-105162962D01*
X231767038Y-105007251D01*
X231586654Y-104880944D01*
X231387076Y-104787880D01*
X231174371Y-104730885D01*
X230955000Y-104711693D01*
X230735629Y-104730885D01*
X230522924Y-104787880D01*
X230429562Y-104831415D01*
X230328334Y-104878618D01*
X230328329Y-104878621D01*
X230323347Y-104880944D01*
X230318840Y-104884100D01*
X230318838Y-104884101D01*
X230147473Y-105004092D01*
X230147470Y-105004094D01*
X230142962Y-105007251D01*
X229987251Y-105162962D01*
X229984093Y-105167472D01*
X229984088Y-105167478D01*
X229882354Y-105312770D01*
X229826897Y-105357099D01*
X229779141Y-105366500D01*
X228004239Y-105366500D01*
X227936118Y-105346498D01*
X227915144Y-105329595D01*
X227598405Y-105012856D01*
X227564379Y-104950544D01*
X227561500Y-104923761D01*
X227561500Y-103245658D01*
X227854000Y-103245658D01*
X227858271Y-103260203D01*
X227870302Y-103262248D01*
X227883088Y-103259687D01*
X228022589Y-103215971D01*
X228036334Y-103209765D01*
X228117868Y-103160386D01*
X228186498Y-103142207D01*
X228248411Y-103160386D01*
X228288664Y-103184764D01*
X228302411Y-103190971D01*
X228441912Y-103234687D01*
X228453503Y-103237009D01*
X228467835Y-103234194D01*
X228471000Y-103222298D01*
X228471000Y-102639615D01*
X228466525Y-102624376D01*
X228466473Y-102624331D01*
X228431720Y-102634535D01*
X228421043Y-102641397D01*
X228385548Y-102646500D01*
X227872115Y-102646500D01*
X227856876Y-102650975D01*
X227855671Y-102652365D01*
X227854000Y-102660048D01*
X227854000Y-103245658D01*
X227561500Y-103245658D01*
X227561500Y-102264500D01*
X227581502Y-102196379D01*
X227635158Y-102149886D01*
X227687500Y-102138500D01*
X227848885Y-102138500D01*
X227891579Y-102125964D01*
X227901536Y-102119430D01*
X227901927Y-102119307D01*
X227939737Y-102113500D01*
X228853000Y-102113500D01*
X228921121Y-102133502D01*
X228967614Y-102187158D01*
X228979000Y-102239500D01*
X228979000Y-103220658D01*
X228983271Y-103235203D01*
X228995302Y-103237248D01*
X229008088Y-103234687D01*
X229147589Y-103190971D01*
X229161334Y-103184765D01*
X229285604Y-103109504D01*
X229297473Y-103100197D01*
X229400197Y-102997473D01*
X229409504Y-102985604D01*
X229484765Y-102861334D01*
X229490971Y-102847589D01*
X229508447Y-102791821D01*
X229547904Y-102732799D01*
X229613007Y-102704479D01*
X229628681Y-102703500D01*
X229839114Y-102703500D01*
X230128436Y-102703499D01*
X230131295Y-102703236D01*
X230131303Y-102703236D01*
X230165076Y-102700133D01*
X230197719Y-102697134D01*
X230204222Y-102695096D01*
X230344869Y-102651020D01*
X230344871Y-102651019D01*
X230352118Y-102648748D01*
X230358614Y-102644814D01*
X230358616Y-102644813D01*
X230409729Y-102613858D01*
X230478359Y-102595679D01*
X230540271Y-102613858D01*
X230591384Y-102644813D01*
X230591386Y-102644814D01*
X230597882Y-102648748D01*
X230605129Y-102651019D01*
X230605131Y-102651020D01*
X230633940Y-102660048D01*
X230752281Y-102697134D01*
X230821563Y-102703500D01*
X230847075Y-102703500D01*
X231269324Y-102703499D01*
X231337445Y-102723501D01*
X231383938Y-102777156D01*
X231389155Y-102790559D01*
X231415473Y-102871556D01*
X231418776Y-102877278D01*
X231418777Y-102877279D01*
X231428826Y-102894684D01*
X231510960Y-103036944D01*
X231515378Y-103041851D01*
X231515379Y-103041852D01*
X231627064Y-103165891D01*
X231638747Y-103178866D01*
X231793248Y-103291118D01*
X231799276Y-103293802D01*
X231799278Y-103293803D01*
X231961681Y-103366109D01*
X231967712Y-103368794D01*
X232061113Y-103388647D01*
X232148056Y-103407128D01*
X232148061Y-103407128D01*
X232154513Y-103408500D01*
X232345487Y-103408500D01*
X232351939Y-103407128D01*
X232351944Y-103407128D01*
X232438888Y-103388647D01*
X232532288Y-103368794D01*
X232538319Y-103366109D01*
X232700722Y-103293803D01*
X232700724Y-103293802D01*
X232706752Y-103291118D01*
X232861253Y-103178866D01*
X232872936Y-103165891D01*
X232984621Y-103041852D01*
X232984622Y-103041851D01*
X232989040Y-103036944D01*
X233071174Y-102894684D01*
X233081223Y-102877279D01*
X233081224Y-102877278D01*
X233084527Y-102871556D01*
X233143542Y-102689928D01*
X233146683Y-102660048D01*
X233162814Y-102506565D01*
X233163504Y-102500000D01*
X233158303Y-102450518D01*
X233144232Y-102316635D01*
X233144232Y-102316633D01*
X233143542Y-102310072D01*
X233084527Y-102128444D01*
X233068394Y-102100500D01*
X233036793Y-102045767D01*
X232989040Y-101963056D01*
X232983730Y-101957158D01*
X232865675Y-101826045D01*
X232865674Y-101826044D01*
X232861253Y-101821134D01*
X232799181Y-101776036D01*
X232755827Y-101719814D01*
X232749752Y-101649078D01*
X232782883Y-101586286D01*
X232844703Y-101551374D01*
X232873242Y-101548100D01*
X239065361Y-101548100D01*
X239133482Y-101568102D01*
G37*
%TD.AperFunction*%
%TA.AperFunction,Conductor*%
G36*
X214263307Y-109411923D02*
G01*
X214266862Y-109414651D01*
X214279250Y-109425516D01*
X214785685Y-109931951D01*
X214796552Y-109944342D01*
X214816013Y-109969704D01*
X214847925Y-109994191D01*
X214847928Y-109994194D01*
X214943124Y-110067241D01*
X214950753Y-110070401D01*
X214957908Y-110074532D01*
X214956950Y-110076191D01*
X215004001Y-110114111D01*
X215026419Y-110181476D01*
X215008858Y-110250266D01*
X215003716Y-110258232D01*
X214898044Y-110409147D01*
X214895721Y-110414129D01*
X214895718Y-110414134D01*
X214875702Y-110457060D01*
X214837083Y-110539880D01*
X214836295Y-110541569D01*
X214789378Y-110594854D01*
X214721101Y-110614315D01*
X214653141Y-110593773D01*
X214607905Y-110541569D01*
X214607118Y-110539880D01*
X214568498Y-110457060D01*
X214548482Y-110414134D01*
X214548479Y-110414129D01*
X214546156Y-110409147D01*
X214543000Y-110404640D01*
X214542999Y-110404638D01*
X214423008Y-110233273D01*
X214423006Y-110233270D01*
X214419849Y-110228762D01*
X214264138Y-110073051D01*
X214163252Y-110002409D01*
X214114329Y-109968153D01*
X214070001Y-109912696D01*
X214060600Y-109864940D01*
X214060600Y-109511883D01*
X214080602Y-109443762D01*
X214134258Y-109397269D01*
X214204532Y-109387165D01*
X214263307Y-109411923D01*
G37*
%TD.AperFunction*%
%TA.AperFunction,Conductor*%
G36*
X218540913Y-103148802D02*
G01*
X218597749Y-103191349D01*
X218622560Y-103257869D01*
X218617115Y-103304537D01*
X218577866Y-103429781D01*
X218571500Y-103499063D01*
X218571500Y-103501961D01*
X218571501Y-103979293D01*
X218551499Y-104047414D01*
X218532778Y-104070170D01*
X218507359Y-104094583D01*
X218504000Y-104107207D01*
X218504000Y-105080500D01*
X218483998Y-105148621D01*
X218430342Y-105195114D01*
X218378000Y-105206500D01*
X217440402Y-105206500D01*
X217425857Y-105210771D01*
X217423794Y-105222904D01*
X217427751Y-105265973D01*
X217430361Y-105279007D01*
X217460544Y-105375321D01*
X217461828Y-105446306D01*
X217424531Y-105506717D01*
X217360494Y-105537373D01*
X217340310Y-105539000D01*
X217099410Y-105539000D01*
X217031289Y-105518998D01*
X216985064Y-105464563D01*
X216984145Y-105461399D01*
X216934939Y-105378196D01*
X216903491Y-105325020D01*
X216903489Y-105325017D01*
X216899453Y-105318193D01*
X216781807Y-105200547D01*
X216672277Y-105135771D01*
X216623827Y-105083881D01*
X216611122Y-105014030D01*
X216638197Y-104948399D01*
X216647324Y-104938225D01*
X217307503Y-104278046D01*
X217369815Y-104244020D01*
X217440630Y-104249085D01*
X217497466Y-104291632D01*
X217522277Y-104358152D01*
X217504374Y-104432412D01*
X217480647Y-104471590D01*
X217474439Y-104485339D01*
X217430363Y-104625989D01*
X217427750Y-104639036D01*
X217423944Y-104680459D01*
X217426866Y-104695336D01*
X217438760Y-104698500D01*
X217977885Y-104698500D01*
X217993124Y-104694025D01*
X217994329Y-104692635D01*
X217996000Y-104684952D01*
X217996000Y-104108847D01*
X217991729Y-104094302D01*
X217979596Y-104092239D01*
X217974027Y-104092751D01*
X217960994Y-104095361D01*
X217820339Y-104139439D01*
X217806590Y-104145647D01*
X217767412Y-104169374D01*
X217698783Y-104187553D01*
X217631219Y-104165743D01*
X217586173Y-104110867D01*
X217577946Y-104040349D01*
X217613046Y-103972503D01*
X218407786Y-103177763D01*
X218470098Y-103143737D01*
X218540913Y-103148802D01*
G37*
%TD.AperFunction*%
%TA.AperFunction,Conductor*%
G36*
X220392012Y-98735515D02*
G01*
X220398595Y-98741644D01*
X220480075Y-98823124D01*
X220514101Y-98885436D01*
X220516980Y-98912219D01*
X220516980Y-101936987D01*
X220496978Y-102005108D01*
X220443322Y-102051601D01*
X220373048Y-102061705D01*
X220316919Y-102038923D01*
X220212094Y-101962763D01*
X220212093Y-101962762D01*
X220206752Y-101958882D01*
X220200724Y-101956198D01*
X220200722Y-101956197D01*
X220038319Y-101883891D01*
X220038318Y-101883891D01*
X220032288Y-101881206D01*
X219988822Y-101871967D01*
X219926349Y-101838239D01*
X219892027Y-101776089D01*
X219896755Y-101705250D01*
X219925924Y-101659625D01*
X219971234Y-101614315D01*
X219983625Y-101603448D01*
X220002437Y-101589013D01*
X220008987Y-101583987D01*
X220033474Y-101552075D01*
X220033478Y-101552071D01*
X220106524Y-101456876D01*
X220167838Y-101308851D01*
X220171307Y-101282500D01*
X220183500Y-101189885D01*
X220183500Y-101189880D01*
X220188750Y-101150000D01*
X220184578Y-101118307D01*
X220183500Y-101101862D01*
X220183500Y-98830739D01*
X220203502Y-98762618D01*
X220257158Y-98716125D01*
X220327432Y-98706021D01*
X220392012Y-98735515D01*
G37*
%TD.AperFunction*%
%TA.AperFunction,Conductor*%
G36*
X217685972Y-97093749D02*
G01*
X217742808Y-97136296D01*
X217767619Y-97202816D01*
X217767940Y-97211805D01*
X217767940Y-100230275D01*
X217747938Y-100298396D01*
X217731035Y-100319370D01*
X217730810Y-100319595D01*
X217668498Y-100353621D01*
X217641715Y-100356500D01*
X210382754Y-100356500D01*
X210314633Y-100336498D01*
X210268140Y-100282842D01*
X210264772Y-100274730D01*
X210246767Y-100226703D01*
X210243615Y-100218295D01*
X210156261Y-100101739D01*
X210039705Y-100014385D01*
X209903316Y-99963255D01*
X209841134Y-99956500D01*
X208542054Y-99956500D01*
X208473933Y-99936498D01*
X208427440Y-99882842D01*
X208417336Y-99812568D01*
X208446830Y-99747988D01*
X208465346Y-99730541D01*
X208494100Y-99708477D01*
X208494103Y-99708474D01*
X208526015Y-99683987D01*
X208545486Y-99658613D01*
X208556344Y-99646233D01*
X209496556Y-98706021D01*
X210457770Y-97744806D01*
X210520082Y-97710781D01*
X210590897Y-97715845D01*
X210647733Y-97758392D01*
X210672128Y-97820292D01*
X210672895Y-97827353D01*
X210676521Y-97842604D01*
X210721676Y-97963054D01*
X210730214Y-97978649D01*
X210806715Y-98080724D01*
X210819276Y-98093285D01*
X210921351Y-98169786D01*
X210936946Y-98178324D01*
X211057394Y-98223478D01*
X211072649Y-98227105D01*
X211123514Y-98232631D01*
X211130328Y-98233000D01*
X211427885Y-98233000D01*
X211443124Y-98228525D01*
X211444329Y-98227135D01*
X211446000Y-98219452D01*
X211446000Y-98214884D01*
X211954000Y-98214884D01*
X211958475Y-98230123D01*
X211959865Y-98231328D01*
X211967548Y-98232999D01*
X212269669Y-98232999D01*
X212276490Y-98232629D01*
X212327352Y-98227105D01*
X212342604Y-98223479D01*
X212463054Y-98178324D01*
X212478649Y-98169786D01*
X212580724Y-98093285D01*
X212593285Y-98080724D01*
X212669786Y-97978649D01*
X212678324Y-97963054D01*
X212723478Y-97842606D01*
X212727105Y-97827351D01*
X212732631Y-97776486D01*
X212733000Y-97769672D01*
X212733000Y-97769669D01*
X214792001Y-97769669D01*
X214792371Y-97776490D01*
X214797895Y-97827352D01*
X214801521Y-97842604D01*
X214846676Y-97963054D01*
X214855214Y-97978649D01*
X214931715Y-98080724D01*
X214944276Y-98093285D01*
X215046351Y-98169786D01*
X215061946Y-98178324D01*
X215182394Y-98223478D01*
X215197649Y-98227105D01*
X215248514Y-98232631D01*
X215255328Y-98233000D01*
X215552885Y-98233000D01*
X215568124Y-98228525D01*
X215569329Y-98227135D01*
X215571000Y-98219452D01*
X215571000Y-98214884D01*
X216079000Y-98214884D01*
X216083475Y-98230123D01*
X216084865Y-98231328D01*
X216092548Y-98232999D01*
X216394669Y-98232999D01*
X216401490Y-98232629D01*
X216452352Y-98227105D01*
X216467604Y-98223479D01*
X216588054Y-98178324D01*
X216603649Y-98169786D01*
X216705724Y-98093285D01*
X216718285Y-98080724D01*
X216794786Y-97978649D01*
X216803324Y-97963054D01*
X216848478Y-97842606D01*
X216852105Y-97827351D01*
X216857631Y-97776486D01*
X216858000Y-97769672D01*
X216858000Y-97672115D01*
X216853525Y-97656876D01*
X216852135Y-97655671D01*
X216844452Y-97654000D01*
X216097115Y-97654000D01*
X216081876Y-97658475D01*
X216080671Y-97659865D01*
X216079000Y-97667548D01*
X216079000Y-98214884D01*
X215571000Y-98214884D01*
X215571000Y-97672115D01*
X215566525Y-97656876D01*
X215565135Y-97655671D01*
X215557452Y-97654000D01*
X214810116Y-97654000D01*
X214794877Y-97658475D01*
X214793672Y-97659865D01*
X214792001Y-97667548D01*
X214792001Y-97769669D01*
X212733000Y-97769669D01*
X212733000Y-97672115D01*
X212728525Y-97656876D01*
X212727135Y-97655671D01*
X212719452Y-97654000D01*
X211972115Y-97654000D01*
X211956876Y-97658475D01*
X211955671Y-97659865D01*
X211954000Y-97667548D01*
X211954000Y-98214884D01*
X211446000Y-98214884D01*
X211446000Y-97484500D01*
X211466002Y-97416379D01*
X211519658Y-97369886D01*
X211572000Y-97358500D01*
X217016870Y-97358500D01*
X217033313Y-97359578D01*
X217065006Y-97363750D01*
X217073195Y-97362672D01*
X217104880Y-97358501D01*
X217104890Y-97358500D01*
X217104891Y-97358500D01*
X217117227Y-97356876D01*
X217204463Y-97345391D01*
X217215670Y-97343916D01*
X217215672Y-97343915D01*
X217223857Y-97342838D01*
X217371882Y-97281524D01*
X217440360Y-97228979D01*
X217467078Y-97208477D01*
X217467081Y-97208474D01*
X217492440Y-97189015D01*
X217498993Y-97183987D01*
X217504023Y-97177432D01*
X217518458Y-97158621D01*
X217529325Y-97146230D01*
X217552845Y-97122710D01*
X217615157Y-97088684D01*
X217685972Y-97093749D01*
G37*
%TD.AperFunction*%
%TA.AperFunction,Conductor*%
G36*
X245833096Y-95250031D02*
G01*
X245889932Y-95292578D01*
X245913986Y-95351642D01*
X245915903Y-95366204D01*
X245916981Y-95382649D01*
X245916980Y-96580275D01*
X245896978Y-96648396D01*
X245880075Y-96669370D01*
X245344850Y-97204595D01*
X245282538Y-97238621D01*
X245255755Y-97241500D01*
X236156722Y-97241500D01*
X236140276Y-97240422D01*
X236053373Y-97228981D01*
X236053371Y-97228981D01*
X236053365Y-97228980D01*
X236053363Y-97228980D01*
X236053354Y-97228979D01*
X236021669Y-97224808D01*
X236013480Y-97223730D01*
X235981787Y-97227902D01*
X235965344Y-97228980D01*
X235946323Y-97228980D01*
X235878202Y-97208978D01*
X235831709Y-97155322D01*
X235821605Y-97085048D01*
X235826089Y-97065301D01*
X235859687Y-96958088D01*
X235862009Y-96946497D01*
X235859194Y-96932165D01*
X235847298Y-96929000D01*
X234864500Y-96929000D01*
X234796379Y-96908998D01*
X234749886Y-96855342D01*
X234738500Y-96803000D01*
X234738500Y-96708060D01*
X234758502Y-96639939D01*
X234812158Y-96593446D01*
X234864500Y-96582060D01*
X244096716Y-96582060D01*
X244113159Y-96583138D01*
X244144852Y-96587310D01*
X244153041Y-96586232D01*
X244184726Y-96582061D01*
X244184736Y-96582060D01*
X244184737Y-96582060D01*
X244198296Y-96580275D01*
X244284887Y-96568875D01*
X244295516Y-96567476D01*
X244295518Y-96567476D01*
X244303703Y-96566398D01*
X244451728Y-96505084D01*
X244546924Y-96432037D01*
X244546927Y-96432034D01*
X244578839Y-96407547D01*
X244583869Y-96400992D01*
X244598304Y-96382181D01*
X244609171Y-96369790D01*
X245699969Y-95278992D01*
X245762281Y-95244966D01*
X245833096Y-95250031D01*
G37*
%TD.AperFunction*%
%TA.AperFunction,Conductor*%
G36*
X211773261Y-76728002D02*
G01*
X211819754Y-76781658D01*
X211829858Y-76851932D01*
X211800364Y-76916512D01*
X211794235Y-76923095D01*
X211748803Y-76968527D01*
X211739496Y-76980396D01*
X211664235Y-77104666D01*
X211658029Y-77118411D01*
X211614315Y-77257904D01*
X211611702Y-77270954D01*
X211606463Y-77327962D01*
X211610475Y-77341624D01*
X211611865Y-77342829D01*
X211619548Y-77344500D01*
X213223885Y-77344500D01*
X213239124Y-77340025D01*
X213240329Y-77338635D01*
X213241813Y-77331814D01*
X213241734Y-77330112D01*
X213236298Y-77270954D01*
X213233685Y-77257904D01*
X213189971Y-77118411D01*
X213183765Y-77104666D01*
X213108504Y-76980396D01*
X213099197Y-76968527D01*
X213053765Y-76923095D01*
X213019739Y-76860783D01*
X213024804Y-76789968D01*
X213067351Y-76733132D01*
X213133871Y-76708321D01*
X213142860Y-76708000D01*
X253366000Y-76708000D01*
X253434121Y-76728002D01*
X253480614Y-76781658D01*
X253492000Y-76834000D01*
X253492000Y-77109096D01*
X253471998Y-77177217D01*
X253418342Y-77223710D01*
X253348068Y-77233814D01*
X253336850Y-77231678D01*
X253329350Y-77229894D01*
X253278486Y-77224369D01*
X253271672Y-77224000D01*
X252244115Y-77224000D01*
X252228876Y-77228475D01*
X252227671Y-77229865D01*
X252226000Y-77237548D01*
X252226000Y-79221884D01*
X252230475Y-79237123D01*
X252231865Y-79238328D01*
X252239548Y-79239999D01*
X253271669Y-79239999D01*
X253278490Y-79239629D01*
X253329350Y-79234105D01*
X253336855Y-79232321D01*
X253407755Y-79236024D01*
X253465398Y-79277470D01*
X253491483Y-79343501D01*
X253492000Y-79354904D01*
X253492000Y-82188577D01*
X253471998Y-82256698D01*
X253418342Y-82303191D01*
X253348068Y-82313295D01*
X253342697Y-82312272D01*
X253337316Y-82310255D01*
X253275134Y-82303500D01*
X250668866Y-82303500D01*
X250606684Y-82310255D01*
X250470295Y-82361385D01*
X250353739Y-82448739D01*
X250266385Y-82565295D01*
X250263233Y-82573703D01*
X250245228Y-82621730D01*
X250202586Y-82678495D01*
X250136024Y-82703194D01*
X250127246Y-82703500D01*
X248307736Y-82703500D01*
X248291293Y-82702422D01*
X248259600Y-82698250D01*
X248251411Y-82699328D01*
X248219726Y-82703499D01*
X248219717Y-82703500D01*
X248219715Y-82703500D01*
X248219709Y-82703501D01*
X248219707Y-82703501D01*
X248121479Y-82716433D01*
X248108937Y-82718084D01*
X248108936Y-82718084D01*
X248100749Y-82719162D01*
X247952724Y-82780476D01*
X247946173Y-82785503D01*
X247946171Y-82785504D01*
X247914588Y-82809739D01*
X247857528Y-82853523D01*
X247857525Y-82853526D01*
X247825613Y-82878013D01*
X247820583Y-82884568D01*
X247806148Y-82903379D01*
X247795281Y-82915770D01*
X245584875Y-85126176D01*
X245522563Y-85160202D01*
X245451748Y-85155137D01*
X245394912Y-85112590D01*
X245370101Y-85046070D01*
X245369780Y-85037081D01*
X245369780Y-84976959D01*
X245389782Y-84908838D01*
X245406685Y-84887864D01*
X248477144Y-81817405D01*
X248539456Y-81783379D01*
X248566239Y-81780500D01*
X249965134Y-81780500D01*
X250027316Y-81773745D01*
X250163705Y-81722615D01*
X250280261Y-81635261D01*
X250367615Y-81518705D01*
X250418745Y-81382316D01*
X250425500Y-81320134D01*
X250425500Y-80223866D01*
X250418745Y-80161684D01*
X250367615Y-80025295D01*
X250280261Y-79908739D01*
X250163705Y-79821385D01*
X250027316Y-79770255D01*
X249965134Y-79763500D01*
X247358866Y-79763500D01*
X247296684Y-79770255D01*
X247160295Y-79821385D01*
X247043739Y-79908739D01*
X246956385Y-80025295D01*
X246905255Y-80161684D01*
X246898500Y-80223866D01*
X246898500Y-81320134D01*
X246905255Y-81382316D01*
X246928710Y-81444882D01*
X246954728Y-81514285D01*
X246959911Y-81585093D01*
X246925841Y-81647610D01*
X244365046Y-84208405D01*
X244352655Y-84219272D01*
X244327293Y-84238733D01*
X244302806Y-84270645D01*
X244302803Y-84270648D01*
X244229756Y-84365844D01*
X244168812Y-84512976D01*
X244168442Y-84513870D01*
X244152780Y-84632835D01*
X244152780Y-84632840D01*
X244147530Y-84672720D01*
X244151065Y-84699568D01*
X244151702Y-84704410D01*
X244152780Y-84720856D01*
X244152780Y-93313281D01*
X244132778Y-93381402D01*
X244115875Y-93402376D01*
X243413656Y-94104595D01*
X243351344Y-94138621D01*
X243324561Y-94141500D01*
X232710342Y-94141500D01*
X232693896Y-94140422D01*
X232670394Y-94137328D01*
X232662206Y-94136250D01*
X232654018Y-94137328D01*
X232622335Y-94141499D01*
X232622326Y-94141500D01*
X232622321Y-94141500D01*
X232503356Y-94157162D01*
X232355331Y-94218476D01*
X232340740Y-94229672D01*
X232292838Y-94266429D01*
X232289203Y-94269218D01*
X232222982Y-94294818D01*
X232153434Y-94280553D01*
X232102638Y-94230952D01*
X232086777Y-94170316D01*
X232086769Y-94170317D01*
X232086766Y-94170277D01*
X232086499Y-94169255D01*
X232086499Y-94162076D01*
X232083791Y-94141500D01*
X232072881Y-94058629D01*
X232071803Y-94050439D01*
X232069125Y-94043974D01*
X232069125Y-93980026D01*
X232071803Y-93973561D01*
X232086500Y-93861925D01*
X232086499Y-93662076D01*
X232087474Y-93662076D01*
X232102021Y-93597098D01*
X232112280Y-93581444D01*
X232116898Y-93575426D01*
X232116898Y-93575425D01*
X232121924Y-93568876D01*
X232125571Y-93560072D01*
X232180078Y-93428480D01*
X232180079Y-93428477D01*
X232183238Y-93420850D01*
X232204151Y-93262000D01*
X232183238Y-93103150D01*
X232121924Y-92955125D01*
X232116899Y-92948577D01*
X232116896Y-92948571D01*
X232112278Y-92942553D01*
X232086680Y-92876332D01*
X232086551Y-92861925D01*
X232086500Y-92861925D01*
X232086500Y-92838495D01*
X232086499Y-92765024D01*
X232106500Y-92696905D01*
X232160156Y-92650412D01*
X232224027Y-92639554D01*
X232266968Y-92643500D01*
X232683032Y-92643500D01*
X232751801Y-92637181D01*
X232801711Y-92621540D01*
X232872694Y-92620255D01*
X232933105Y-92657552D01*
X232948507Y-92678773D01*
X233010960Y-92786944D01*
X233015378Y-92791851D01*
X233015379Y-92791852D01*
X233134325Y-92923955D01*
X233138747Y-92928866D01*
X233293248Y-93041118D01*
X233299276Y-93043802D01*
X233299278Y-93043803D01*
X233443668Y-93108089D01*
X233467712Y-93118794D01*
X233561112Y-93138647D01*
X233648056Y-93157128D01*
X233648061Y-93157128D01*
X233654513Y-93158500D01*
X233845487Y-93158500D01*
X233851939Y-93157128D01*
X233851944Y-93157128D01*
X233938888Y-93138647D01*
X234032288Y-93118794D01*
X234056332Y-93108089D01*
X234200722Y-93043803D01*
X234200724Y-93043802D01*
X234206752Y-93041118D01*
X234361253Y-92928866D01*
X234365675Y-92923955D01*
X234484621Y-92791852D01*
X234484622Y-92791851D01*
X234489040Y-92786944D01*
X234584527Y-92621556D01*
X234643542Y-92439928D01*
X234652229Y-92357281D01*
X234662814Y-92256565D01*
X234663504Y-92250000D01*
X234653212Y-92152075D01*
X234644232Y-92066635D01*
X234644232Y-92066633D01*
X234643542Y-92060072D01*
X234584527Y-91878444D01*
X234570282Y-91853770D01*
X234509303Y-91748153D01*
X234489040Y-91713056D01*
X234448707Y-91668261D01*
X234365675Y-91576045D01*
X234365674Y-91576044D01*
X234361253Y-91571134D01*
X234231300Y-91476717D01*
X234212094Y-91462763D01*
X234212093Y-91462762D01*
X234206752Y-91458882D01*
X234200724Y-91456198D01*
X234200722Y-91456197D01*
X234038319Y-91383891D01*
X234038318Y-91383891D01*
X234032288Y-91381206D01*
X233916202Y-91356531D01*
X233851944Y-91342872D01*
X233851939Y-91342872D01*
X233845487Y-91341500D01*
X233754667Y-91341500D01*
X233686546Y-91321498D01*
X233677966Y-91315464D01*
X233669578Y-91309028D01*
X233669572Y-91309023D01*
X233580929Y-91241004D01*
X233580927Y-91241003D01*
X233574376Y-91235976D01*
X233426351Y-91174662D01*
X233418164Y-91173584D01*
X233418163Y-91173584D01*
X233398192Y-91170955D01*
X233378245Y-91168329D01*
X233313318Y-91139605D01*
X233274227Y-91080339D01*
X233274458Y-91005729D01*
X233284686Y-90973090D01*
X233287298Y-90960046D01*
X233292537Y-90903038D01*
X233288525Y-90889376D01*
X233287135Y-90888171D01*
X233279452Y-90886500D01*
X232347000Y-90886500D01*
X232278879Y-90866498D01*
X232232386Y-90812842D01*
X232221000Y-90760500D01*
X232221000Y-90360385D01*
X232729000Y-90360385D01*
X232733475Y-90375624D01*
X232734865Y-90376829D01*
X232742548Y-90378500D01*
X233274885Y-90378500D01*
X233290124Y-90374025D01*
X233291329Y-90372635D01*
X233292813Y-90365814D01*
X233292734Y-90364112D01*
X233287298Y-90304954D01*
X233284685Y-90291904D01*
X233240971Y-90152411D01*
X233234765Y-90138666D01*
X233159504Y-90014396D01*
X233150197Y-90002527D01*
X233047473Y-89899803D01*
X233035604Y-89890496D01*
X232911334Y-89815235D01*
X232897589Y-89809029D01*
X232758088Y-89765313D01*
X232746497Y-89762991D01*
X232732165Y-89765806D01*
X232729000Y-89777702D01*
X232729000Y-90360385D01*
X232221000Y-90360385D01*
X232221000Y-89779342D01*
X232216729Y-89764797D01*
X232204698Y-89762752D01*
X232191912Y-89765313D01*
X232119605Y-89787972D01*
X232048620Y-89789256D01*
X231988209Y-89751959D01*
X231957553Y-89687922D01*
X231956455Y-89656206D01*
X231957537Y-89644437D01*
X231953525Y-89630776D01*
X231952135Y-89629571D01*
X231944452Y-89627900D01*
X229792800Y-89627900D01*
X229724679Y-89607898D01*
X229678186Y-89554242D01*
X229666800Y-89501900D01*
X229666800Y-89101785D01*
X230174800Y-89101785D01*
X230179275Y-89117024D01*
X230180665Y-89118229D01*
X230188348Y-89119900D01*
X230867885Y-89119900D01*
X230883124Y-89115425D01*
X230884329Y-89114035D01*
X230886000Y-89106352D01*
X230886000Y-89101785D01*
X231394000Y-89101785D01*
X231398475Y-89117024D01*
X231399865Y-89118229D01*
X231407548Y-89119900D01*
X231939885Y-89119900D01*
X231955124Y-89115425D01*
X231956329Y-89114035D01*
X231957813Y-89107214D01*
X231957734Y-89105512D01*
X231952298Y-89046354D01*
X231949685Y-89033304D01*
X231905971Y-88893811D01*
X231899765Y-88880066D01*
X231824502Y-88755793D01*
X231815197Y-88743927D01*
X231712473Y-88641203D01*
X231700604Y-88631896D01*
X231576334Y-88556635D01*
X231562589Y-88550429D01*
X231423088Y-88506713D01*
X231411497Y-88504391D01*
X231397165Y-88507206D01*
X231394000Y-88519102D01*
X231394000Y-89101785D01*
X230886000Y-89101785D01*
X230886000Y-88520742D01*
X230881729Y-88506197D01*
X230869698Y-88504152D01*
X230856912Y-88506713D01*
X230717411Y-88550429D01*
X230703666Y-88556635D01*
X230595672Y-88622039D01*
X230527042Y-88640218D01*
X230465128Y-88622039D01*
X230357134Y-88556635D01*
X230343389Y-88550429D01*
X230203888Y-88506713D01*
X230192297Y-88504391D01*
X230177965Y-88507206D01*
X230174800Y-88519102D01*
X230174800Y-89101785D01*
X229666800Y-89101785D01*
X229666800Y-88520742D01*
X229662529Y-88506197D01*
X229650498Y-88504152D01*
X229637712Y-88506713D01*
X229498211Y-88550429D01*
X229484466Y-88556635D01*
X229360196Y-88631896D01*
X229348327Y-88641203D01*
X229262951Y-88726579D01*
X229200639Y-88760605D01*
X229129824Y-88755540D01*
X229072988Y-88712993D01*
X229048934Y-88653931D01*
X229047891Y-88646006D01*
X229047890Y-88646004D01*
X229045838Y-88630415D01*
X229045838Y-88630414D01*
X228984524Y-88482389D01*
X228977707Y-88473504D01*
X228912347Y-88388327D01*
X228911477Y-88387193D01*
X228911474Y-88387190D01*
X228886987Y-88355278D01*
X228880432Y-88350248D01*
X228861621Y-88335813D01*
X228849230Y-88324946D01*
X228620023Y-88095739D01*
X228585997Y-88033427D01*
X228591062Y-87962612D01*
X228594281Y-87954794D01*
X228594813Y-87953615D01*
X228598748Y-87947118D01*
X228602419Y-87935406D01*
X228637059Y-87824867D01*
X228647134Y-87792719D01*
X228653500Y-87723437D01*
X228654925Y-87723568D01*
X228676168Y-87661676D01*
X228731863Y-87617646D01*
X228778992Y-87608500D01*
X231854364Y-87608500D01*
X231870807Y-87609578D01*
X231902500Y-87613750D01*
X231910689Y-87612672D01*
X231942374Y-87608501D01*
X231942384Y-87608500D01*
X231942385Y-87608500D01*
X231988256Y-87602461D01*
X232041957Y-87595391D01*
X232053164Y-87593916D01*
X232053166Y-87593915D01*
X232061351Y-87592838D01*
X232209376Y-87531524D01*
X232226617Y-87518295D01*
X232304572Y-87458477D01*
X232304575Y-87458474D01*
X232312121Y-87452684D01*
X232336487Y-87433987D01*
X232341517Y-87427432D01*
X232355952Y-87408621D01*
X232366819Y-87396230D01*
X232397645Y-87365404D01*
X232459957Y-87331378D01*
X232486740Y-87328499D01*
X232653436Y-87328499D01*
X232656295Y-87328236D01*
X232656303Y-87328236D01*
X232690076Y-87325133D01*
X232722719Y-87322134D01*
X232729104Y-87320133D01*
X232869869Y-87276020D01*
X232869871Y-87276019D01*
X232877118Y-87273748D01*
X232883614Y-87269814D01*
X232883616Y-87269813D01*
X232934729Y-87238858D01*
X233003359Y-87220679D01*
X233065271Y-87238858D01*
X233116384Y-87269813D01*
X233116386Y-87269814D01*
X233122882Y-87273748D01*
X233130129Y-87276019D01*
X233130131Y-87276020D01*
X233178309Y-87291118D01*
X233277281Y-87322134D01*
X233346563Y-87328500D01*
X233349461Y-87328500D01*
X233598151Y-87328499D01*
X233848436Y-87328499D01*
X233851295Y-87328236D01*
X233851303Y-87328236D01*
X233885076Y-87325133D01*
X233917719Y-87322134D01*
X233924104Y-87320133D01*
X234064869Y-87276020D01*
X234064871Y-87276019D01*
X234072118Y-87273748D01*
X234108075Y-87251972D01*
X234176704Y-87233793D01*
X234247405Y-87257811D01*
X234293248Y-87291118D01*
X234299276Y-87293802D01*
X234299278Y-87293803D01*
X234460098Y-87365404D01*
X234467712Y-87368794D01*
X234538634Y-87383869D01*
X234648056Y-87407128D01*
X234648061Y-87407128D01*
X234654513Y-87408500D01*
X234845487Y-87408500D01*
X234851939Y-87407128D01*
X234851944Y-87407128D01*
X234961366Y-87383869D01*
X235032288Y-87368794D01*
X235039902Y-87365404D01*
X235200722Y-87293803D01*
X235200724Y-87293802D01*
X235206752Y-87291118D01*
X235361253Y-87178866D01*
X235462306Y-87066635D01*
X235484621Y-87041852D01*
X235484622Y-87041851D01*
X235489040Y-87036944D01*
X235547314Y-86936010D01*
X235581223Y-86877279D01*
X235581224Y-86877278D01*
X235584527Y-86871556D01*
X235643542Y-86689928D01*
X235645047Y-86675615D01*
X235662814Y-86506565D01*
X235663504Y-86500000D01*
X235661044Y-86476595D01*
X235644232Y-86316635D01*
X235644232Y-86316633D01*
X235643542Y-86310072D01*
X235584527Y-86128444D01*
X235576022Y-86113712D01*
X235539034Y-86049648D01*
X235489040Y-85963056D01*
X235472258Y-85944417D01*
X235365675Y-85826045D01*
X235365674Y-85826044D01*
X235361253Y-85821134D01*
X235206752Y-85708882D01*
X235200724Y-85706198D01*
X235200722Y-85706197D01*
X235038319Y-85633891D01*
X235038318Y-85633891D01*
X235032288Y-85631206D01*
X234938887Y-85611353D01*
X234851944Y-85592872D01*
X234851939Y-85592872D01*
X234845487Y-85591500D01*
X234654513Y-85591500D01*
X234648061Y-85592872D01*
X234648056Y-85592872D01*
X234561113Y-85611353D01*
X234467712Y-85631206D01*
X234461682Y-85633891D01*
X234461681Y-85633891D01*
X234299278Y-85706197D01*
X234299276Y-85706198D01*
X234293248Y-85708882D01*
X234247405Y-85742189D01*
X234180540Y-85766046D01*
X234108074Y-85748028D01*
X234072118Y-85726252D01*
X234064871Y-85723981D01*
X234064869Y-85723980D01*
X233985154Y-85698999D01*
X233917719Y-85677866D01*
X233848437Y-85671500D01*
X233845539Y-85671500D01*
X233596849Y-85671501D01*
X233346564Y-85671501D01*
X233343705Y-85671764D01*
X233343697Y-85671764D01*
X233309924Y-85674867D01*
X233277281Y-85677866D01*
X233270903Y-85679865D01*
X233270902Y-85679865D01*
X233130131Y-85723980D01*
X233130129Y-85723981D01*
X233122882Y-85726252D01*
X233116386Y-85730186D01*
X233116384Y-85730187D01*
X233065271Y-85761142D01*
X232996641Y-85779321D01*
X232934729Y-85761142D01*
X232883616Y-85730187D01*
X232883614Y-85730186D01*
X232877118Y-85726252D01*
X232869871Y-85723981D01*
X232869869Y-85723980D01*
X232790154Y-85698999D01*
X232722719Y-85677866D01*
X232653437Y-85671500D01*
X232650539Y-85671500D01*
X232401849Y-85671501D01*
X232151564Y-85671501D01*
X232148705Y-85671764D01*
X232148697Y-85671764D01*
X232114924Y-85674867D01*
X232082281Y-85677866D01*
X232075903Y-85679865D01*
X232075902Y-85679865D01*
X231935131Y-85723980D01*
X231935129Y-85723981D01*
X231927882Y-85726252D01*
X231789482Y-85810070D01*
X231675070Y-85924482D01*
X231591252Y-86062882D01*
X231542866Y-86217281D01*
X231542254Y-86223944D01*
X231537376Y-86277029D01*
X231511225Y-86343034D01*
X231453541Y-86384422D01*
X231411905Y-86391500D01*
X231334735Y-86391500D01*
X231266614Y-86371498D01*
X231220121Y-86317842D01*
X231211098Y-86289790D01*
X231204688Y-86257165D01*
X231192793Y-86254000D01*
X230219500Y-86254000D01*
X230151379Y-86233998D01*
X230104886Y-86180342D01*
X230093500Y-86128000D01*
X230093500Y-85872000D01*
X230113502Y-85803879D01*
X230167158Y-85757386D01*
X230219500Y-85746000D01*
X231191153Y-85746000D01*
X231205698Y-85741729D01*
X231207761Y-85729596D01*
X231207249Y-85724027D01*
X231204639Y-85710994D01*
X231160561Y-85570339D01*
X231154355Y-85556594D01*
X231078467Y-85431289D01*
X231064477Y-85413448D01*
X231066249Y-85412059D01*
X231037576Y-85359550D01*
X231042641Y-85288735D01*
X231085188Y-85231899D01*
X231116467Y-85214785D01*
X231195054Y-85185324D01*
X231210648Y-85176787D01*
X231305458Y-85105731D01*
X231371964Y-85080884D01*
X231418280Y-85086193D01*
X231505691Y-85113250D01*
X231519795Y-85113456D01*
X231523000Y-85106701D01*
X231523000Y-85099924D01*
X232031000Y-85099924D01*
X232034973Y-85113455D01*
X232042768Y-85114575D01*
X232150521Y-85082862D01*
X232161889Y-85078269D01*
X232326154Y-84992393D01*
X232336415Y-84985679D01*
X232480873Y-84869532D01*
X232489632Y-84860954D01*
X232608778Y-84718961D01*
X232615708Y-84708841D01*
X232705002Y-84546415D01*
X232709834Y-84535142D01*
X232765880Y-84358462D01*
X232768430Y-84346468D01*
X232784607Y-84202239D01*
X232785000Y-84195215D01*
X232785000Y-83864115D01*
X232780525Y-83848876D01*
X232779135Y-83847671D01*
X232771452Y-83846000D01*
X232049115Y-83846000D01*
X232033876Y-83850475D01*
X232032671Y-83851865D01*
X232031000Y-83859548D01*
X232031000Y-85099924D01*
X231523000Y-85099924D01*
X231523000Y-83864115D01*
X231518525Y-83848876D01*
X231517135Y-83847671D01*
X231509452Y-83846000D01*
X231077965Y-83846000D01*
X231009844Y-83825998D01*
X230963351Y-83772342D01*
X230953247Y-83702068D01*
X230981744Y-83638930D01*
X230985485Y-83635393D01*
X231004715Y-83607098D01*
X231083442Y-83491255D01*
X231087277Y-83485612D01*
X231114637Y-83417206D01*
X231158504Y-83361387D01*
X231231625Y-83338000D01*
X231504885Y-83338000D01*
X231520124Y-83333525D01*
X231521329Y-83332135D01*
X231523000Y-83324452D01*
X231523000Y-83319885D01*
X232031000Y-83319885D01*
X232035475Y-83335124D01*
X232036865Y-83336329D01*
X232044548Y-83338000D01*
X232766885Y-83338000D01*
X232782124Y-83333525D01*
X232783329Y-83332135D01*
X232785000Y-83324452D01*
X232785000Y-82995343D01*
X232784699Y-82989195D01*
X232771188Y-82851397D01*
X232768805Y-82839362D01*
X232715233Y-82661924D01*
X232710559Y-82650584D01*
X232623540Y-82486923D01*
X232616751Y-82476706D01*
X232499603Y-82333067D01*
X232490959Y-82324363D01*
X232348144Y-82206216D01*
X232337973Y-82199356D01*
X232174924Y-82111196D01*
X232163619Y-82106444D01*
X232048308Y-82070750D01*
X232034205Y-82070544D01*
X232031000Y-82077299D01*
X232031000Y-83319885D01*
X231523000Y-83319885D01*
X231523000Y-82084076D01*
X231519027Y-82070545D01*
X231511232Y-82069425D01*
X231403479Y-82101138D01*
X231392111Y-82105731D01*
X231227846Y-82191607D01*
X231217585Y-82198321D01*
X231073127Y-82314468D01*
X231064366Y-82323047D01*
X231004664Y-82394197D01*
X230945555Y-82433523D01*
X230874567Y-82434649D01*
X230831614Y-82413301D01*
X230786743Y-82378994D01*
X230786739Y-82378991D01*
X230781322Y-82374850D01*
X230745307Y-82358056D01*
X230692022Y-82311139D01*
X230672561Y-82242862D01*
X230673247Y-82230691D01*
X230686221Y-82107250D01*
X230686911Y-82100685D01*
X230683681Y-82069955D01*
X230667639Y-81917320D01*
X230667639Y-81917318D01*
X230666949Y-81910757D01*
X230607934Y-81729129D01*
X230596245Y-81708882D01*
X230564056Y-81653131D01*
X230512447Y-81563741D01*
X230507770Y-81558546D01*
X230389082Y-81426730D01*
X230389081Y-81426729D01*
X230384660Y-81421819D01*
X230230159Y-81309567D01*
X230224131Y-81306883D01*
X230224129Y-81306882D01*
X230061726Y-81234576D01*
X230061725Y-81234576D01*
X230055695Y-81231891D01*
X229962294Y-81212038D01*
X229875351Y-81193557D01*
X229875346Y-81193557D01*
X229868894Y-81192185D01*
X229677920Y-81192185D01*
X229671468Y-81193557D01*
X229671463Y-81193557D01*
X229584520Y-81212038D01*
X229491119Y-81231891D01*
X229485089Y-81234576D01*
X229485088Y-81234576D01*
X229322685Y-81306882D01*
X229322683Y-81306883D01*
X229316655Y-81309567D01*
X229162154Y-81421819D01*
X229157733Y-81426729D01*
X229157732Y-81426730D01*
X229039045Y-81558546D01*
X229034367Y-81563741D01*
X228982758Y-81653131D01*
X228950570Y-81708882D01*
X228938880Y-81729129D01*
X228915118Y-81802262D01*
X228914411Y-81804437D01*
X228874337Y-81863042D01*
X228808941Y-81890679D01*
X228794578Y-81891500D01*
X226730710Y-81891500D01*
X226662589Y-81871498D01*
X226637074Y-81849811D01*
X226615668Y-81826037D01*
X226615666Y-81826036D01*
X226611253Y-81821134D01*
X226555325Y-81780500D01*
X226462094Y-81712763D01*
X226462093Y-81712762D01*
X226456752Y-81708882D01*
X226450724Y-81706198D01*
X226450722Y-81706197D01*
X226288319Y-81633891D01*
X226288318Y-81633891D01*
X226282288Y-81631206D01*
X226173988Y-81608186D01*
X226101944Y-81592872D01*
X226101939Y-81592872D01*
X226095487Y-81591500D01*
X225904513Y-81591500D01*
X225898061Y-81592872D01*
X225898056Y-81592872D01*
X225826012Y-81608186D01*
X225717712Y-81631206D01*
X225711682Y-81633891D01*
X225711681Y-81633891D01*
X225549278Y-81706197D01*
X225549276Y-81706198D01*
X225543248Y-81708882D01*
X225537907Y-81712762D01*
X225537906Y-81712763D01*
X225500723Y-81739778D01*
X225388747Y-81821134D01*
X225384326Y-81826044D01*
X225384325Y-81826045D01*
X225307559Y-81911303D01*
X225260960Y-81963056D01*
X225257659Y-81968774D01*
X225171371Y-82118229D01*
X225165473Y-82128444D01*
X225122749Y-82259936D01*
X225118356Y-82273455D01*
X225078283Y-82332061D01*
X225012886Y-82359698D01*
X224945273Y-82348714D01*
X224843369Y-82301195D01*
X224843366Y-82301194D01*
X224837192Y-82298315D01*
X224830544Y-82296829D01*
X224830541Y-82296828D01*
X224665494Y-82259936D01*
X224665495Y-82259936D01*
X224660457Y-82258810D01*
X224654912Y-82258500D01*
X224521756Y-82258500D01*
X224386963Y-82273143D01*
X224277232Y-82310072D01*
X224221796Y-82328728D01*
X224221794Y-82328729D01*
X224215325Y-82330906D01*
X224068962Y-82418849D01*
X224000273Y-82436788D01*
X223932786Y-82414741D01*
X223906428Y-82390481D01*
X223859603Y-82333067D01*
X223850959Y-82324363D01*
X223708144Y-82206216D01*
X223697973Y-82199356D01*
X223534924Y-82111196D01*
X223523619Y-82106444D01*
X223408308Y-82070750D01*
X223394205Y-82070544D01*
X223391000Y-82077299D01*
X223391000Y-83319885D01*
X223395475Y-83335124D01*
X223396865Y-83336329D01*
X223404548Y-83338000D01*
X223678426Y-83338000D01*
X223746547Y-83358002D01*
X223789883Y-83405235D01*
X223832261Y-83485612D01*
X223871922Y-83560836D01*
X223876327Y-83566049D01*
X223876330Y-83566053D01*
X223930156Y-83629746D01*
X223937413Y-83638333D01*
X223937699Y-83638672D01*
X223966391Y-83703613D01*
X223955418Y-83773756D01*
X223908265Y-83826833D01*
X223841461Y-83846000D01*
X222147115Y-83846000D01*
X222131876Y-83850475D01*
X222130671Y-83851865D01*
X222129000Y-83859548D01*
X222129000Y-84188657D01*
X222129301Y-84194805D01*
X222142812Y-84332603D01*
X222145195Y-84344638D01*
X222198767Y-84522076D01*
X222203441Y-84533416D01*
X222281246Y-84679747D01*
X222295565Y-84749284D01*
X222270017Y-84815525D01*
X222212712Y-84857438D01*
X222169994Y-84864900D01*
X221346371Y-84864900D01*
X221278250Y-84844898D01*
X221257276Y-84827995D01*
X221013405Y-84584124D01*
X220979379Y-84521812D01*
X220976500Y-84495029D01*
X220976500Y-83428707D01*
X220964839Y-83328688D01*
X220963813Y-83319885D01*
X222129000Y-83319885D01*
X222133475Y-83335124D01*
X222134865Y-83336329D01*
X222142548Y-83338000D01*
X222864885Y-83338000D01*
X222880124Y-83333525D01*
X222881329Y-83332135D01*
X222883000Y-83324452D01*
X222883000Y-82084076D01*
X222879027Y-82070545D01*
X222871232Y-82069425D01*
X222763479Y-82101138D01*
X222752111Y-82105731D01*
X222587846Y-82191607D01*
X222577585Y-82198321D01*
X222433127Y-82314468D01*
X222424368Y-82323046D01*
X222305222Y-82465039D01*
X222298292Y-82475159D01*
X222208998Y-82637585D01*
X222204166Y-82648858D01*
X222148120Y-82825538D01*
X222145570Y-82837532D01*
X222129393Y-82981761D01*
X222129000Y-82988785D01*
X222129000Y-83319885D01*
X220963813Y-83319885D01*
X220962030Y-83304589D01*
X220962029Y-83304585D01*
X220961182Y-83297319D01*
X220958686Y-83290443D01*
X220957000Y-83283310D01*
X220957601Y-83283168D01*
X220951500Y-83248484D01*
X220951500Y-83124866D01*
X220944745Y-83062684D01*
X220893615Y-82926295D01*
X220806261Y-82809739D01*
X220689705Y-82722385D01*
X220553316Y-82671255D01*
X220491134Y-82664500D01*
X219944866Y-82664500D01*
X219882684Y-82671255D01*
X219746295Y-82722385D01*
X219629739Y-82809739D01*
X219542385Y-82926295D01*
X219491255Y-83062684D01*
X219484500Y-83124866D01*
X219484500Y-83264079D01*
X219480889Y-83294027D01*
X219479625Y-83299194D01*
X219460192Y-83378610D01*
X219459500Y-83389764D01*
X219459500Y-84794330D01*
X219458067Y-84813280D01*
X219456513Y-84823498D01*
X219454801Y-84834749D01*
X219455394Y-84842041D01*
X219455394Y-84842044D01*
X219459085Y-84887418D01*
X219459500Y-84897633D01*
X219459500Y-84905693D01*
X219459925Y-84909337D01*
X219462789Y-84933907D01*
X219463222Y-84938282D01*
X219467624Y-84992393D01*
X219469140Y-85011037D01*
X219471396Y-85018001D01*
X219472587Y-85023960D01*
X219473971Y-85029815D01*
X219474818Y-85037081D01*
X219499735Y-85105727D01*
X219501152Y-85109855D01*
X219515822Y-85155137D01*
X219523649Y-85179299D01*
X219527445Y-85185554D01*
X219529951Y-85191028D01*
X219532670Y-85196458D01*
X219535167Y-85203337D01*
X219539180Y-85209457D01*
X219539180Y-85209458D01*
X219575186Y-85264376D01*
X219577523Y-85268080D01*
X219615405Y-85330507D01*
X219619121Y-85334715D01*
X219619122Y-85334716D01*
X219622803Y-85338884D01*
X219622776Y-85338908D01*
X219625429Y-85341900D01*
X219628132Y-85345133D01*
X219632144Y-85351252D01*
X219688383Y-85404528D01*
X219690825Y-85406906D01*
X220396230Y-86112311D01*
X220408616Y-86126723D01*
X220417149Y-86138318D01*
X220417154Y-86138323D01*
X220421492Y-86144218D01*
X220427070Y-86148957D01*
X220427073Y-86148960D01*
X220461768Y-86178435D01*
X220469284Y-86185365D01*
X220474674Y-86190755D01*
X220508700Y-86253067D01*
X220503635Y-86323882D01*
X220461088Y-86380718D01*
X220436827Y-86394957D01*
X220299281Y-86456195D01*
X220299274Y-86456199D01*
X220293248Y-86458882D01*
X220287907Y-86462762D01*
X220287906Y-86462763D01*
X220251194Y-86489436D01*
X220177133Y-86513500D01*
X220166950Y-86513500D01*
X220098829Y-86493498D01*
X220077855Y-86476595D01*
X220048807Y-86447547D01*
X220041983Y-86443511D01*
X220041980Y-86443509D01*
X219920215Y-86371498D01*
X219905601Y-86362855D01*
X219897990Y-86360644D01*
X219897988Y-86360643D01*
X219810810Y-86335316D01*
X219745831Y-86316438D01*
X219739426Y-86315934D01*
X219739421Y-86315933D01*
X219710958Y-86313693D01*
X219710950Y-86313693D01*
X219708502Y-86313500D01*
X218275498Y-86313500D01*
X218273050Y-86313693D01*
X218273042Y-86313693D01*
X218244579Y-86315933D01*
X218244574Y-86315934D01*
X218238169Y-86316438D01*
X218231993Y-86318232D01*
X218231989Y-86318233D01*
X218093398Y-86358497D01*
X218058246Y-86363500D01*
X217295582Y-86363500D01*
X217227461Y-86343498D01*
X217206487Y-86326595D01*
X216719412Y-85839520D01*
X216685386Y-85777208D01*
X216690451Y-85706393D01*
X216732998Y-85649557D01*
X216799518Y-85624746D01*
X216821350Y-85625081D01*
X216895440Y-85632672D01*
X216901854Y-85633000D01*
X217151885Y-85633000D01*
X217167124Y-85628525D01*
X217168329Y-85627135D01*
X217170000Y-85619452D01*
X217170000Y-85614884D01*
X217678000Y-85614884D01*
X217682475Y-85630123D01*
X217683865Y-85631328D01*
X217691548Y-85632999D01*
X217946095Y-85632999D01*
X217952614Y-85632662D01*
X218048206Y-85622743D01*
X218061600Y-85619851D01*
X218215784Y-85568412D01*
X218228962Y-85562239D01*
X218366807Y-85476937D01*
X218378208Y-85467901D01*
X218492739Y-85353171D01*
X218501751Y-85341760D01*
X218586816Y-85203757D01*
X218592963Y-85190576D01*
X218644138Y-85036290D01*
X218647005Y-85022914D01*
X218656672Y-84928562D01*
X218657000Y-84922145D01*
X218657000Y-84809615D01*
X218652525Y-84794376D01*
X218651135Y-84793171D01*
X218643452Y-84791500D01*
X217696115Y-84791500D01*
X217680876Y-84795975D01*
X217679671Y-84797365D01*
X217678000Y-84805048D01*
X217678000Y-85614884D01*
X217170000Y-85614884D01*
X217170000Y-84409500D01*
X217190002Y-84341379D01*
X217243658Y-84294886D01*
X217296000Y-84283500D01*
X218638884Y-84283500D01*
X218654123Y-84279025D01*
X218655328Y-84277635D01*
X218656999Y-84269952D01*
X218656999Y-84152905D01*
X218656662Y-84146386D01*
X218646743Y-84050794D01*
X218643851Y-84037400D01*
X218592412Y-83883216D01*
X218586239Y-83870038D01*
X218500937Y-83732193D01*
X218491901Y-83720792D01*
X218377172Y-83606262D01*
X218368238Y-83599206D01*
X218327177Y-83541288D01*
X218323947Y-83470365D01*
X218359574Y-83408954D01*
X218367407Y-83402154D01*
X218373348Y-83398478D01*
X218498305Y-83273303D01*
X218544310Y-83198669D01*
X218587275Y-83128968D01*
X218587276Y-83128966D01*
X218591115Y-83122738D01*
X218646797Y-82954861D01*
X218648863Y-82934703D01*
X218657172Y-82853598D01*
X218657500Y-82850400D01*
X218657500Y-82345000D01*
X218677502Y-82276879D01*
X218731158Y-82230386D01*
X218783500Y-82219000D01*
X220138019Y-82219000D01*
X220158596Y-82220692D01*
X220160737Y-82221046D01*
X220163760Y-82221547D01*
X220163762Y-82221547D01*
X220170497Y-82222662D01*
X220177314Y-82222305D01*
X220177318Y-82222305D01*
X220237071Y-82219173D01*
X220243665Y-82219000D01*
X220263924Y-82219000D01*
X220267310Y-82218632D01*
X220267312Y-82218632D01*
X220269948Y-82218345D01*
X220282400Y-82216993D01*
X220289393Y-82216431D01*
X220354057Y-82213042D01*
X220360637Y-82211229D01*
X220360640Y-82211229D01*
X220367268Y-82209403D01*
X220387122Y-82205616D01*
X220388432Y-82205474D01*
X220400737Y-82204137D01*
X220407204Y-82201961D01*
X220407207Y-82201960D01*
X220448448Y-82188081D01*
X220484348Y-82182202D01*
X220484320Y-82181684D01*
X220487718Y-82181500D01*
X220491134Y-82181500D01*
X220553316Y-82174745D01*
X220689705Y-82123615D01*
X220806261Y-82036261D01*
X220856840Y-81968774D01*
X220888233Y-81926887D01*
X220888235Y-81926884D01*
X220893615Y-81919705D01*
X220914629Y-81863650D01*
X220932514Y-81831351D01*
X220941761Y-81819256D01*
X220945906Y-81813835D01*
X220951694Y-81801423D01*
X220961680Y-81783843D01*
X220961996Y-81783379D01*
X220969379Y-81772515D01*
X220993428Y-81712388D01*
X220996221Y-81705934D01*
X221020706Y-81653426D01*
X221020707Y-81653424D01*
X221023588Y-81647245D01*
X221026578Y-81633869D01*
X221032551Y-81614573D01*
X221037641Y-81601848D01*
X221039565Y-81590229D01*
X221048216Y-81537966D01*
X221049559Y-81531057D01*
X221062425Y-81473500D01*
X221063686Y-81467859D01*
X221064000Y-81462242D01*
X221064000Y-81452981D01*
X221065692Y-81432402D01*
X221066547Y-81427240D01*
X221066547Y-81427238D01*
X221067662Y-81420503D01*
X221066542Y-81399120D01*
X221064173Y-81353929D01*
X221064000Y-81347335D01*
X221064000Y-80059472D01*
X221084002Y-79991351D01*
X221117729Y-79956259D01*
X221177927Y-79914108D01*
X221177929Y-79914106D01*
X221182438Y-79910949D01*
X221334730Y-79758657D01*
X222129000Y-79758657D01*
X222129301Y-79764805D01*
X222142812Y-79902603D01*
X222145195Y-79914638D01*
X222198767Y-80092076D01*
X222203441Y-80103416D01*
X222290460Y-80267077D01*
X222297249Y-80277294D01*
X222414397Y-80420933D01*
X222423041Y-80429637D01*
X222565856Y-80547784D01*
X222576027Y-80554644D01*
X222739076Y-80642804D01*
X222750381Y-80647556D01*
X222865692Y-80683250D01*
X222879795Y-80683456D01*
X222883000Y-80676701D01*
X222883000Y-80669924D01*
X223391000Y-80669924D01*
X223394973Y-80683455D01*
X223402768Y-80684575D01*
X223510521Y-80652862D01*
X223521889Y-80648269D01*
X223686154Y-80562393D01*
X223696415Y-80555679D01*
X223840873Y-80439532D01*
X223849632Y-80430954D01*
X223968778Y-80288961D01*
X223975708Y-80278841D01*
X224065002Y-80116415D01*
X224069834Y-80105142D01*
X224125880Y-79928462D01*
X224128430Y-79916468D01*
X224144607Y-79772239D01*
X224145000Y-79765215D01*
X224145000Y-79758657D01*
X230769000Y-79758657D01*
X230769301Y-79764805D01*
X230782812Y-79902603D01*
X230785195Y-79914638D01*
X230838767Y-80092076D01*
X230843441Y-80103416D01*
X230930460Y-80267077D01*
X230937249Y-80277294D01*
X231054397Y-80420933D01*
X231063041Y-80429637D01*
X231205856Y-80547784D01*
X231216027Y-80554644D01*
X231379076Y-80642804D01*
X231390381Y-80647556D01*
X231505692Y-80683250D01*
X231519795Y-80683456D01*
X231523000Y-80676701D01*
X231523000Y-80669924D01*
X232031000Y-80669924D01*
X232034973Y-80683455D01*
X232042768Y-80684575D01*
X232150521Y-80652862D01*
X232161889Y-80648269D01*
X232326154Y-80562393D01*
X232336415Y-80555679D01*
X232480873Y-80439532D01*
X232489632Y-80430954D01*
X232608778Y-80288961D01*
X232615708Y-80278841D01*
X232705002Y-80116415D01*
X232709834Y-80105142D01*
X232765880Y-79928462D01*
X232768430Y-79916468D01*
X232784607Y-79772239D01*
X232785000Y-79765215D01*
X232785000Y-79684115D01*
X232780525Y-79668876D01*
X232779135Y-79667671D01*
X232771452Y-79666000D01*
X232049115Y-79666000D01*
X232033876Y-79670475D01*
X232032671Y-79671865D01*
X232031000Y-79679548D01*
X232031000Y-80669924D01*
X231523000Y-80669924D01*
X231523000Y-79684115D01*
X231518525Y-79668876D01*
X231517135Y-79667671D01*
X231509452Y-79666000D01*
X230787115Y-79666000D01*
X230771876Y-79670475D01*
X230770671Y-79671865D01*
X230769000Y-79679548D01*
X230769000Y-79758657D01*
X224145000Y-79758657D01*
X224145000Y-79684115D01*
X224140525Y-79668876D01*
X224139135Y-79667671D01*
X224131452Y-79666000D01*
X223409115Y-79666000D01*
X223393876Y-79670475D01*
X223392671Y-79671865D01*
X223391000Y-79679548D01*
X223391000Y-80669924D01*
X222883000Y-80669924D01*
X222883000Y-79684115D01*
X222878525Y-79668876D01*
X222877135Y-79667671D01*
X222869452Y-79666000D01*
X222147115Y-79666000D01*
X222131876Y-79670475D01*
X222130671Y-79671865D01*
X222129000Y-79679548D01*
X222129000Y-79758657D01*
X221334730Y-79758657D01*
X221338149Y-79755238D01*
X221396528Y-79671865D01*
X221461299Y-79579362D01*
X221461300Y-79579360D01*
X221464456Y-79574853D01*
X221466779Y-79569871D01*
X221466782Y-79569866D01*
X221532813Y-79428261D01*
X221557520Y-79375276D01*
X221614515Y-79162571D01*
X221616500Y-79139885D01*
X222129000Y-79139885D01*
X222133475Y-79155124D01*
X222134865Y-79156329D01*
X222142548Y-79158000D01*
X222864885Y-79158000D01*
X222880124Y-79153525D01*
X222881329Y-79152135D01*
X222883000Y-79144452D01*
X222883000Y-79139885D01*
X223391000Y-79139885D01*
X223395475Y-79155124D01*
X223396865Y-79156329D01*
X223404548Y-79158000D01*
X224126885Y-79158000D01*
X224142124Y-79153525D01*
X224143329Y-79152135D01*
X224145000Y-79144452D01*
X224145000Y-79139885D01*
X230769000Y-79139885D01*
X230773475Y-79155124D01*
X230774865Y-79156329D01*
X230782548Y-79158000D01*
X231504885Y-79158000D01*
X231520124Y-79153525D01*
X231521329Y-79152135D01*
X231523000Y-79144452D01*
X231523000Y-79139885D01*
X232031000Y-79139885D01*
X232035475Y-79155124D01*
X232036865Y-79156329D01*
X232044548Y-79158000D01*
X232766885Y-79158000D01*
X232782124Y-79153525D01*
X232783329Y-79152135D01*
X232785000Y-79144452D01*
X232785000Y-79065343D01*
X232784699Y-79059195D01*
X232771188Y-78921397D01*
X232768805Y-78909362D01*
X232728742Y-78776669D01*
X250209001Y-78776669D01*
X250209371Y-78783490D01*
X250214895Y-78834352D01*
X250218521Y-78849604D01*
X250263676Y-78970054D01*
X250272214Y-78985649D01*
X250348715Y-79087724D01*
X250361276Y-79100285D01*
X250463351Y-79176786D01*
X250478946Y-79185324D01*
X250599394Y-79230478D01*
X250614649Y-79234105D01*
X250665514Y-79239631D01*
X250672328Y-79240000D01*
X251699885Y-79240000D01*
X251715124Y-79235525D01*
X251716329Y-79234135D01*
X251718000Y-79226452D01*
X251718000Y-78504115D01*
X251713525Y-78488876D01*
X251712135Y-78487671D01*
X251704452Y-78486000D01*
X250227116Y-78486000D01*
X250211877Y-78490475D01*
X250210672Y-78491865D01*
X250209001Y-78499548D01*
X250209001Y-78776669D01*
X232728742Y-78776669D01*
X232715233Y-78731924D01*
X232710559Y-78720584D01*
X232623540Y-78556923D01*
X232616751Y-78546706D01*
X232499603Y-78403067D01*
X232490959Y-78394363D01*
X232348144Y-78276216D01*
X232337973Y-78269356D01*
X232174924Y-78181196D01*
X232163619Y-78176444D01*
X232048308Y-78140750D01*
X232034205Y-78140544D01*
X232031000Y-78147299D01*
X232031000Y-79139885D01*
X231523000Y-79139885D01*
X231523000Y-78154076D01*
X231519027Y-78140545D01*
X231511232Y-78139425D01*
X231403479Y-78171138D01*
X231392111Y-78175731D01*
X231227846Y-78261607D01*
X231217585Y-78268321D01*
X231073127Y-78384468D01*
X231064368Y-78393046D01*
X230945222Y-78535039D01*
X230938292Y-78545159D01*
X230848998Y-78707585D01*
X230844166Y-78718858D01*
X230788120Y-78895538D01*
X230785570Y-78907532D01*
X230769393Y-79051761D01*
X230769000Y-79058785D01*
X230769000Y-79139885D01*
X224145000Y-79139885D01*
X224145000Y-79065343D01*
X224144699Y-79059195D01*
X224131188Y-78921397D01*
X224128805Y-78909362D01*
X224075233Y-78731924D01*
X224070559Y-78720584D01*
X223983540Y-78556923D01*
X223976751Y-78546706D01*
X223859603Y-78403067D01*
X223850959Y-78394363D01*
X223708144Y-78276216D01*
X223697973Y-78269356D01*
X223534924Y-78181196D01*
X223523619Y-78176444D01*
X223408308Y-78140750D01*
X223394205Y-78140544D01*
X223391000Y-78147299D01*
X223391000Y-79139885D01*
X222883000Y-79139885D01*
X222883000Y-78154076D01*
X222879027Y-78140545D01*
X222871232Y-78139425D01*
X222763479Y-78171138D01*
X222752111Y-78175731D01*
X222587846Y-78261607D01*
X222577585Y-78268321D01*
X222433127Y-78384468D01*
X222424368Y-78393046D01*
X222305222Y-78535039D01*
X222298292Y-78545159D01*
X222208998Y-78707585D01*
X222204166Y-78718858D01*
X222148120Y-78895538D01*
X222145570Y-78907532D01*
X222129393Y-79051761D01*
X222129000Y-79058785D01*
X222129000Y-79139885D01*
X221616500Y-79139885D01*
X221633707Y-78943200D01*
X221614515Y-78723829D01*
X221557520Y-78511124D01*
X221503074Y-78394363D01*
X221466782Y-78316534D01*
X221466779Y-78316529D01*
X221464456Y-78311547D01*
X221461299Y-78307038D01*
X221341308Y-78135673D01*
X221341306Y-78135670D01*
X221338149Y-78131162D01*
X221182438Y-77975451D01*
X221177703Y-77972135D01*
X221160208Y-77959885D01*
X250209000Y-77959885D01*
X250213475Y-77975124D01*
X250214865Y-77976329D01*
X250222548Y-77978000D01*
X251699885Y-77978000D01*
X251715124Y-77973525D01*
X251716329Y-77972135D01*
X251718000Y-77964452D01*
X251718000Y-77242116D01*
X251713525Y-77226877D01*
X251712135Y-77225672D01*
X251704452Y-77224001D01*
X250672331Y-77224001D01*
X250665510Y-77224371D01*
X250614648Y-77229895D01*
X250599396Y-77233521D01*
X250478946Y-77278676D01*
X250463351Y-77287214D01*
X250361276Y-77363715D01*
X250348715Y-77376276D01*
X250272214Y-77478351D01*
X250263676Y-77493946D01*
X250218522Y-77614394D01*
X250214895Y-77629649D01*
X250209369Y-77680514D01*
X250209000Y-77687328D01*
X250209000Y-77959885D01*
X221160208Y-77959885D01*
X221041962Y-77877088D01*
X221002054Y-77849144D01*
X220802476Y-77756080D01*
X220589771Y-77699085D01*
X220370400Y-77679893D01*
X220151029Y-77699085D01*
X219938324Y-77756080D01*
X219844962Y-77799615D01*
X219743734Y-77846818D01*
X219743729Y-77846821D01*
X219738747Y-77849144D01*
X219734240Y-77852300D01*
X219734238Y-77852301D01*
X219562873Y-77972292D01*
X219562870Y-77972294D01*
X219558362Y-77975451D01*
X219402651Y-78131162D01*
X219399494Y-78135670D01*
X219399492Y-78135673D01*
X219279501Y-78307038D01*
X219276344Y-78311547D01*
X219274021Y-78316529D01*
X219274018Y-78316534D01*
X219237726Y-78394363D01*
X219183280Y-78511124D01*
X219126285Y-78723829D01*
X219107093Y-78943200D01*
X219126285Y-79162571D01*
X219183280Y-79375276D01*
X219207987Y-79428261D01*
X219274018Y-79569866D01*
X219274021Y-79569871D01*
X219276344Y-79574853D01*
X219279501Y-79579361D01*
X219279504Y-79579367D01*
X219349213Y-79678922D01*
X219372000Y-79751192D01*
X219372000Y-80401000D01*
X219351998Y-80469121D01*
X219298342Y-80515614D01*
X219246000Y-80527000D01*
X218363500Y-80527000D01*
X218295379Y-80506998D01*
X218248886Y-80453342D01*
X218237500Y-80401000D01*
X218237500Y-80266866D01*
X218230745Y-80204684D01*
X218227971Y-80197284D01*
X218226966Y-80193058D01*
X218226966Y-80134761D01*
X218231105Y-80117354D01*
X218236631Y-80066486D01*
X218237000Y-80059672D01*
X218237000Y-79962115D01*
X218232525Y-79946876D01*
X218231135Y-79945671D01*
X218223452Y-79944000D01*
X218123910Y-79944000D01*
X218055789Y-79923998D01*
X218048345Y-79918826D01*
X218045199Y-79916468D01*
X217975705Y-79864385D01*
X217839316Y-79813255D01*
X217832010Y-79812461D01*
X217770576Y-79777365D01*
X217737756Y-79714410D01*
X217744182Y-79643705D01*
X217787814Y-79587698D01*
X217831940Y-79567546D01*
X217839316Y-79566745D01*
X217975705Y-79515615D01*
X218048346Y-79461174D01*
X218114851Y-79436326D01*
X218123910Y-79436000D01*
X218218884Y-79436000D01*
X218234123Y-79431525D01*
X218235328Y-79430135D01*
X218236999Y-79422452D01*
X218236999Y-79320331D01*
X218236629Y-79313510D01*
X218231105Y-79262651D01*
X218226965Y-79245236D01*
X218226966Y-79186942D01*
X218227971Y-79182716D01*
X218230745Y-79175316D01*
X218237500Y-79113134D01*
X218237500Y-78366866D01*
X218230745Y-78304684D01*
X218179615Y-78168295D01*
X218092261Y-78051739D01*
X217975705Y-77964385D01*
X217839316Y-77913255D01*
X217777134Y-77906500D01*
X216120866Y-77906500D01*
X216058684Y-77913255D01*
X216024564Y-77926046D01*
X215930697Y-77961235D01*
X215930696Y-77961236D01*
X215922295Y-77964385D01*
X215919146Y-77966745D01*
X215872132Y-77980827D01*
X215868942Y-77981087D01*
X215858747Y-77981500D01*
X215850685Y-77981500D01*
X215847051Y-77981924D01*
X215847045Y-77981924D01*
X215834020Y-77983443D01*
X215822458Y-77984791D01*
X215818110Y-77985221D01*
X215745342Y-77991140D01*
X215738381Y-77993395D01*
X215732441Y-77994582D01*
X215726566Y-77995971D01*
X215719297Y-77996818D01*
X215650648Y-78021736D01*
X215646520Y-78023153D01*
X215584042Y-78043393D01*
X215584040Y-78043394D01*
X215577079Y-78045649D01*
X215570824Y-78049445D01*
X215565350Y-78051951D01*
X215559921Y-78054670D01*
X215553041Y-78057167D01*
X215546919Y-78061181D01*
X215543828Y-78063207D01*
X215541401Y-78063944D01*
X215540372Y-78064459D01*
X215540284Y-78064283D01*
X215475892Y-78083828D01*
X215407592Y-78064446D01*
X215393132Y-78052901D01*
X215392261Y-78051739D01*
X215275705Y-77964385D01*
X215139316Y-77913255D01*
X215077134Y-77906500D01*
X213420866Y-77906500D01*
X213362543Y-77912836D01*
X213292662Y-77900308D01*
X213267666Y-77877088D01*
X213265486Y-77879604D01*
X213236135Y-77854171D01*
X213228452Y-77852500D01*
X211624115Y-77852500D01*
X211608876Y-77856975D01*
X211607671Y-77858365D01*
X211606187Y-77865186D01*
X211606266Y-77866888D01*
X211611702Y-77926046D01*
X211614315Y-77939096D01*
X211658029Y-78078589D01*
X211664234Y-78092331D01*
X211669026Y-78100243D01*
X211687207Y-78168872D01*
X211669027Y-78230790D01*
X211659843Y-78245955D01*
X211657572Y-78253202D01*
X211657571Y-78253204D01*
X211650360Y-78276216D01*
X211611819Y-78399199D01*
X211605500Y-78467968D01*
X211605500Y-78666020D01*
X211585498Y-78734141D01*
X211531842Y-78780634D01*
X211479500Y-78792020D01*
X207116300Y-78792020D01*
X207048179Y-78772018D01*
X207001686Y-78718362D01*
X206990484Y-78659209D01*
X206991000Y-78649677D01*
X206991000Y-78377115D01*
X206986525Y-78361876D01*
X206985135Y-78360671D01*
X206977452Y-78359000D01*
X205500115Y-78359000D01*
X205484876Y-78363475D01*
X205483671Y-78364865D01*
X205482000Y-78372548D01*
X205482000Y-79094884D01*
X205486475Y-79110123D01*
X205487865Y-79111328D01*
X205495548Y-79112999D01*
X205884761Y-79112999D01*
X205952882Y-79133001D01*
X205999375Y-79186657D01*
X206009479Y-79256931D01*
X205979985Y-79321511D01*
X205973856Y-79328094D01*
X204739089Y-80562861D01*
X204724677Y-80575247D01*
X204713082Y-80583780D01*
X204713077Y-80583785D01*
X204707182Y-80588123D01*
X204702443Y-80593701D01*
X204702440Y-80593704D01*
X204672965Y-80628399D01*
X204666035Y-80635915D01*
X204660340Y-80641610D01*
X204658060Y-80644492D01*
X204642719Y-80663882D01*
X204639928Y-80667286D01*
X204626191Y-80683456D01*
X204592667Y-80722916D01*
X204589339Y-80729432D01*
X204585972Y-80734481D01*
X204582805Y-80739610D01*
X204578266Y-80745347D01*
X204547345Y-80811506D01*
X204545442Y-80815400D01*
X204512231Y-80880439D01*
X204510492Y-80887547D01*
X204508393Y-80893190D01*
X204506476Y-80898953D01*
X204503378Y-80905581D01*
X204488523Y-80977002D01*
X204488514Y-80977043D01*
X204487544Y-80981327D01*
X204470192Y-81052241D01*
X204469500Y-81063395D01*
X204469464Y-81063393D01*
X204469225Y-81067386D01*
X204468851Y-81071578D01*
X204467360Y-81078746D01*
X204467558Y-81086063D01*
X204469454Y-81156152D01*
X204469500Y-81159559D01*
X204469500Y-82050500D01*
X204449498Y-82118621D01*
X204395842Y-82165114D01*
X204343500Y-82176500D01*
X203924866Y-82176500D01*
X203921471Y-82176869D01*
X203921467Y-82176869D01*
X203889607Y-82180330D01*
X203819725Y-82167802D01*
X203767709Y-82119481D01*
X203750000Y-82055067D01*
X203750000Y-79234428D01*
X203770002Y-79166307D01*
X203823658Y-79119814D01*
X203889607Y-79109165D01*
X203921512Y-79112631D01*
X203928328Y-79113000D01*
X204955885Y-79113000D01*
X204971124Y-79108525D01*
X204972329Y-79107135D01*
X204974000Y-79099452D01*
X204974000Y-77832885D01*
X205482000Y-77832885D01*
X205486475Y-77848124D01*
X205487865Y-77849329D01*
X205495548Y-77851000D01*
X206972884Y-77851000D01*
X206988123Y-77846525D01*
X206989328Y-77845135D01*
X206990999Y-77837452D01*
X206990999Y-77560331D01*
X206990629Y-77553510D01*
X206985105Y-77502648D01*
X206981479Y-77487396D01*
X206936324Y-77366946D01*
X206927786Y-77351351D01*
X206851285Y-77249276D01*
X206838724Y-77236715D01*
X206736649Y-77160214D01*
X206721054Y-77151676D01*
X206600606Y-77106522D01*
X206585351Y-77102895D01*
X206534486Y-77097369D01*
X206527672Y-77097000D01*
X205500115Y-77097000D01*
X205484876Y-77101475D01*
X205483671Y-77102865D01*
X205482000Y-77110548D01*
X205482000Y-77832885D01*
X204974000Y-77832885D01*
X204974000Y-77115116D01*
X204969525Y-77099877D01*
X204968135Y-77098672D01*
X204960452Y-77097001D01*
X203928331Y-77097001D01*
X203921512Y-77097370D01*
X203889606Y-77100836D01*
X203819724Y-77088307D01*
X203767709Y-77039986D01*
X203750000Y-76975573D01*
X203750000Y-76834000D01*
X203770002Y-76765879D01*
X203823658Y-76719386D01*
X203876000Y-76708000D01*
X211705140Y-76708000D01*
X211773261Y-76728002D01*
G37*
%TD.AperFunction*%
%TA.AperFunction,Conductor*%
G36*
X246885332Y-91532793D02*
G01*
X246920802Y-91583788D01*
X246952470Y-91668261D01*
X246956385Y-91678705D01*
X247043739Y-91795261D01*
X247160295Y-91882615D01*
X247296684Y-91933745D01*
X247358866Y-91940500D01*
X247927500Y-91940500D01*
X247995621Y-91960502D01*
X248042114Y-92014158D01*
X248053500Y-92066500D01*
X248053500Y-92893755D01*
X248033498Y-92961876D01*
X248016595Y-92982850D01*
X246893831Y-94105614D01*
X246831519Y-94139640D01*
X246760704Y-94134575D01*
X246703868Y-94092028D01*
X246679814Y-94032964D01*
X246677897Y-94018402D01*
X246676819Y-94001957D01*
X246676820Y-91628017D01*
X246696822Y-91559896D01*
X246750478Y-91513403D01*
X246820752Y-91503300D01*
X246885332Y-91532793D01*
G37*
%TD.AperFunction*%
%TA.AperFunction,Conductor*%
G36*
X250195367Y-89020502D02*
G01*
X250241860Y-89074158D01*
X250245228Y-89082270D01*
X250257658Y-89115425D01*
X250266385Y-89138705D01*
X250353739Y-89255261D01*
X250470295Y-89342615D01*
X250606684Y-89393745D01*
X250668866Y-89400500D01*
X253275134Y-89400500D01*
X253337316Y-89393745D01*
X253339376Y-89392973D01*
X253407751Y-89396541D01*
X253465395Y-89437985D01*
X253491483Y-89504016D01*
X253492000Y-89515423D01*
X253492000Y-92348577D01*
X253471998Y-92416698D01*
X253418342Y-92463191D01*
X253348068Y-92473295D01*
X253342697Y-92472272D01*
X253337316Y-92470255D01*
X253275134Y-92463500D01*
X250668866Y-92463500D01*
X250606684Y-92470255D01*
X250470295Y-92521385D01*
X250353739Y-92608739D01*
X250266385Y-92725295D01*
X250263233Y-92733703D01*
X250245228Y-92781730D01*
X250202586Y-92838495D01*
X250136024Y-92863194D01*
X250127246Y-92863500D01*
X249396500Y-92863500D01*
X249328379Y-92843498D01*
X249281886Y-92789842D01*
X249270500Y-92737500D01*
X249270500Y-92066500D01*
X249290502Y-91998379D01*
X249344158Y-91951886D01*
X249396500Y-91940500D01*
X249965134Y-91940500D01*
X250027316Y-91933745D01*
X250163705Y-91882615D01*
X250280261Y-91795261D01*
X250367615Y-91678705D01*
X250418745Y-91542316D01*
X250425500Y-91480134D01*
X250425500Y-90383866D01*
X250418745Y-90321684D01*
X250367615Y-90185295D01*
X250280261Y-90068739D01*
X250163705Y-89981385D01*
X250027316Y-89930255D01*
X249965134Y-89923500D01*
X247746645Y-89923500D01*
X247678524Y-89903498D01*
X247632031Y-89849842D01*
X247621927Y-89779568D01*
X247651421Y-89714988D01*
X247657550Y-89708405D01*
X248328550Y-89037405D01*
X248390862Y-89003379D01*
X248417645Y-89000500D01*
X250127246Y-89000500D01*
X250195367Y-89020502D01*
G37*
%TD.AperFunction*%
%TA.AperFunction,Conductor*%
G36*
X214263882Y-90878502D02*
G01*
X214284856Y-90895405D01*
X214983357Y-91593906D01*
X215017383Y-91656218D01*
X215012318Y-91727033D01*
X214969771Y-91783869D01*
X214903251Y-91808680D01*
X214894276Y-91809001D01*
X214686564Y-91809001D01*
X214683705Y-91809264D01*
X214683697Y-91809264D01*
X214649924Y-91812367D01*
X214617281Y-91815366D01*
X214610903Y-91817365D01*
X214610902Y-91817365D01*
X214470131Y-91861480D01*
X214470129Y-91861481D01*
X214462882Y-91863752D01*
X214388206Y-91908978D01*
X214319578Y-91927156D01*
X214257667Y-91908978D01*
X214187118Y-91866252D01*
X214179871Y-91863981D01*
X214179869Y-91863980D01*
X214117715Y-91844502D01*
X214032719Y-91817866D01*
X213963437Y-91811500D01*
X213960539Y-91811500D01*
X213749447Y-91811501D01*
X213536564Y-91811501D01*
X213533705Y-91811764D01*
X213533697Y-91811764D01*
X213501144Y-91814755D01*
X213467281Y-91817866D01*
X213460903Y-91819865D01*
X213460902Y-91819865D01*
X213320131Y-91863980D01*
X213320129Y-91863981D01*
X213312882Y-91866252D01*
X213174482Y-91950070D01*
X213060070Y-92064482D01*
X212976252Y-92202882D01*
X212973981Y-92210129D01*
X212973980Y-92210131D01*
X212944821Y-92303179D01*
X212905364Y-92362201D01*
X212840260Y-92390521D01*
X212824587Y-92391500D01*
X212054239Y-92391500D01*
X211986118Y-92371498D01*
X211965143Y-92354595D01*
X211530310Y-91919761D01*
X211496285Y-91857449D01*
X211501350Y-91786633D01*
X211524182Y-91748153D01*
X211536329Y-91734135D01*
X211538000Y-91726452D01*
X211538000Y-91721884D01*
X212046000Y-91721884D01*
X212050475Y-91737123D01*
X212051865Y-91738328D01*
X212059548Y-91739999D01*
X212505984Y-91739999D01*
X212510920Y-91739805D01*
X212539336Y-91737570D01*
X212551931Y-91735270D01*
X212697790Y-91692893D01*
X212712221Y-91686648D01*
X212841678Y-91610089D01*
X212854104Y-91600449D01*
X212960449Y-91494104D01*
X212970089Y-91481678D01*
X213046648Y-91352221D01*
X213052893Y-91337790D01*
X213091939Y-91203395D01*
X213091899Y-91189294D01*
X213084630Y-91186000D01*
X212064115Y-91186000D01*
X212048876Y-91190475D01*
X212047671Y-91191865D01*
X212046000Y-91199548D01*
X212046000Y-91721884D01*
X211538000Y-91721884D01*
X211538000Y-90996020D01*
X211558002Y-90927899D01*
X211611658Y-90881406D01*
X211664000Y-90870020D01*
X212580061Y-90870020D01*
X212596504Y-90871098D01*
X212628197Y-90875270D01*
X212636386Y-90874192D01*
X212668071Y-90870021D01*
X212668081Y-90870020D01*
X212668082Y-90870020D01*
X212694835Y-90866498D01*
X212747397Y-90859578D01*
X212763843Y-90858500D01*
X214195761Y-90858500D01*
X214263882Y-90878502D01*
G37*
%TD.AperFunction*%
%TA.AperFunction,Conductor*%
G36*
X206692532Y-80858946D02*
G01*
X206749368Y-80901493D01*
X206774179Y-80968013D01*
X206774500Y-80977002D01*
X206774500Y-81193134D01*
X206781255Y-81255316D01*
X206832385Y-81391705D01*
X206919739Y-81508261D01*
X207036295Y-81595615D01*
X207172684Y-81646745D01*
X207234866Y-81653500D01*
X209841134Y-81653500D01*
X209903316Y-81646745D01*
X210039705Y-81595615D01*
X210121260Y-81534493D01*
X210145703Y-81516174D01*
X210212209Y-81491326D01*
X210221268Y-81491000D01*
X210529195Y-81491000D01*
X210597316Y-81511002D01*
X210643809Y-81564658D01*
X210653913Y-81634932D01*
X210624419Y-81699512D01*
X210581045Y-81731837D01*
X210577204Y-81733571D01*
X210569955Y-81735843D01*
X210432590Y-81819034D01*
X210319034Y-81932590D01*
X210235843Y-82069955D01*
X210233572Y-82077202D01*
X210233571Y-82077204D01*
X210228270Y-82094120D01*
X210187819Y-82223199D01*
X210181500Y-82291968D01*
X210181500Y-82823032D01*
X210187819Y-82891801D01*
X210235843Y-83045045D01*
X210239779Y-83051544D01*
X210245027Y-83060210D01*
X210263207Y-83128839D01*
X210245026Y-83190757D01*
X210240234Y-83198669D01*
X210234029Y-83212411D01*
X210190315Y-83351904D01*
X210187702Y-83364954D01*
X210182463Y-83421962D01*
X210186475Y-83435624D01*
X210187865Y-83436829D01*
X210195548Y-83438500D01*
X211652433Y-83438500D01*
X211720780Y-83458648D01*
X211738927Y-83470365D01*
X211811684Y-83517344D01*
X211811687Y-83517345D01*
X211816721Y-83520596D01*
X212017334Y-83601446D01*
X212023215Y-83602594D01*
X212023220Y-83602596D01*
X212162249Y-83629746D01*
X212229617Y-83642902D01*
X212233373Y-83643086D01*
X212298402Y-83671075D01*
X212338088Y-83729945D01*
X212344000Y-83768088D01*
X212344000Y-84554858D01*
X212348271Y-84569403D01*
X212360302Y-84571448D01*
X212373088Y-84568887D01*
X212512589Y-84525171D01*
X212526334Y-84518965D01*
X212554106Y-84502145D01*
X212567481Y-84487517D01*
X212569600Y-84478364D01*
X212569600Y-84475500D01*
X212572736Y-84464821D01*
X212572847Y-84464340D01*
X212572875Y-84464346D01*
X212589602Y-84407379D01*
X212643258Y-84360886D01*
X212695600Y-84349500D01*
X213970600Y-84349500D01*
X214038721Y-84369502D01*
X214085214Y-84423158D01*
X214096600Y-84475500D01*
X214096600Y-85680884D01*
X214101075Y-85696123D01*
X214102465Y-85697328D01*
X214110148Y-85698999D01*
X214364695Y-85698999D01*
X214371214Y-85698662D01*
X214466806Y-85688743D01*
X214480200Y-85685851D01*
X214634388Y-85634411D01*
X214635873Y-85633715D01*
X214636986Y-85633544D01*
X214641332Y-85632094D01*
X214641580Y-85632838D01*
X214706045Y-85622930D01*
X214770909Y-85651796D01*
X214809870Y-85711147D01*
X214814411Y-85732678D01*
X214817856Y-85761142D01*
X214819126Y-85771639D01*
X214821811Y-85778746D01*
X214822726Y-85782469D01*
X214826395Y-85795884D01*
X214827507Y-85799568D01*
X214828812Y-85807043D01*
X214831863Y-85813993D01*
X214831864Y-85813997D01*
X214854013Y-85864453D01*
X214856501Y-85870549D01*
X214878672Y-85929222D01*
X214882971Y-85935478D01*
X214884749Y-85938878D01*
X214891494Y-85950996D01*
X214893469Y-85954336D01*
X214896524Y-85961295D01*
X214901150Y-85967323D01*
X214901150Y-85967324D01*
X214934692Y-86011037D01*
X214938563Y-86016364D01*
X214974088Y-86068054D01*
X215019763Y-86108749D01*
X215025019Y-86113712D01*
X216337637Y-87426330D01*
X216359638Y-87455981D01*
X216433443Y-87593916D01*
X216441318Y-87608634D01*
X216446165Y-87614122D01*
X216446167Y-87614125D01*
X216481988Y-87654684D01*
X216558400Y-87741204D01*
X216702840Y-87843284D01*
X216709626Y-87846019D01*
X216709630Y-87846021D01*
X216762061Y-87867151D01*
X216866889Y-87909398D01*
X216874126Y-87910499D01*
X217034515Y-87934899D01*
X217034519Y-87934899D01*
X217041749Y-87935999D01*
X217049041Y-87935406D01*
X217049044Y-87935406D01*
X217140054Y-87928003D01*
X217218037Y-87921660D01*
X217326162Y-87886633D01*
X217364991Y-87880500D01*
X217593481Y-87880500D01*
X217661602Y-87900502D01*
X217708095Y-87954158D01*
X217718199Y-88024432D01*
X217714478Y-88041652D01*
X217688233Y-88131989D01*
X217688232Y-88131993D01*
X217686438Y-88138169D01*
X217685934Y-88144574D01*
X217685933Y-88144579D01*
X217683693Y-88173042D01*
X217683500Y-88175498D01*
X217683500Y-88608502D01*
X217683693Y-88610950D01*
X217683693Y-88610958D01*
X217685225Y-88630415D01*
X217686438Y-88645831D01*
X217695698Y-88677704D01*
X217720021Y-88761424D01*
X217732855Y-88805601D01*
X217817547Y-88948807D01*
X217820229Y-88951489D01*
X217845502Y-89015861D01*
X217831600Y-89085484D01*
X217821428Y-89101312D01*
X217817547Y-89105193D01*
X217732855Y-89248399D01*
X217730644Y-89256010D01*
X217730643Y-89256012D01*
X217724414Y-89277453D01*
X217686438Y-89408169D01*
X217683500Y-89445498D01*
X217683500Y-89878502D01*
X217683693Y-89880950D01*
X217683693Y-89880958D01*
X217685177Y-89899803D01*
X217686438Y-89915831D01*
X217732855Y-90075601D01*
X217817547Y-90218807D01*
X217820229Y-90221489D01*
X217845502Y-90285861D01*
X217831600Y-90355484D01*
X217821428Y-90371312D01*
X217817547Y-90375193D01*
X217732855Y-90518399D01*
X217686438Y-90678169D01*
X217685934Y-90684574D01*
X217685933Y-90684579D01*
X217685261Y-90693124D01*
X217683500Y-90715498D01*
X217683500Y-90915480D01*
X217663498Y-90983601D01*
X217609842Y-91030094D01*
X217557500Y-91041480D01*
X217479710Y-91041480D01*
X217411589Y-91021478D01*
X217365096Y-90967822D01*
X217354788Y-90931925D01*
X217343916Y-90849336D01*
X217343916Y-90849334D01*
X217342838Y-90841149D01*
X217281524Y-90693124D01*
X217208477Y-90597928D01*
X215214315Y-88603766D01*
X215203448Y-88591375D01*
X215189013Y-88572563D01*
X215183987Y-88566013D01*
X215152075Y-88541526D01*
X215152072Y-88541523D01*
X215103370Y-88504152D01*
X215063429Y-88473504D01*
X215063427Y-88473503D01*
X215056876Y-88468476D01*
X214908851Y-88407162D01*
X214900664Y-88406084D01*
X214900663Y-88406084D01*
X214889458Y-88404609D01*
X214855937Y-88400196D01*
X214789885Y-88391500D01*
X214789882Y-88391500D01*
X214789874Y-88391499D01*
X214758189Y-88387328D01*
X214750000Y-88386250D01*
X214718307Y-88390422D01*
X214701864Y-88391500D01*
X213226500Y-88391500D01*
X213158379Y-88371498D01*
X213111886Y-88317842D01*
X213100500Y-88265500D01*
X213100500Y-88175498D01*
X213100307Y-88173042D01*
X213098067Y-88144579D01*
X213098066Y-88144574D01*
X213097562Y-88138169D01*
X213056191Y-87995766D01*
X213053357Y-87986012D01*
X213053356Y-87986010D01*
X213051145Y-87978399D01*
X212966453Y-87835193D01*
X212963771Y-87832511D01*
X212938498Y-87768139D01*
X212952400Y-87698516D01*
X212962572Y-87682688D01*
X212966453Y-87678807D01*
X213051145Y-87535601D01*
X213054817Y-87522964D01*
X213073552Y-87458474D01*
X213097562Y-87375831D01*
X213098328Y-87366109D01*
X213100307Y-87340958D01*
X213100307Y-87340950D01*
X213100500Y-87338502D01*
X213100500Y-86905498D01*
X213099863Y-86897405D01*
X213098067Y-86874579D01*
X213098066Y-86874574D01*
X213097562Y-86868169D01*
X213068528Y-86768231D01*
X213053357Y-86716012D01*
X213053356Y-86716010D01*
X213051145Y-86708399D01*
X212990522Y-86605891D01*
X212970491Y-86572020D01*
X212970489Y-86572017D01*
X212966453Y-86565193D01*
X212848807Y-86447547D01*
X212841983Y-86443511D01*
X212841980Y-86443509D01*
X212720215Y-86371498D01*
X212705601Y-86362855D01*
X212697990Y-86360644D01*
X212697988Y-86360643D01*
X212610810Y-86335316D01*
X212545831Y-86316438D01*
X212539426Y-86315934D01*
X212539421Y-86315933D01*
X212510958Y-86313693D01*
X212510950Y-86313693D01*
X212508502Y-86313500D01*
X211075498Y-86313500D01*
X211073050Y-86313693D01*
X211073042Y-86313693D01*
X211044579Y-86315933D01*
X211044574Y-86315934D01*
X211038169Y-86316438D01*
X210973190Y-86335316D01*
X210886012Y-86360643D01*
X210886010Y-86360644D01*
X210878399Y-86362855D01*
X210847996Y-86380835D01*
X210779184Y-86398294D01*
X210721016Y-86378842D01*
X210718644Y-86445249D01*
X210688187Y-86494553D01*
X210682453Y-86500287D01*
X210635110Y-86527619D01*
X210635749Y-86529162D01*
X210487724Y-86590476D01*
X210433125Y-86632372D01*
X210426496Y-86637458D01*
X210360276Y-86663059D01*
X210290727Y-86648794D01*
X210239931Y-86599193D01*
X210224015Y-86530004D01*
X210239033Y-86477819D01*
X210243615Y-86471705D01*
X210249430Y-86456195D01*
X210258566Y-86431824D01*
X210301206Y-86375059D01*
X210360101Y-86351130D01*
X210420050Y-86343238D01*
X210427677Y-86340079D01*
X210427680Y-86340078D01*
X210550874Y-86289049D01*
X210621464Y-86281460D01*
X210665592Y-86303549D01*
X210659894Y-86249834D01*
X210693516Y-86185669D01*
X210695187Y-86184387D01*
X210792724Y-86057276D01*
X210795884Y-86049648D01*
X210850878Y-85916880D01*
X210850879Y-85916877D01*
X210854038Y-85909250D01*
X210874951Y-85750400D01*
X210859452Y-85632672D01*
X210855116Y-85599738D01*
X210854038Y-85591550D01*
X210792724Y-85443525D01*
X210695187Y-85316413D01*
X210568075Y-85218876D01*
X210420050Y-85157562D01*
X210380134Y-85152307D01*
X210315207Y-85123584D01*
X210278599Y-85071614D01*
X210247289Y-84988095D01*
X212609601Y-84988095D01*
X212609938Y-84994614D01*
X212619857Y-85090206D01*
X212622749Y-85103600D01*
X212674188Y-85257784D01*
X212680361Y-85270962D01*
X212765663Y-85408807D01*
X212774699Y-85420208D01*
X212889429Y-85534739D01*
X212900840Y-85543751D01*
X213038843Y-85628816D01*
X213052024Y-85634963D01*
X213206310Y-85686138D01*
X213219686Y-85689005D01*
X213314038Y-85698672D01*
X213320454Y-85699000D01*
X213570485Y-85699000D01*
X213585724Y-85694525D01*
X213586929Y-85693135D01*
X213588600Y-85685452D01*
X213588600Y-84875615D01*
X213584125Y-84860376D01*
X213582735Y-84859171D01*
X213575052Y-84857500D01*
X212627716Y-84857500D01*
X212612477Y-84861975D01*
X212611272Y-84863365D01*
X212609601Y-84871048D01*
X212609601Y-84988095D01*
X210247289Y-84988095D01*
X210246768Y-84986705D01*
X210246767Y-84986703D01*
X210243615Y-84978295D01*
X210156261Y-84861739D01*
X210039705Y-84774385D01*
X209903316Y-84723255D01*
X209841134Y-84716500D01*
X207234866Y-84716500D01*
X207172684Y-84723255D01*
X207036295Y-84774385D01*
X206919739Y-84861739D01*
X206832385Y-84978295D01*
X206781255Y-85114684D01*
X206774500Y-85176866D01*
X206774500Y-86273134D01*
X206781255Y-86335316D01*
X206832385Y-86471705D01*
X206919739Y-86588261D01*
X207036295Y-86675615D01*
X207172684Y-86726745D01*
X207234866Y-86733500D01*
X208633761Y-86733500D01*
X208701882Y-86753502D01*
X208722856Y-86770405D01*
X208923685Y-86971234D01*
X208934552Y-86983625D01*
X208954013Y-87008987D01*
X208960563Y-87014013D01*
X208985921Y-87033471D01*
X208985937Y-87033485D01*
X209029140Y-87066635D01*
X209081124Y-87106524D01*
X209150033Y-87135067D01*
X209221520Y-87164678D01*
X209221523Y-87164679D01*
X209229150Y-87167838D01*
X209388000Y-87188751D01*
X209419699Y-87184578D01*
X209431646Y-87183795D01*
X209431644Y-87183770D01*
X209435764Y-87183500D01*
X209439885Y-87183500D01*
X209443972Y-87182962D01*
X209550664Y-87168916D01*
X209550666Y-87168915D01*
X209558850Y-87167838D01*
X209566475Y-87164679D01*
X209567593Y-87164380D01*
X209638570Y-87166071D01*
X209697365Y-87205866D01*
X209725311Y-87271131D01*
X209713536Y-87341144D01*
X209689297Y-87375182D01*
X209603766Y-87460713D01*
X209591375Y-87471580D01*
X209566013Y-87491041D01*
X209541526Y-87522953D01*
X209541523Y-87522956D01*
X209532524Y-87534684D01*
X209475882Y-87608501D01*
X209468476Y-87618152D01*
X209467574Y-87620330D01*
X209418167Y-87667435D01*
X209348453Y-87680869D01*
X209312217Y-87671849D01*
X209289940Y-87662622D01*
X209251651Y-87646762D01*
X209243464Y-87645684D01*
X209243463Y-87645684D01*
X209100989Y-87626928D01*
X209092800Y-87625850D01*
X208933949Y-87646762D01*
X208926317Y-87649923D01*
X208918342Y-87652060D01*
X208917804Y-87650052D01*
X208885377Y-87656500D01*
X207072754Y-87656500D01*
X207004633Y-87636498D01*
X206958140Y-87582842D01*
X206954772Y-87574730D01*
X206936767Y-87526703D01*
X206933615Y-87518295D01*
X206846261Y-87401739D01*
X206729705Y-87314385D01*
X206593316Y-87263255D01*
X206531134Y-87256500D01*
X203924866Y-87256500D01*
X203921471Y-87256869D01*
X203921467Y-87256869D01*
X203889607Y-87260330D01*
X203819725Y-87247802D01*
X203767709Y-87199481D01*
X203750000Y-87135067D01*
X203750000Y-84314933D01*
X203770002Y-84246812D01*
X203823658Y-84200319D01*
X203889607Y-84189670D01*
X203921467Y-84193131D01*
X203921471Y-84193131D01*
X203924866Y-84193500D01*
X206531134Y-84193500D01*
X206593316Y-84186745D01*
X206729705Y-84135615D01*
X206846261Y-84048261D01*
X206913019Y-83959186D01*
X210182187Y-83959186D01*
X210182266Y-83960888D01*
X210187702Y-84020046D01*
X210190315Y-84033096D01*
X210234029Y-84172589D01*
X210240235Y-84186334D01*
X210315496Y-84310604D01*
X210324803Y-84322473D01*
X210427527Y-84425197D01*
X210439396Y-84434504D01*
X210563666Y-84509765D01*
X210577411Y-84515971D01*
X210716912Y-84559687D01*
X210728503Y-84562009D01*
X210742835Y-84559194D01*
X210746000Y-84547298D01*
X210746000Y-84545658D01*
X211254000Y-84545658D01*
X211258271Y-84560203D01*
X211270302Y-84562248D01*
X211283088Y-84559687D01*
X211422589Y-84515971D01*
X211436331Y-84509766D01*
X211472132Y-84488084D01*
X211540762Y-84469905D01*
X211602676Y-84488084D01*
X211653666Y-84518965D01*
X211667411Y-84525171D01*
X211806912Y-84568887D01*
X211818503Y-84571209D01*
X211832835Y-84568394D01*
X211836000Y-84556498D01*
X211836000Y-83973815D01*
X211831525Y-83958576D01*
X211830135Y-83957371D01*
X211822452Y-83955700D01*
X211272115Y-83955700D01*
X211256876Y-83960175D01*
X211255671Y-83961565D01*
X211254000Y-83969248D01*
X211254000Y-84545658D01*
X210746000Y-84545658D01*
X210746000Y-83964615D01*
X210741525Y-83949376D01*
X210740135Y-83948171D01*
X210732452Y-83946500D01*
X210200115Y-83946500D01*
X210184876Y-83950975D01*
X210183671Y-83952365D01*
X210182187Y-83959186D01*
X206913019Y-83959186D01*
X206933615Y-83931705D01*
X206984745Y-83795316D01*
X206991500Y-83733134D01*
X206991500Y-82636866D01*
X206984745Y-82574684D01*
X206933615Y-82438295D01*
X206846261Y-82321739D01*
X206729705Y-82234385D01*
X206593316Y-82183255D01*
X206531134Y-82176500D01*
X206112500Y-82176500D01*
X206044379Y-82156498D01*
X205997886Y-82102842D01*
X205986500Y-82050500D01*
X205986500Y-81513003D01*
X206006502Y-81444882D01*
X206023404Y-81423908D01*
X206559405Y-80887907D01*
X206621717Y-80853882D01*
X206692532Y-80858946D01*
G37*
%TD.AperFunction*%
%TA.AperFunction,Conductor*%
G36*
X224895941Y-86391747D02*
G01*
X224944419Y-86437650D01*
X224954600Y-86454460D01*
X224965835Y-86473012D01*
X224984014Y-86541641D01*
X224965834Y-86603555D01*
X224935048Y-86654388D01*
X224928839Y-86668139D01*
X224884763Y-86808789D01*
X224882150Y-86821836D01*
X224878344Y-86863259D01*
X224881266Y-86878136D01*
X224893160Y-86881300D01*
X225832400Y-86881300D01*
X225900521Y-86901302D01*
X225947014Y-86954958D01*
X225958400Y-87007300D01*
X225958400Y-87978953D01*
X225962671Y-87993498D01*
X225988951Y-87997966D01*
X226052755Y-88029102D01*
X226089598Y-88089791D01*
X226087781Y-88160765D01*
X226047881Y-88219489D01*
X226033105Y-88229960D01*
X225956596Y-88276296D01*
X225944727Y-88285603D01*
X225842003Y-88388327D01*
X225832696Y-88400196D01*
X225757435Y-88524466D01*
X225751229Y-88538211D01*
X225707515Y-88677704D01*
X225704902Y-88690754D01*
X225699663Y-88747762D01*
X225703675Y-88761424D01*
X225705065Y-88762629D01*
X225712748Y-88764300D01*
X227515296Y-88764300D01*
X227583417Y-88784302D01*
X227604391Y-88801205D01*
X227807595Y-89004409D01*
X227841621Y-89066721D01*
X227844500Y-89093504D01*
X227844500Y-89146300D01*
X227824498Y-89214421D01*
X227770842Y-89260914D01*
X227718500Y-89272300D01*
X225717315Y-89272300D01*
X225702075Y-89276775D01*
X225692680Y-89287617D01*
X225632954Y-89326001D01*
X225561958Y-89326001D01*
X225508361Y-89294200D01*
X225314976Y-89100815D01*
X225304108Y-89088423D01*
X225299291Y-89082145D01*
X225299281Y-89082134D01*
X225299277Y-89082128D01*
X225299274Y-89082125D01*
X225274787Y-89050213D01*
X225263190Y-89041314D01*
X225249421Y-89030748D01*
X225237030Y-89019881D01*
X224212915Y-87995766D01*
X224202048Y-87983375D01*
X224187613Y-87964563D01*
X224182587Y-87958013D01*
X224150675Y-87933526D01*
X224150672Y-87933523D01*
X224107639Y-87900502D01*
X224062029Y-87865504D01*
X224062027Y-87865503D01*
X224055476Y-87860476D01*
X223907451Y-87799162D01*
X223899264Y-87798084D01*
X223899263Y-87798084D01*
X223886873Y-87796453D01*
X223788485Y-87783500D01*
X223788476Y-87783499D01*
X223756790Y-87779328D01*
X223756789Y-87779328D01*
X223748600Y-87778250D01*
X223716907Y-87782422D01*
X223700464Y-87783500D01*
X221705332Y-87783500D01*
X221637211Y-87763498D01*
X221590718Y-87709842D01*
X221580614Y-87639568D01*
X221585499Y-87618563D01*
X221587414Y-87612672D01*
X221643542Y-87439928D01*
X221644856Y-87427432D01*
X221647140Y-87405704D01*
X224878194Y-87405704D01*
X224882151Y-87448773D01*
X224884761Y-87461806D01*
X224928839Y-87602461D01*
X224935045Y-87616206D01*
X225010933Y-87741511D01*
X225020240Y-87753380D01*
X225123820Y-87856960D01*
X225135689Y-87866267D01*
X225260994Y-87942155D01*
X225274739Y-87948361D01*
X225415394Y-87992439D01*
X225428427Y-87995049D01*
X225432361Y-87995411D01*
X225447235Y-87992488D01*
X225450400Y-87980593D01*
X225450400Y-87407415D01*
X225445925Y-87392176D01*
X225444535Y-87390971D01*
X225436852Y-87389300D01*
X224894802Y-87389300D01*
X224880257Y-87393571D01*
X224878194Y-87405704D01*
X221647140Y-87405704D01*
X221662814Y-87256565D01*
X221663504Y-87250000D01*
X221656028Y-87178866D01*
X221644232Y-87066635D01*
X221644232Y-87066633D01*
X221643542Y-87060072D01*
X221584527Y-86878444D01*
X221575029Y-86861992D01*
X221528844Y-86781999D01*
X221489040Y-86713056D01*
X221484561Y-86708081D01*
X221380230Y-86592210D01*
X221349512Y-86528203D01*
X221358277Y-86457749D01*
X221403740Y-86403218D01*
X221473866Y-86381900D01*
X224672130Y-86381900D01*
X224691080Y-86383333D01*
X224705315Y-86385499D01*
X224705319Y-86385499D01*
X224712549Y-86386599D01*
X224719841Y-86386006D01*
X224719844Y-86386006D01*
X224765218Y-86382315D01*
X224775433Y-86381900D01*
X224783493Y-86381900D01*
X224796783Y-86380351D01*
X224811707Y-86378611D01*
X224816056Y-86378180D01*
X224826425Y-86377337D01*
X224895941Y-86391747D01*
G37*
%TD.AperFunction*%
%TA.AperFunction,Conductor*%
G36*
X231147121Y-84027002D02*
G01*
X231193614Y-84080658D01*
X231205000Y-84133000D01*
X231205000Y-84181000D01*
X231184998Y-84249121D01*
X231131342Y-84295614D01*
X231079000Y-84307000D01*
X230791500Y-84307000D01*
X230723379Y-84286998D01*
X230676886Y-84233342D01*
X230665500Y-84181000D01*
X230665500Y-84133000D01*
X230685502Y-84064879D01*
X230739158Y-84018386D01*
X230791500Y-84007000D01*
X231079000Y-84007000D01*
X231147121Y-84027002D01*
G37*
%TD.AperFunction*%
%TA.AperFunction,Conductor*%
G36*
X224190621Y-84027002D02*
G01*
X224237114Y-84080658D01*
X224248500Y-84133000D01*
X224248500Y-84181000D01*
X224228498Y-84249121D01*
X224174842Y-84295614D01*
X224122500Y-84307000D01*
X223835000Y-84307000D01*
X223766879Y-84286998D01*
X223720386Y-84233342D01*
X223709000Y-84181000D01*
X223709000Y-84133000D01*
X223729002Y-84064879D01*
X223782658Y-84018386D01*
X223835000Y-84007000D01*
X224122500Y-84007000D01*
X224190621Y-84027002D01*
G37*
%TD.AperFunction*%
%TD*%
M02*
